<svg width="52" height="52" viewBox="0 0 52 52" fill="none" xmlns="http://www.w3.org/2000/svg">
<path d="M14.45 21.642V31.4686C14.45 32.7747 13.4105 33.8187 12.0864 33.8187C10.7719 33.8187 9.5 32.7665 9.5 31.4686V21.642C9.5 20.3603 10.7719 19.3082 12.0864 19.3082C13.3844 19.3082 14.45 20.3603 14.45 21.642ZM15.3781 34.9646C15.3781 36.3562 16.5125 37.4762 17.9219 37.4762H19.6324L19.6585 42.6611C19.6585 45.7918 24.4023 45.7674 24.4023 42.6611V37.4762H27.5991V42.6611C27.5991 45.7756 32.369 45.7837 32.369 42.6611V37.4762H34.1042C34.4372 37.4752 34.7666 37.4093 35.0737 37.2825C35.3808 37.1557 35.6597 36.9704 35.8942 36.7371C36.1288 36.5039 36.3145 36.2273 36.4408 35.9231C36.5671 35.619 36.6314 35.2933 36.6301 34.9646V19.7426H15.3781V34.9646ZM36.6906 18.9185H15.2833C15.2833 15.2868 17.4832 12.1303 20.7489 10.4848L19.1071 7.4898C18.8665 7.07436 19.477 6.81098 19.6833 7.16668L21.3498 10.1875C24.3486 8.87189 27.7957 8.93977 30.6571 10.1875L32.3154 7.17483C32.5299 6.80962 33.1321 7.08115 32.8915 7.49795L31.2498 10.4848C34.4893 12.1303 36.6893 15.2881 36.6893 18.9185H36.6906ZM22.0208 14.2088C22.0208 13.9726 21.9257 13.7461 21.7566 13.5791C21.5874 13.412 21.358 13.3182 21.1187 13.3182C20.6292 13.3182 20.2429 13.7255 20.2429 14.2088C20.2429 14.6921 20.6389 15.0994 21.1187 15.0994C21.6261 15.0994 22.0208 14.6921 22.0208 14.2088ZM31.7668 14.2088C31.7679 13.9765 31.6766 13.753 31.5125 13.5864C31.3485 13.4198 31.1248 13.3235 30.8895 13.3182C30.6503 13.3182 30.4208 13.412 30.2517 13.5791C30.0825 13.7461 29.9875 13.9726 29.9875 14.2088C29.9875 14.445 30.0825 14.6716 30.2517 14.8386C30.4208 15.0056 30.6503 15.0994 30.8895 15.0994C31.3708 15.0994 31.7668 14.6921 31.7668 14.2088ZM39.9136 19.3095C38.6156 19.3095 37.55 20.3359 37.55 21.6433V31.47C37.55 32.776 38.6156 33.8201 39.9136 33.8201C41.2377 33.8201 42.5 32.7679 42.5 31.47V21.6433C42.5 20.3372 41.2281 19.3095 39.9136 19.3095Z" fill="#F5F5F7"/>
</svg>
