<svg width="160" height="160" viewBox="0 0 160 160" fill="none" xmlns="http://www.w3.org/2000/svg">
<circle cx="80" cy="80" r="80" fill="#EEEDF2"/>
<path fill-rule="evenodd" clip-rule="evenodd" d="M97.5814 24H99.1003H110.597H112.116L112.524 25.4631L113.272 28.1473C114.93 28.6627 116.523 29.3262 118.035 30.122L120.463 28.7525L121.786 28.0063L122.86 29.0803L130.99 37.21L132.064 38.2839L131.317 39.6068L129.948 42.0343C130.744 43.5465 131.408 45.1398 131.923 46.7986L134.608 47.5467L136.071 47.9544V49.4733V60.9704V62.4892L134.608 62.897L131.923 63.645C131.408 65.3037 130.744 66.897 129.948 68.4092L131.318 70.8375L132.064 72.1604L130.99 73.2344L126.276 77.9483V108.795C126.276 112.023 123.66 114.64 120.432 114.64H92.5133C93.3666 118.615 96.8814 121.458 100.951 121.458H103.873C106.025 121.458 107.769 123.202 107.769 125.354V132.173C107.769 134.325 106.025 136.069 103.873 136.069H46.4034C44.2516 136.069 42.5072 134.325 42.5072 132.173V125.354C42.5072 123.202 44.2516 121.458 46.4034 121.458H49.3256C53.3951 121.458 56.9098 118.615 57.7631 114.64H29.8444C26.6166 114.64 24 112.023 24 108.795V46.4553C24 43.2276 26.6166 40.611 29.8444 40.611H78.9452L78.3786 39.6066L77.6324 38.2837L78.7063 37.2097L86.836 29.08L87.91 28.0061L89.2329 28.7523L91.6616 30.1224C93.1738 29.3263 94.767 28.6628 96.4257 28.1473L97.1737 25.4631L97.5814 24ZM126.276 75.1198L124.328 77.0679L121.446 79.9499L118.484 78.2786L118.045 78.0313L118.045 78.0312C117.552 78.3172 117.049 78.5877 116.536 78.842V78.8421C114.986 79.6105 113.349 80.2308 111.645 80.6845L110.597 84.4437H99.1003L98.0527 80.6845C95.7841 80.0806 93.6359 79.1815 91.6516 78.031L88.2496 79.9501L80.1199 71.8204L82.0391 68.4181C80.8888 66.4341 79.99 64.2862 79.3861 62.018L75.627 60.9704V49.4733L79.3861 48.4256C79.99 46.1574 80.8889 44.0094 82.0393 42.0253L82.0392 42.0253L82.0393 42.0252L81.2415 40.611H81.2414L80.1206 38.6239L88.2502 30.4943L91.6514 32.4128C93.6357 31.2622 95.784 30.3631 98.0527 29.7591L99.1003 26H110.597L111.645 29.7591C113.913 30.363 116.062 31.262 118.046 32.4125L121.446 30.4945L129.575 38.6242L127.658 42.024C128.808 44.0084 129.708 46.1568 130.312 48.4256L134.071 49.4733V60.9704L130.312 62.018C129.708 64.2867 128.808 66.4351 127.658 68.4194L129.576 71.8202L126.276 75.1198ZM120.464 81.6918L118.484 80.575V95.1584C118.484 97.3102 116.74 99.0546 114.588 99.0546H34.7147C32.5628 99.0546 30.8184 97.3102 30.8184 95.1584V51.3256C30.8184 49.1738 32.5628 47.4294 34.7147 47.4294H75.511L77.7743 46.7986C78.2305 45.3306 78.8028 43.9138 79.4802 42.5591H29.8444C27.6925 42.5591 25.9481 44.3035 25.9481 46.4553V108.795C25.9481 110.947 27.6925 112.692 29.8444 112.692H120.432C122.584 112.692 124.328 110.947 124.328 108.795V79.8965L122.861 81.3641L121.787 82.4381L120.464 81.6918ZM113.272 82.2964C114.391 81.9485 115.481 81.5332 116.536 81.0553V95.1584C116.536 96.2343 115.664 97.1065 114.588 97.1065H34.7147C33.6388 97.1065 32.7666 96.2343 32.7666 95.1584V51.3256C32.7666 50.2497 33.6388 49.3775 34.7147 49.3775H73.627V49.4733V60.9704V62.4892L75.0901 62.897L77.7743 63.645C78.2896 65.3032 78.953 66.896 79.7487 68.4078L78.3779 70.8378L77.6317 72.1606L78.7057 73.2346L86.8354 81.3643L87.9093 82.4383L89.2322 81.692L91.6619 80.3215C93.174 81.1174 94.7671 81.7809 96.4257 82.2964L97.1737 84.9806L97.5814 86.4437H99.1003H110.597H112.116L112.524 84.9806L113.272 82.2964ZM104.846 72.8628C114.589 72.8628 122.487 64.9647 122.487 55.2219C122.487 45.4791 114.589 37.581 104.846 37.581C95.1031 37.581 87.205 45.4791 87.205 55.2219C87.205 64.9647 95.1031 72.8628 104.846 72.8628ZM124.487 55.2219C124.487 66.0693 115.693 74.8628 104.846 74.8628C93.9985 74.8628 85.205 66.0693 85.205 55.2219C85.205 44.3745 93.9985 35.581 104.846 35.581C115.693 35.581 124.487 44.3745 124.487 55.2219ZM59.754 114.64H90.5224L90.5998 115.007C91.1651 117.692 92.7196 119.959 94.8336 121.458H55.4428C57.5568 119.959 59.1113 117.692 59.6766 115.007L59.754 114.64ZM44.4553 125.354C44.4553 124.278 45.3275 123.406 46.4034 123.406H103.873C104.949 123.406 105.821 124.278 105.821 125.354V132.173C105.821 133.249 104.949 134.121 103.873 134.121H46.4034C45.3275 134.121 44.4553 133.249 44.4553 132.173V125.354ZM38.6109 56.196C38.6109 55.658 39.047 55.2219 39.585 55.2219H41.5331C42.0711 55.2219 42.5072 55.658 42.5072 56.196V58.1441C42.5072 58.682 42.0711 59.1181 41.5331 59.1181H39.585C39.047 59.1181 38.6109 58.682 38.6109 58.1441V56.196ZM70.7549 66.9106C70.7549 64.7588 69.0105 63.0144 66.8587 63.0144H42.5072C40.3553 63.0144 38.6109 64.7588 38.6109 66.9106V88.34C38.6109 90.4918 40.3553 92.2362 42.5072 92.2362H66.8587C69.0105 92.2362 70.7549 90.4918 70.7549 88.34V66.9106ZM49.8126 64.9625V73.242H59.5532V64.9625H66.8587C67.9346 64.9625 68.8068 65.8347 68.8068 66.9106V88.34C68.8068 89.4159 67.9346 90.2881 66.8587 90.2881H42.5072C41.4312 90.2881 40.559 89.4159 40.559 88.34V66.9106C40.559 65.8347 41.4312 64.9625 42.5072 64.9625H49.8126ZM57.6051 64.9625H51.7607V71.2939H57.6051V64.9625ZM93.1583 89.314C93.1583 88.7761 93.5945 88.34 94.1324 88.34H96.0805C96.6185 88.34 97.0546 88.7761 97.0546 89.314V91.2622C97.0546 91.8001 96.6185 92.2362 96.0805 92.2362H94.1324C93.5945 92.2362 93.1583 91.8001 93.1583 91.2622V89.314ZM100.951 89.314C100.951 88.7761 101.387 88.34 101.925 88.34H103.873C104.411 88.34 104.847 88.7761 104.847 89.314V91.2622C104.847 91.8001 104.411 92.2362 103.873 92.2362H101.925C101.387 92.2362 100.951 91.8001 100.951 91.2622V89.314ZM107.769 89.314C107.769 88.7761 108.205 88.34 108.743 88.34H110.691C111.229 88.34 111.666 88.7761 111.666 89.314V91.2622C111.666 91.8001 111.229 92.2362 110.691 92.2362H108.743C108.205 92.2362 107.769 91.8001 107.769 91.2622V89.314ZM45.4293 56.196C45.4293 55.658 45.8654 55.2219 46.4034 55.2219H69.7809C70.3188 55.2219 70.7549 55.658 70.7549 56.196V58.1441C70.7549 58.682 70.3188 59.1181 69.7809 59.1181H46.4034C45.8654 59.1181 45.4293 58.682 45.4293 58.1441V56.196ZM110.991 55.2223C110.991 58.6154 108.24 61.3661 104.847 61.3661C101.454 61.3661 98.7034 58.6154 98.7034 55.2223C98.7034 51.8291 101.454 49.0785 104.847 49.0785C108.24 49.0785 110.991 51.8291 110.991 55.2223ZM112.991 55.2223C112.991 59.72 109.345 63.3661 104.847 63.3661C100.35 63.3661 96.7034 59.72 96.7034 55.2223C96.7034 50.7246 100.35 47.0785 104.847 47.0785C109.345 47.0785 112.991 50.7246 112.991 55.2223Z" fill="#7161BA"/>
</svg>
