<svg id="Layer_1" data-name="Layer 1" xmlns="http://www.w3.org/2000/svg" viewBox="0 0 160 160"><defs><style>.cls-1{fill:#7161ba;}.cls-2{fill:#f5f5f7;fill-rule:evenodd;}</style></defs><circle class="cls-1" cx="80" cy="80" r="80"/><path class="cls-2" d="M97.53,24h14.53l.41,1.46.75,2.69a27.58,27.58,0,0,1,4.76,2l2.42-1.37,1.33-.75,1.07,1.08,8.12,8.12L132,38.28l-.75,1.32L129.88,42a28.78,28.78,0,0,1,2,4.76l2.68.75,1.46.41V62.47l-1.46.41-2.68.74a28.08,28.08,0,0,1-2,4.76l1.37,2.43.75,1.32-1.07,1.08-4.72,4.71v30.83a5.84,5.84,0,0,1-5.84,5.84H92.47a8.63,8.63,0,0,0,8.43,6.81h2.92a3.9,3.9,0,0,1,3.9,3.89v6.82a3.9,3.9,0,0,1-3.9,3.89H46.39a3.89,3.89,0,0,1-3.89-3.89v-6.82a3.89,3.89,0,0,1,3.89-3.89h2.92a8.62,8.62,0,0,0,8.43-6.81H29.84A5.85,5.85,0,0,1,24,108.75V46.44a5.85,5.85,0,0,1,5.84-5.84H78.91l-.57-1-.74-1.32,1.07-1.08,8.13-8.12L87.87,28l1.32.75,2.43,1.37a27.25,27.25,0,0,1,4.76-2l.75-2.69Zm28.68,51.09h0l3.3-3.3-1.92-3.4A26,26,0,0,0,130.24,62L134,61V49.46l-3.76-1.05a26.11,26.11,0,0,0-2.65-6.4l1.92-3.39-8.13-8.13L118,32.41a26.11,26.11,0,0,0-6.4-2.65l-1-3.76H99.05l-1,3.76a26,26,0,0,0-6.4,2.65l-3.4-1.92-8.13,8.13,1.13,2h0L82,42h0a26,26,0,0,0-2.65,6.39l-3.76,1.05V61l3.76,1A26,26,0,0,0,82,68.39l-1.92,3.4,8.13,8.13L91.61,78A26,26,0,0,0,98,80.65l1,3.76h11.49l1-3.76a25.89,25.89,0,0,0,4.89-1.84h0c.51-.26,1-.53,1.51-.81l.44.25h0l3,1.67L124.27,77h0ZM29.84,42.55h49.6a29.41,29.41,0,0,0-1.7,4.23l-2.27.64H34.71a3.9,3.9,0,0,0-3.9,3.89V95.12A3.9,3.9,0,0,0,34.71,99h79.82a3.9,3.9,0,0,0,3.9-3.89V80.54l2,1.12,1.33.74,1.07-1.07,1.47-1.47v28.89a3.9,3.9,0,0,1-3.9,3.89H29.84A3.89,3.89,0,0,1,26,108.75V46.44A3.89,3.89,0,0,1,29.84,42.55Zm4.87,6.81H73.59V62.47l1.47.41,2.68.74a28,28,0,0,0,2,4.76l-1.37,2.43-.74,1.32,1.07,1.08,8.12,8.12,1.08,1.08,1.32-.75,2.43-1.37a28,28,0,0,0,4.76,2l.75,2.68.4,1.47h14.53l.41-1.47.75-2.68A26.07,26.07,0,0,0,116.48,81v14.1a1.94,1.94,0,0,1-2,1.94H34.71a1.94,1.94,0,0,1-2-1.94V51.31A2,2,0,0,1,34.71,49.36ZM104.8,72.83A17.63,17.63,0,1,0,87.17,55.2,17.63,17.63,0,0,0,104.8,72.83ZM124.43,55.2A19.63,19.63,0,1,1,104.8,35.58,19.63,19.63,0,0,1,124.43,55.2Zm-64.7,59.39H90.48l.08.36a10.54,10.54,0,0,0,4.23,6.45H55.42A10.5,10.5,0,0,0,59.65,115Zm-15.29,10.7a1.94,1.94,0,0,1,2-1.94h57.43a1.94,1.94,0,0,1,2,1.94v6.82a1.94,1.94,0,0,1-2,1.94H46.39a1.94,1.94,0,0,1-2-1.94ZM38.6,56.18a1,1,0,0,1,1-1h1.94a1,1,0,0,1,1,1v1.94a1,1,0,0,1-1,1H39.58a1,1,0,0,1-1-1ZM70.73,66.89a3.91,3.91,0,0,0-3.9-3.9H42.5a3.91,3.91,0,0,0-3.9,3.9V88.3a3.91,3.91,0,0,0,3.9,3.9H66.83a3.91,3.91,0,0,0,3.9-3.9Zm-20.93-2v8.27h9.73V64.94h7.3a2,2,0,0,1,2,2V88.3a2,2,0,0,1-2,2H42.5a2,2,0,0,1-2-2V66.89a2,2,0,0,1,2-2Zm7.78,0H51.74v6.33h5.84ZM93.12,89.28a1,1,0,0,1,1-1h2a1,1,0,0,1,1,1v1.94a1,1,0,0,1-1,1h-2a1,1,0,0,1-1-1Zm7.78,0a1,1,0,0,1,1-1h1.94a1,1,0,0,1,1,1v1.94a1,1,0,0,1-1,1h-1.94a1,1,0,0,1-1-1Zm6.82,0a1,1,0,0,1,1-1h2a1,1,0,0,1,1,1v1.94a1,1,0,0,1-1,1h-2a1,1,0,0,1-1-1Zm-62.3-33.1a1,1,0,0,1,1-1H69.75a1,1,0,0,1,1,1v1.94a1,1,0,0,1-1,1H46.39a1,1,0,0,1-1-1Zm65.52-1a6.14,6.14,0,1,1-6.14-6.13A6.14,6.14,0,0,1,110.94,55.2Zm2,0a8.14,8.14,0,1,1-8.14-8.13A8.14,8.14,0,0,1,112.94,55.2Z"/></svg>