<svg width="52" height="52" viewBox="0 0 52 52" fill="none" xmlns="http://www.w3.org/2000/svg">
<path d="M36.7537 27.0817C36.7353 23.9669 38.1499 21.6194 41.0066 19.8884C39.4089 17.6049 36.9917 16.3489 33.8054 16.1069C30.7886 15.8694 27.4878 17.8606 26.2793 17.8606C25.002 17.8606 22.0813 16.1891 19.7831 16.1891C15.0403 16.2621 10 19.9615 10 27.4881C10 29.7123 10.4074 32.0096 11.2223 34.3754C12.3119 37.4902 16.2398 45.1218 20.3371 44.9985C22.4795 44.9483 23.9948 43.4822 26.7828 43.4822C29.4884 43.4822 30.8893 44.9985 33.279 44.9985C37.4129 44.9392 40.9654 38.0017 42 34.8778C36.4561 32.2699 36.7537 27.2415 36.7537 27.0817ZM31.9422 13.1519C34.2632 10.4025 34.0526 7.89972 33.984 7C31.933 7.11875 29.5617 8.39297 28.2112 9.9595C26.7233 11.6402 25.8489 13.7182 26.0366 16.0612C28.2524 16.2302 30.2758 15.093 31.9422 13.1519Z" fill="#F5F5F7"/>
</svg>
