<svg width="101" height="99" viewBox="0 0 101 99" fill="none" xmlns="http://www.w3.org/2000/svg">
<g filter="url(#filter0_d)">
<circle cx="52" cy="47" r="32" fill="#F5F5F7"/>
</g>
<path d="M55.3947 51.1225C56.3037 52.7205 59.6365 55.6766 60.7703 56.4325C61.705 57.0556 66.6115 59.9373 69.3847 61.1061C69.7379 60.3998 70.7189 58.0253 71.2852 56.8215H74.4011V62.6636C74.4011 63.524 73.7036 64.2215 72.8432 64.2215H60.38C59.5196 64.2215 58.8221 63.524 58.8221 62.6636V57.9899L47.1174 50.4163C46.2645 49.8644 46.0121 48.7302 46.5506 47.8687C47.0915 47.0032 48.2288 46.7352 49.0993 47.2681L55.3947 51.1225Z" fill="#7161BA"/>
<path d="M63.1059 49.8105L58.8078 47.6614C58.1702 47.3426 57.3949 47.6011 57.076 48.2387C56.7519 48.8871 57.025 49.6752 57.6809 49.9839L62.6859 52.3391C62.9447 52.4609 63.2494 52.4311 63.4796 52.2614L69.682 47.6913C70.1491 47.3471 70.2779 46.7041 69.9794 46.2066C69.6361 45.6345 68.8732 45.485 68.3395 45.8853L63.1059 49.8105Z" fill="#7161BA"/>
<path fill-rule="evenodd" clip-rule="evenodd" d="M65.1253 47.809C62.5828 47.1112 59.7736 45.8087 59.2098 45.5268C58.4308 45.1373 57.6519 45.1377 56.094 46.3061C54.8477 47.2408 54.927 49.292 55.3165 50.2008C56.0961 51.7587 59.6 54.8745 60.7684 55.6534C61.7032 56.2766 66.6106 59.0289 68.9474 60.3271C69.5965 59.0289 71.0506 56.0429 71.6737 54.485C72.2969 52.9271 72.4527 49.4219 72.4527 47.864C72.0019 47.9541 70.975 48.1069 69.6591 48.1918L63.7104 52.5751C63.3651 52.8295 62.908 52.8743 62.5198 52.6916L57.5149 50.3364C56.661 49.9346 56.3054 48.9086 56.7274 48.0646C57.1424 47.2346 58.1517 46.8981 58.9817 47.3132L63.0646 49.3546L65.1253 47.809Z" fill="#7161BA"/>
<path d="M46.3579 43.1901L40.9052 39.2954C40.9052 39.2954 39.7368 38.5164 39.3473 39.6848C38.9579 40.8533 39.7368 41.2427 39.7368 41.2427L45.5789 45.5269H52.5894C52.5894 45.5269 53.7583 45.5267 53.7583 44.3582C53.7583 43.1898 52.5894 43.1901 52.5894 43.1901H46.3579Z" fill="#7161BA"/>
<path d="M49.8631 45.9164C50.5737 46.8622 51.7049 47.474 52.979 47.474C55.13 47.474 56.8737 45.7303 56.8737 43.5793C56.8737 41.4283 55.13 39.6846 52.979 39.6846C51.0947 39.6846 49.5229 41.0227 49.1621 42.8006H52.589L52.5906 42.8006L52.5928 42.8006L52.5985 42.8007L52.615 42.8011C52.6281 42.8015 52.6456 42.8023 52.6668 42.8038C52.7092 42.8069 52.7671 42.8127 52.8355 42.8241C52.9706 42.8466 53.1567 42.8923 53.3475 42.9876C53.5398 43.0836 53.744 43.2339 53.8992 43.4666C54.0561 43.7018 54.1474 43.9979 54.1474 44.3582C54.1474 44.7185 54.0561 45.0146 53.8993 45.2498C53.7441 45.4826 53.5399 45.6329 53.3476 45.7291C53.1568 45.8245 52.9708 45.8702 52.8357 45.8928C52.7673 45.9042 52.7093 45.9101 52.667 45.9131L52.5891 45.9164H49.8631Z" fill="#7161BA"/>
<path d="M30 50.5901C30.9088 48.2532 32.96 43.1901 33.8947 41.6322C35.0632 39.6848 36.2316 38.5164 37.4 37.7374C38.5684 36.9585 40.9053 36.569 42.4632 37.7374C43.5647 38.5636 43.6927 39.7791 43.5354 40.6957L41.126 38.9747L41.1208 38.9712L41.1195 38.9703L41.1177 38.9692L41.1129 38.9661L41.0983 38.9567C41.0863 38.9492 41.0699 38.9392 41.0495 38.9274C41.009 38.9038 40.9521 38.8726 40.8828 38.8398C40.7473 38.7756 40.5499 38.6981 40.3269 38.6663C40.1033 38.6343 39.8274 38.6449 39.5654 38.7905C39.2975 38.9393 39.0981 39.1992 38.9773 39.5616C38.7501 40.2433 38.8516 40.7523 39.0615 41.1022C39.1621 41.2697 39.2797 41.3878 39.3741 41.4649C39.4214 41.5036 39.4636 41.5327 39.4961 41.5532C39.507 41.5601 39.5169 41.566 39.5256 41.571L42.8573 44.0143C42.7262 45.8086 42.765 48.0777 43.2421 49.0318L45.1895 52.9266C43.3719 53.1862 39.0358 53.5497 36.2316 52.9266C33.4274 52.3034 30.9088 51.1092 30 50.5901Z" fill="#7161BA"/>
<circle cx="45.2375" cy="33.6047" r="4.04022" fill="#7161BA"/>
<path fill-rule="evenodd" clip-rule="evenodd" d="M43.6955 29.31C42.5232 29.7308 41.5732 30.6181 41.0692 31.748C40.3778 31.4467 39.8945 30.7572 39.8945 29.9549C39.8945 28.8753 40.7698 28 41.8495 28C42.7032 28 43.429 28.5472 43.6955 29.31Z" fill="#7161BA"/>
<path d="M45.1899 53.7051C43.8916 53.8349 40.5162 54.0167 37.4004 53.7051L41.2951 55.263L42.9171 63.3726C43.1012 64.2932 43.9587 64.9202 44.8918 64.8166C45.9073 64.7037 46.6282 63.7732 46.4837 62.7617L45.1899 53.7051Z" fill="#7161BA"/>
<path d="M31.168 52.7052V51.7578C32.1027 52.381 35.1925 53.3157 36.6206 53.7052V63.8315H38.7627C39.0854 63.8315 39.3469 64.0931 39.3469 64.4157C39.3469 64.7384 39.0854 64.9999 38.7627 64.9999H33.3101C32.9874 64.9999 32.7259 64.7384 32.7259 64.4157C32.7259 64.0931 32.9874 63.8315 33.3101 63.8315H35.4522V53.7052H32.168C31.6157 53.7052 31.168 53.2575 31.168 52.7052Z" fill="#7161BA"/>
<defs>
<filter id="filter0_d" x="-3" y="0" width="104" height="104" filterUnits="userSpaceOnUse" color-interpolation-filters="sRGB">
<feFlood flood-opacity="0" result="BackgroundImageFix"/>
<feColorMatrix in="SourceAlpha" type="matrix" values="0 0 0 0 0 0 0 0 0 0 0 0 0 0 0 0 0 0 127 0" result="hardAlpha"/>
<feOffset dx="-3" dy="5"/>
<feGaussianBlur stdDeviation="10"/>
<feColorMatrix type="matrix" values="0 0 0 0 0.443137 0 0 0 0 0.380392 0 0 0 0 0.729412 0 0 0 0.15 0"/>
<feBlend mode="normal" in2="BackgroundImageFix" result="effect1_dropShadow"/>
<feBlend mode="normal" in="SourceGraphic" in2="effect1_dropShadow" result="shape"/>
</filter>
</defs>
</svg>
