<svg width="40" height="40" viewBox="0 0 40 40" fill="none" xmlns="http://www.w3.org/2000/svg">
<path d="M23.1267 16.3761C23.9239 15.6592 25.7284 15.48 26.5311 15.48C27.3337 15.48 29.1383 15.6592 29.9354 16.3761C30.9318 17.2723 31.347 18.3314 31.347 19.7163C31.347 20.8243 31.0702 21.5358 30.9318 21.753C31.0702 21.6444 31.3636 21.5575 31.43 22.0789C31.5131 22.7306 31.347 24.1971 30.8488 24.5229C30.4502 24.7836 30.2952 24.6316 30.2675 24.5229C30.2675 24.876 30.1845 25.7124 29.8524 26.2338C29.4372 26.8855 29.1051 26.967 29.022 27.2114C28.939 27.4558 28.6069 28.5149 29.5202 29.7369C30.4336 30.9589 33.4228 31.6107 34.3361 32.018C35.2495 32.4253 37.4083 33.3215 37.8235 34.2991C38.1556 35.0812 38.1833 35.5483 38.1556 35.6841H26.5311H14.9066C14.8789 35.5483 14.9066 35.0812 15.2387 34.2991C15.6538 33.3215 17.8127 32.4253 18.7261 32.018C19.6394 31.6107 22.6286 30.9589 23.542 29.7369C24.4553 28.5149 24.1232 27.4558 24.0402 27.2114C23.9571 26.967 23.625 26.8855 23.2098 26.2338C22.8777 25.7124 22.7947 24.876 22.7947 24.5229C22.767 24.6316 22.6119 24.7836 22.2134 24.5229C21.7152 24.1971 21.5491 22.7306 21.6322 22.0789C21.6986 21.5575 21.992 21.6444 22.1304 21.753C21.992 21.5358 21.7152 20.8243 21.7152 19.7163C21.7152 18.3314 22.1304 17.2723 23.1267 16.3761Z" fill="#7161BA"/>
<path fill-rule="evenodd" clip-rule="evenodd" d="M25.1315 8.47982C25.1315 10.9089 19.9168 12.8781 13.4842 12.8781C7.05159 12.8781 1.83691 10.9089 1.83691 8.47982C1.83691 6.05072 7.05159 4.08154 13.4842 4.08154C19.9168 4.08154 25.1315 6.05072 25.1315 8.47982ZM13.6064 14.5071C5.01345 14.5071 1.99981 11.412 1.99981 11.412V14.1604C1.99981 15.0094 2.33672 15.8251 3.06295 16.265C4.57693 17.1819 7.83187 18.5796 13.6064 18.5796C16.7298 18.5796 19.116 18.1706 20.8884 17.6501C21.1716 16.8655 21.6449 16.1615 22.3459 15.532C22.9809 14.9617 23.8861 14.6898 24.5798 14.5468C24.7892 14.5036 24.9981 14.4687 25.2005 14.4407C25.2088 14.348 25.213 14.2544 25.213 14.1604V11.412C25.213 11.412 22.1993 14.5071 13.6064 14.5071ZM17.2912 31.4018C16.9489 31.5617 16.572 31.7477 16.21 31.9511C15.8254 32.1672 15.4233 32.4214 15.0753 32.7092C14.7435 32.9837 14.3688 33.363 14.1605 33.853C13.9673 34.3072 13.8514 34.6961 13.7891 35.0161C13.7485 35.2248 13.7196 35.4589 13.7317 35.6838C13.69 35.6839 13.6483 35.684 13.6064 35.684C7.83187 35.684 4.57693 34.2863 3.06295 33.3694C2.33672 32.9296 1.99981 32.1138 1.99981 31.2648V28.5164C1.99981 28.5164 5.01345 31.6115 13.6064 31.6115C14.9722 31.6115 16.197 31.5333 17.2912 31.4018ZM21.0387 24.9357C21.1639 25.1279 21.3352 25.3269 21.5697 25.48C21.6249 25.5161 21.685 25.5524 21.7495 25.5872C21.8261 25.9592 21.9647 26.4338 22.2296 26.8491C22.5087 27.2866 22.7718 27.5458 22.964 27.7207L22.9856 27.7403C23.0016 27.8223 23.0139 27.9294 23.008 28.0563C23.0049 28.1226 22.9967 28.1983 22.9793 28.2823C21.1808 29.1034 18.1859 29.9825 13.6064 29.9825C7.83187 29.9825 4.57693 28.5848 3.06295 27.6679C2.33672 27.2281 1.99981 26.4123 1.99981 25.5633V22.815C1.99981 22.815 5.01345 25.91 13.6064 25.91C16.819 25.91 19.2517 25.4774 21.0387 24.9357ZM20.562 19.3717C20.5568 19.4863 20.5542 19.6024 20.5542 19.7198C20.5542 20.2914 20.6176 20.7969 20.7135 21.2205C20.5683 21.4715 20.5053 21.7406 20.4802 21.9375C20.4264 22.3592 20.4475 22.9254 20.5313 23.4526C18.7995 23.9241 16.5247 24.281 13.6064 24.281C7.83187 24.281 4.57693 22.8833 3.06295 21.9664C2.33672 21.5266 1.99981 20.7109 1.99981 19.8618V17.1135C1.99981 17.1135 5.01345 20.2086 13.6064 20.2086C16.542 20.2086 18.8265 19.8473 20.562 19.3717Z" fill="#7161BA"/>
</svg>
