<svg id="Layer_1" data-name="Layer 1" xmlns="http://www.w3.org/2000/svg" viewBox="0 0 160 160"><defs><style>.cls-1{fill:#7161ba;}.cls-2,.cls-4{fill:#f5f5f7;}.cls-2{fill-rule:evenodd;}.cls-3{fill:none;stroke:#f5f5f7;stroke-linecap:round;stroke-width:2px;}</style></defs><circle class="cls-1" cx="80" cy="80" r="80"/><path class="cls-2" d="M53.4,129.41a1,1,0,0,0,0,2H73.65a1,1,0,0,0,0-2Zm41.75,4.72a1,1,0,0,1,0,2H74.91a1,1,0,0,1,0-2Zm-19.26-3.72a1,1,0,0,1,1-1h5.67a1,1,0,0,1,0,2H76.89A1,1,0,0,1,75.89,130.41Zm-4.22,3.72a1,1,0,1,1,0,2H66a1,1,0,0,1,0-2Z"/><path class="cls-3" d="M24,124.87H136"/><path class="cls-2" d="M64.69,52.24H87.84a3.28,3.28,0,0,1,3.23,3.33V115.8a3.29,3.29,0,0,1-3.23,3.34H64.45a9.28,9.28,0,0,1-2.72,1.07,5.18,5.18,0,0,0,3,.94H87.84a5.28,5.28,0,0,0,5.23-5.34V55.57a5.28,5.28,0,0,0-5.23-5.33H64.69a5.28,5.28,0,0,0-5.22,5.33V83.33a2.34,2.34,0,0,1,2,.92V55.57A3.27,3.27,0,0,1,64.69,52.24Z"/><path class="cls-3" d="M72.53,54.9H80"/><path class="cls-2" d="M61.79,90.08a7.12,7.12,0,1,0-5,0V85.22s0-1.89,2.49-1.89,2.48,1.89,2.48,1.89Z"/><path class="cls-3" d="M47.55,95.48v5.73m0-5.73s0-1.91-2.44-1.91-2.44,1.91-2.44,1.91V113c0,4.27,2.25,6.1,3.38,6.48v5.35H60.32v-4.58s3-.38,4.51-1.91S66,113,66,113V98.39a.85.85,0,0,0-1-.89,4.53,4.53,0,0,0-1.64.65,7.82,7.82,0,0,0-1.88,1.91m-13.9-4.58a2,2,0,0,1,2.25-1.91,2,2,0,0,1,2.26,1.91m0,0v5.73m0-5.73a2.29,2.29,0,0,1,4.51,0m0,0v8.4m0-8.4V84.79s0-1.9,2.44-1.9,2.44,1.9,2.44,1.9v15.27m0,6.49v-6.49"/><path class="cls-2" d="M49.29,24a5,5,0,0,0-5,5V87.87a1,1,0,0,0,2,0V42.39h68.35v71.06a3,3,0,0,1-3,3h-13a1,1,0,0,0,0,2h13a5,5,0,0,0,5-5V29a5,5,0,0,0-5-5H67.46a1,1,0,0,0,0,2h44.18a3,3,0,0,1,3,3V40.39H46.29V29a3,3,0,0,1,3-3h9.5a1,1,0,0,0,0-2Z"/><circle class="cls-4" cx="55.05" cy="31.11" r="1.4"/><circle class="cls-4" cx="58.85" cy="31.11" r="1.4"/><circle class="cls-4" cx="62.65" cy="31.11" r="1.4"/><path class="cls-3" d="M54.93,36.07h5.78"/><path class="cls-3" d="M64.57,36.07h8.67"/><path class="cls-3" d="M77.09,36.07h27"/></svg>