<svg width="160" height="160" viewBox="0 0 160 160" fill="none" xmlns="http://www.w3.org/2000/svg">
<circle cx="80" cy="80" r="80" fill="#EEEDF2"/>
<path fill-rule="evenodd" clip-rule="evenodd" d="M53.4033 129.409C52.851 129.409 52.4033 129.857 52.4033 130.409C52.4033 130.962 52.851 131.409 53.4033 131.409H73.6513C74.2035 131.409 74.6513 130.962 74.6513 130.409C74.6513 129.857 74.2035 129.409 73.6513 129.409H53.4033ZM95.1554 134.134C95.7077 134.134 96.1554 134.582 96.1554 135.134C96.1554 135.687 95.7077 136.134 95.1554 136.134H74.9075C74.3552 136.134 73.9075 135.687 73.9075 135.134C73.9075 134.582 74.3552 134.134 74.9075 134.134H95.1554ZM75.8898 130.409C75.8898 129.857 76.3375 129.409 76.8898 129.409H82.5592C83.1115 129.409 83.5592 129.857 83.5592 130.409C83.5592 130.962 83.1115 131.409 82.5592 131.409H76.8898C76.3375 131.409 75.8898 130.962 75.8898 130.409ZM71.6689 134.134C72.2212 134.134 72.6689 134.582 72.6689 135.134C72.6689 135.687 72.2212 136.134 71.6689 136.134H65.9995C65.4472 136.134 64.9995 135.687 64.9995 135.134C64.9995 134.582 65.4472 134.134 65.9995 134.134H71.6689Z" fill="#7161BA"/>
<path d="M24 124.868H136" stroke="#7161BA" stroke-width="2" stroke-linecap="round"/>
<path fill-rule="evenodd" clip-rule="evenodd" d="M64.6935 52.238H87.8401C89.5838 52.238 91.0668 53.6922 91.0668 55.5726V115.805C91.0668 117.686 89.5838 119.14 87.8401 119.14H64.6935C64.613 119.14 64.533 119.137 64.4537 119.131C63.5746 119.684 62.5136 120.016 61.7348 120.203C62.5761 120.794 63.5952 121.14 64.6935 121.14H87.8401C90.7267 121.14 93.0668 118.751 93.0668 115.805V55.5726C93.0668 52.6264 90.7267 50.238 87.8401 50.238H64.6935C61.8069 50.238 59.4668 52.6264 59.4668 55.5726V83.331C60.5852 83.3695 61.1656 83.8082 61.4668 84.2531V55.5726C61.4668 53.6922 62.9497 52.238 64.6935 52.238Z" fill="#7161BA"/>
<path d="M72.5332 54.9028H79.9999" stroke="#7161BA" stroke-width="2" stroke-linecap="round"/>
<path fill-rule="evenodd" clip-rule="evenodd" d="M61.7917 90.0805C64.4977 89.0584 66.4245 86.4215 66.4245 83.3297C66.4245 79.3508 63.2335 76.1252 59.2972 76.1252C55.3609 76.1252 52.1699 79.3508 52.1699 83.3297C52.1699 86.4278 54.1045 89.0692 56.8192 90.0868V85.2217C56.8192 85.2217 56.8192 83.3297 59.3055 83.3297C61.7917 83.3297 61.7917 85.2217 61.7917 85.2217V90.0805Z" fill="#7161BA"/>
<path d="M47.5507 95.48V101.205M47.5507 95.48C47.5507 95.48 47.5507 93.5718 45.1089 93.5718C42.667 93.5718 42.667 95.48 42.667 95.48C42.667 99.5509 42.667 108.761 42.667 113.036C42.667 117.31 44.921 119.142 46.048 119.524V124.867H60.3235V120.287C60.3235 120.287 63.3289 119.906 64.8316 118.379C66.3343 116.852 65.9586 113.036 65.9586 113.036V98.3883C65.9586 97.836 65.5078 97.3935 64.9665 97.503C64.4669 97.604 63.8567 97.7941 63.3289 98.1516C62.2019 98.9149 61.4505 100.06 61.4505 100.06M47.5507 95.48C47.5507 95.48 47.5507 93.5718 49.8047 93.5718C52.0588 93.5718 52.0588 95.48 52.0588 95.48M52.0588 95.48V101.205M52.0588 95.48C52.0588 95.48 52.0588 93.5718 54.3128 93.5718C56.5668 93.5718 56.5668 95.48 56.5668 95.48M56.5668 95.48V103.876M56.5668 95.48V84.7939C56.5668 84.7939 56.5668 82.8856 59.0087 82.8856C61.4505 82.8856 61.4505 84.7939 61.4505 84.7939V100.06M61.4505 106.548V100.06" stroke="#7161BA" stroke-width="2" stroke-linecap="round"/>
<path fill-rule="evenodd" clip-rule="evenodd" d="M49.2939 24C46.5325 24 44.2939 26.2386 44.2939 29V36.1815V41.3908V87.8685C44.2939 88.4207 44.7417 88.8685 45.2939 88.8685C45.8462 88.8685 46.2939 88.4207 46.2939 87.8685V42.3908H114.641V113.448C114.641 115.109 113.307 116.448 111.654 116.448H98.6671C98.1148 116.448 97.6671 116.896 97.6671 117.448C97.6671 118 98.1148 118.448 98.6671 118.448H111.654C114.42 118.448 116.641 116.205 116.641 113.448V29C116.641 26.2386 114.402 24 111.641 24H67.458C66.9057 24 66.458 24.4477 66.458 25C66.458 25.5523 66.9057 26 67.458 26H111.641C113.298 26 114.641 27.3431 114.641 29V40.3908H46.2939V36.1815V29C46.2939 27.3431 47.6371 26 49.2939 26H58.7851C59.3374 26 59.7851 25.5523 59.7851 25C59.7851 24.4477 59.3374 24 58.7851 24H49.2939Z" fill="#7161BA"/>
<ellipse cx="55.0543" cy="31.1135" rx="1.4" ry="1.39938" fill="#7161BA"/>
<ellipse cx="58.8531" cy="31.1135" rx="1.4" ry="1.39938" fill="#7161BA"/>
<ellipse cx="62.6539" cy="31.1135" rx="1.4" ry="1.39938" fill="#7161BA"/>
<path d="M54.9297 36.0724H60.7116" stroke="#7161BA" stroke-width="2" stroke-linecap="round"/>
<path d="M64.5674 36.0724H73.2403" stroke="#7161BA" stroke-width="2" stroke-linecap="round"/>
<path d="M77.0947 36.0724H104.077" stroke="#7161BA" stroke-width="2" stroke-linecap="round"/>
</svg>
