<svg id="Layer_1" data-name="Layer 1" xmlns="http://www.w3.org/2000/svg" viewBox="0 0 160 160"><defs><style>.cls-1{fill:#7161ba;}.cls-2,.cls-4{fill:#f5f5f7;}.cls-2{fill-rule:evenodd;}.cls-3{fill:none;stroke:#f5f5f7;stroke-linecap:round;stroke-width:2px;}</style></defs><circle class="cls-1" cx="80" cy="80" r="80"/><path class="cls-2" d="M36.13,53.15H30.4A6.15,6.15,0,0,0,24,59v49.71a6.15,6.15,0,0,0,6.4,5.85H61a9.28,9.28,0,0,1-9.24,6.82h-3.2a4.09,4.09,0,0,0-4.26,3.9v6.82a4.1,4.1,0,0,0,4.26,3.9h62.94a4.1,4.1,0,0,0,4.26-3.9v-6.82a4.09,4.09,0,0,0-4.26-3.9h-3.2A9.28,9.28,0,0,1,99,114.56H129.6a6.15,6.15,0,0,0,6.4-5.85V59a6.15,6.15,0,0,0-6.4-5.85h-6.67v2h6.67a4.1,4.1,0,0,1,4.27,3.9v49.71a4.1,4.1,0,0,1-4.27,3.9H30.4a4.1,4.1,0,0,1-4.27-3.9V59a4.1,4.1,0,0,1,4.27-3.9h5.73Zm27,61.41h33.7l.08.37a10.56,10.56,0,0,0,4.64,6.45H58.43a10.56,10.56,0,0,0,4.64-6.45ZM46.4,125.28a2,2,0,0,1,2.13-2h62.94a2,2,0,0,1,2.13,2v6.82a2,2,0,0,1-2.13,2H48.53a2,2,0,0,1-2.13-2Z"/><path class="cls-3" d="M59.47,99.6H79.71"/><path class="cls-3" d="M101.22,104.32H81"/><path class="cls-3" d="M83,99.6h5.67"/><path class="cls-3" d="M77.73,104.32H72.06"/><path class="cls-3" d="M82.56,73.73l-1.51,1.8"/><path class="cls-3" d="M86.51,77.25,85,79.05"/><path class="cls-3" d="M89.53,65.5,85,70.9"/><path class="cls-3" d="M93.47,69l-4.53,5.4"/><path class="cls-3" d="M52.1,90.77V60.22H68.55V90.77m7.64-30.55V84.3H108.5V60.22Z"/><path class="cls-3" d="M45.05,52.58V90.77h70.5V52.58"/><path class="cls-3" d="M46.52,52.58c-6.76,0-8.52-5.29-8.52-7.64,0-2,2.24-8.51,4.18-16.22a6.19,6.19,0,0,1,6-4.72h63.15a6.17,6.17,0,0,1,5.94,4.73c1.44,5.82,2.52,8.4,4.19,16.21,0,0,0,7.64-6.75,7.64s-8.52-7.64-8.52-7.64-1.76,7.64-8.52,7.64-8.52-7.64-8.52-7.64-1.76,7.64-8.52,7.64-8.52-7.64-8.52-7.64-1.76,7.64-8.51,7.64S55,44.94,55,44.94,53.27,52.58,46.52,52.58Z"/><circle class="cls-4" cx="63.26" cy="76.67" r="1.76"/></svg>