<svg width="921" height="390" viewBox="0 0 921 390" fill="none" xmlns="http://www.w3.org/2000/svg">
<path d="M919.348 182.862C919.736 185.538 919.996 188.229 920.127 190.933L919.128 190.981C919.192 192.317 919.225 193.657 919.225 195C919.225 196.343 919.192 197.683 919.128 199.019L920.127 199.067C919.996 201.772 919.736 204.462 919.348 207.138L918.358 206.995C917.975 209.637 917.467 212.266 916.835 214.88L917.807 215.115C917.175 217.726 916.422 220.322 915.55 222.901L914.603 222.581C913.755 225.09 912.793 227.584 911.718 230.062L912.636 230.46C911.572 232.913 910.4 235.351 909.122 237.772L908.238 237.305C906.998 239.652 905.657 241.985 904.217 244.301L905.066 244.829C903.657 247.095 902.155 249.344 900.56 251.576L899.747 250.995C898.213 253.142 896.594 255.274 894.889 257.391L895.668 258.018C893.992 260.099 892.236 262.164 890.4 264.213L889.655 263.545C887.88 265.527 886.03 267.493 884.106 269.444L884.818 270.146C882.955 272.035 881.023 273.909 879.025 275.768L878.344 275.036C876.393 276.85 874.379 278.649 872.3 280.434L872.952 281.192C870.925 282.932 868.84 284.658 866.695 286.368L866.072 285.586C863.998 287.24 861.87 288.88 859.687 290.506L860.284 291.308C858.122 292.918 855.907 294.514 853.641 296.095L853.069 295.275C850.902 296.786 848.688 298.285 846.427 299.769L846.976 300.605C844.728 302.081 842.434 303.544 840.096 304.992L839.569 304.142C837.309 305.541 835.007 306.928 832.664 308.301L833.169 309.164C830.853 310.521 828.497 311.865 826.101 313.195L825.615 312.321C823.282 313.617 820.911 314.9 818.503 316.17L818.97 317.054C816.597 318.306 814.188 319.544 811.745 320.77L811.297 319.876C808.906 321.076 806.481 322.263 804.024 323.437L804.455 324.339C802.033 325.496 799.58 326.641 797.095 327.774L796.68 326.864C794.244 327.973 791.778 329.071 789.282 330.157L789.681 331.074C787.216 332.146 784.722 333.206 782.2 334.254L781.816 333.331C779.345 334.357 776.847 335.372 774.322 336.375L774.692 337.305C772.187 338.3 769.656 339.283 767.099 340.254L766.743 339.319C764.245 340.268 761.723 341.206 759.176 342.132L759.517 343.071C756.975 343.995 754.409 344.908 751.82 345.809L751.491 344.864C748.972 345.74 746.431 346.606 743.867 347.459L744.183 348.408C741.615 349.263 739.025 350.107 736.414 350.94L736.11 349.987C733.566 350.798 731.001 351.598 728.416 352.387L728.707 353.344C726.128 354.131 723.528 354.907 720.909 355.672L720.628 354.713C718.05 355.466 715.453 356.208 712.837 356.939L713.106 357.902C710.518 358.626 707.911 359.338 705.286 360.04L705.028 359.074C702.418 359.772 699.79 360.459 697.144 361.135L697.392 362.104C694.797 362.767 692.186 363.42 689.558 364.062L689.321 363.09C686.697 363.732 684.056 364.362 681.399 364.982L681.626 365.955C679.011 366.565 676.38 367.165 673.733 367.754L673.516 366.778C670.89 367.362 668.249 367.936 665.594 368.5L665.801 369.478C663.155 370.039 660.495 370.59 657.82 371.13L657.622 370.15C654.996 370.681 652.356 371.201 649.703 371.711L649.891 372.693C647.235 373.203 644.565 373.703 641.881 374.193L641.702 373.209C639.058 373.691 636.402 374.163 633.733 374.625L633.903 375.61C631.249 376.07 628.583 376.518 625.905 376.957L625.743 375.97C623.071 376.408 620.387 376.835 617.69 377.252L617.843 378.24C615.193 378.65 612.531 379.05 609.858 379.44L609.714 378.45C607.044 378.84 604.362 379.219 601.67 379.588L601.806 380.578C599.13 380.945 596.444 381.302 593.747 381.648L593.62 380.656C590.955 380.999 588.28 381.331 585.594 381.653L585.714 382.646C583.026 382.968 580.328 383.281 577.62 383.583L577.509 382.589C574.836 382.888 572.152 383.176 569.46 383.455L569.563 384.449C566.882 384.726 564.192 384.994 561.492 385.251L561.398 384.255C558.701 384.512 555.995 384.759 553.281 384.996L553.368 385.992C550.691 386.226 548.006 386.45 545.312 386.663L545.233 385.667C542.544 385.88 539.847 386.083 537.143 386.277L537.214 387.274C534.512 387.467 531.802 387.651 529.084 387.824L529.021 386.826C526.34 386.997 523.652 387.158 520.956 387.309L521.012 388.307C518.314 388.458 515.608 388.6 512.895 388.731L512.847 387.732C510.147 387.863 507.441 387.983 504.728 388.094L504.768 389.093C502.079 389.203 499.382 389.303 496.679 389.393L496.646 388.394C493.945 388.484 491.238 388.564 488.524 388.634L488.55 389.634C485.848 389.703 483.14 389.763 480.426 389.813L480.408 388.814C477.716 388.863 475.019 388.903 472.316 388.933L472.327 389.933C469.621 389.962 466.909 389.982 464.192 389.992L464.189 388.992C462.831 388.997 461.473 389 460.112 389C458.752 389 457.393 388.997 456.036 388.992L456.032 389.992C453.315 389.982 450.603 389.962 447.898 389.933L447.909 388.933C445.205 388.903 442.508 388.863 439.817 388.814L439.798 389.813C437.084 389.763 434.376 389.703 431.674 389.634L431.7 388.634C428.987 388.564 426.279 388.484 423.579 388.394L423.546 389.393C420.842 389.303 418.146 389.203 415.456 389.093L415.497 388.094C412.784 387.983 410.077 387.863 407.378 387.732L407.329 388.731C404.616 388.6 401.911 388.458 399.213 388.307L399.268 387.309C396.573 387.158 393.884 386.997 391.204 386.826L391.14 387.824C388.422 387.651 385.712 387.467 383.01 387.274L383.082 386.277C380.377 386.083 377.68 385.88 374.992 385.667L374.913 386.663C372.219 386.45 369.533 386.226 366.856 385.992L366.943 384.996C364.229 384.759 361.523 384.512 358.827 384.255L358.732 385.251C356.033 384.994 353.343 384.726 350.662 384.449L350.765 383.454C348.072 383.176 345.389 382.888 342.715 382.589L342.604 383.583C339.897 383.281 337.199 382.968 334.511 382.646L334.63 381.653C331.945 381.331 329.27 380.998 326.605 380.656L326.478 381.648C323.781 381.302 321.094 380.945 318.419 380.578L318.554 379.588C315.862 379.219 313.181 378.84 310.511 378.45L310.366 379.44C307.693 379.05 305.032 378.65 302.381 378.24L302.534 377.252C299.838 376.835 297.153 376.408 294.481 375.97L294.32 376.957C291.641 376.518 288.975 376.07 286.322 375.61L286.492 374.625C283.823 374.163 281.166 373.691 278.523 373.209L278.343 374.193C275.66 373.703 272.99 373.203 270.333 372.693L270.522 371.711C267.868 371.201 265.228 370.681 262.602 370.15L262.404 371.13C259.73 370.59 257.069 370.039 254.423 369.478L254.631 368.5C251.975 367.936 249.334 367.362 246.708 366.778L246.491 367.754C243.845 367.165 241.214 366.565 238.598 365.955L238.825 364.982C236.169 364.362 233.528 363.731 230.904 363.09L230.666 364.062C228.039 363.42 225.427 362.767 222.833 362.104L223.08 361.135C220.435 360.459 217.807 359.772 215.197 359.074L214.938 360.04C212.314 359.338 209.707 358.626 207.118 357.902L207.388 356.939C204.772 356.208 202.175 355.466 199.597 354.713L199.316 355.672C196.697 354.907 194.097 354.131 191.517 353.344L191.809 352.387C189.224 351.598 186.659 350.798 184.114 349.987L183.811 350.94C181.199 350.107 178.61 349.263 176.042 348.408L176.358 347.459C173.794 346.606 171.253 345.74 168.733 344.864L168.405 345.809C165.815 344.908 163.249 343.995 160.707 343.071L161.049 342.132C158.502 341.206 155.979 340.268 153.481 339.319L153.126 340.254C150.569 339.283 148.038 338.3 145.533 337.305L145.902 336.375C143.377 335.372 140.879 334.357 138.408 333.331L138.025 334.254C135.503 333.206 133.009 332.146 130.543 331.074L130.942 330.157C128.446 329.071 125.98 327.973 123.545 326.864L123.13 327.774C120.645 326.641 118.192 325.496 115.77 324.339L116.201 323.437C113.743 322.263 111.319 321.076 108.928 319.876L108.48 320.77C106.036 319.544 103.628 318.306 101.255 317.054L101.722 316.17C99.3135 314.9 96.9425 313.617 94.6092 312.321L94.1237 313.195C91.728 311.865 89.3717 310.521 87.0557 309.164L87.5612 308.301C85.2175 306.928 82.9153 305.541 80.6555 304.142L80.1289 304.992C77.7905 303.544 75.4969 302.081 73.249 300.605L73.7979 299.769C71.5369 298.285 69.3226 296.786 67.156 295.275L66.5838 296.095C64.3174 294.514 62.1026 292.918 59.9404 291.307L60.5377 290.505C58.355 288.88 56.2264 287.24 54.1529 285.586L53.5293 286.368C51.3851 284.658 49.2992 282.932 47.2728 281.192L47.9242 280.434C45.8461 278.649 43.8312 276.85 41.8808 275.036L41.1998 275.768C39.2015 273.909 37.2701 272.035 35.4067 270.146L36.1187 269.443C34.1949 267.493 32.3446 265.526 30.5693 263.545L29.8245 264.212C27.9889 262.164 26.2324 260.099 24.5566 258.018L25.3354 257.391C23.6311 255.274 22.0115 253.142 20.4781 250.995L19.6643 251.576C18.0699 249.344 16.5674 247.094 15.1586 244.829L16.0078 244.301C14.5675 241.985 13.2266 239.652 11.987 237.305L11.1027 237.772C9.82449 235.351 8.65248 232.913 7.58885 230.46L8.50635 230.062C7.43204 227.583 6.46981 225.09 5.62177 222.581L4.67443 222.901C3.80236 220.322 3.04943 217.726 2.41806 215.114L3.39005 214.879C2.75809 212.266 2.24947 209.637 1.86655 206.995L0.876891 207.138C0.489094 204.462 0.22865 201.771 0.0980959 199.067L1.09693 199.019C1.03242 197.683 1 196.343 1 195C1 193.657 1.03242 192.317 1.09694 190.981L0.0981036 190.933C0.228663 188.228 0.489112 185.538 0.876916 182.862L1.86658 183.005C2.2495 180.363 2.75812 177.734 3.39009 175.12L2.4181 174.885C3.04947 172.274 3.80241 169.678 4.67449 167.099L5.62182 167.419C6.46987 164.91 7.4321 162.416 8.50642 159.938L7.58891 159.54C8.65255 157.087 9.82457 154.649 11.1028 152.228L11.9871 152.695C13.2267 150.348 14.5676 148.015 16.0079 145.699L15.1587 145.171C16.5674 142.905 18.07 140.656 19.6644 138.424L20.4781 139.005C22.0116 136.858 23.6312 134.726 25.3355 132.609L24.5566 131.982C26.2325 129.901 27.989 127.836 29.8246 125.787L30.5694 126.455C32.3447 124.473 34.195 122.507 36.1188 120.556L35.4068 119.854C37.2701 117.965 39.2016 116.091 41.1999 114.232L41.8809 114.964C43.8313 113.15 45.8462 111.351 47.9243 109.566L47.2728 108.808C49.2993 107.068 51.3852 105.342 53.5294 103.632L54.153 104.414C56.2264 102.76 58.355 101.12 60.5378 99.4945L59.9405 98.6924C62.1027 97.0822 64.3175 95.4862 66.5838 93.9051L67.156 94.7252C69.3227 93.2135 71.537 91.7152 73.7979 90.2306L73.2491 89.3947C75.4969 87.9187 77.7905 86.4564 80.129 85.0081L80.6555 85.8583C82.9154 84.4587 85.2175 83.0722 87.5612 81.699L87.0557 80.8362C89.3718 79.4792 91.728 78.1353 94.1238 76.8049L94.6093 77.6792C96.9425 76.3834 99.3136 75.1004 101.722 73.8303L101.255 72.9458C103.628 71.6944 106.036 70.4557 108.48 69.2299L108.928 70.1237C111.319 68.9244 113.743 67.7373 116.201 66.5629L115.77 65.6607C118.192 64.5035 120.645 63.3587 123.13 62.2265L123.545 63.1364C125.98 62.0266 128.446 60.9287 130.942 59.8431L130.544 58.9261C133.009 57.8539 135.503 56.7937 138.025 55.7458L138.409 56.6692C140.879 55.6426 143.377 54.6278 145.902 53.6248L145.533 52.6954C148.038 51.7005 150.569 50.7172 153.126 49.7459L153.481 50.6808C155.979 49.7319 158.502 48.7944 161.049 47.8684L160.707 46.9286C163.249 46.0046 165.815 45.0921 168.405 44.1913L168.734 45.1358C171.253 44.2596 173.794 43.3944 176.358 42.5406L176.042 41.5918C178.61 40.7366 181.199 39.8927 183.811 39.0604L184.114 40.0131C186.659 39.2021 189.224 38.4019 191.809 37.6128L191.517 36.6564C194.097 35.869 196.697 35.0927 199.316 34.3276L199.597 35.2875C202.175 34.5344 204.772 33.7922 207.388 33.061L207.118 32.098C209.707 31.3744 212.314 30.6617 214.938 29.9599L215.197 30.926C217.807 30.228 220.435 29.5409 223.08 28.8648L222.833 27.8959C225.427 27.2327 228.039 26.5801 230.666 25.9382L230.904 26.9096C233.528 26.2685 236.169 25.6381 238.826 25.0184L238.598 24.0446C241.214 23.4345 243.845 22.835 246.491 22.246L246.709 23.2222C249.334 22.6377 251.975 22.0637 254.631 21.5003L254.423 20.5221C257.069 19.9608 259.73 19.4099 262.404 18.8697L262.602 19.8499C265.229 19.3195 267.869 18.7992 270.522 18.2894L270.333 17.3074C272.99 16.7969 275.66 16.2969 278.343 15.8074L278.523 16.7911C281.167 16.3088 283.823 15.8367 286.492 15.3749L286.322 14.3896C288.975 13.9305 291.642 13.4815 294.32 13.0429L294.481 14.0298C297.154 13.5921 299.838 13.1648 302.534 12.7478L302.381 11.7596C305.032 11.3497 307.694 10.9498 310.367 10.5601L310.511 11.5496C313.181 11.1603 315.862 10.7812 318.555 10.4122L318.419 9.4215C321.094 9.05482 323.781 8.69825 326.478 8.35189L326.605 9.34374C329.27 9.00149 331.945 8.66922 334.63 8.34703L334.511 7.35415C337.199 7.03163 339.897 6.7192 342.605 6.41698L342.716 7.4108C345.389 7.11237 348.072 6.82389 350.765 6.54546L350.662 5.55077C353.343 5.27353 356.033 5.00624 358.732 4.749L358.827 5.74449C361.524 5.48751 364.229 5.24057 366.943 5.00377L366.857 4.00756C369.534 3.774 372.219 3.5503 374.913 3.33655L374.992 4.33342C377.681 4.12009 380.377 3.91668 383.082 3.72328L383.011 2.72583C385.713 2.53264 388.423 2.34942 391.14 2.17628L391.204 3.17426C393.885 3.00347 396.573 2.84249 399.269 2.69141L399.213 1.69298C401.911 1.54176 404.617 1.40045 407.33 1.26914L407.378 2.26797C410.077 2.13731 412.784 2.01656 415.497 1.90581L415.456 0.906642C418.146 0.796853 420.843 0.696879 423.546 0.606806L423.579 1.60625C426.28 1.51626 428.987 1.43616 431.7 1.36604L431.675 0.366371C434.376 0.296553 437.084 0.236617 439.798 0.186645L439.817 1.18648C442.508 1.13692 445.206 1.09717 447.909 1.06732L447.898 0.0673773C450.604 0.0374935 453.315 0.0175093 456.032 0.00750691L456.036 1.0075C457.393 1.0025 458.752 1 460.112 1C461.473 1 462.831 1.0025 464.189 1.0075L464.193 0.00750803C466.91 0.0175112 469.621 0.0374962 472.327 0.0673807L472.316 1.06732C475.019 1.09718 477.717 1.13692 480.408 1.18648L480.427 0.18665C483.141 0.236622 485.849 0.29656 488.55 0.366379L488.525 1.36604C491.238 1.43617 493.945 1.51627 496.646 1.60626L496.679 0.606815C499.382 0.69689 502.079 0.796865 504.769 0.906654L504.728 1.90582C507.441 2.01658 510.148 2.13733 512.847 2.26799L512.895 1.26916C515.608 1.40047 518.314 1.54178 521.012 1.693L520.956 2.69143C523.652 2.84251 526.34 3.00349 529.021 3.17428L529.085 2.1763C531.802 2.34944 534.512 2.53266 537.214 2.72585L537.143 3.72331C539.848 3.9167 542.544 4.12011 545.233 4.33344L545.312 3.33657C548.006 3.55032 550.691 3.77403 553.368 4.00758L553.282 5.0038C555.996 5.2406 558.701 5.48754 561.398 5.74452L561.493 4.74903C564.192 5.00626 566.882 5.27355 569.563 5.5508L569.46 6.54549C572.153 6.82393 574.836 7.11241 577.509 7.41084L577.62 6.41701C580.328 6.71923 583.026 7.03166 585.714 7.35418L585.595 8.34706C588.28 8.66925 590.955 9.00152 593.62 9.34377L593.747 8.35192C596.444 8.69828 599.13 9.05485 601.806 9.42153L601.67 10.4123C604.363 10.7812 607.044 11.1604 609.714 11.5497L609.858 10.5601C612.531 10.9499 615.193 11.3497 617.844 11.7596L617.691 12.7479C620.387 13.1648 623.071 13.5922 625.744 14.0298L625.905 13.043C628.583 13.4816 631.25 13.9305 633.903 14.3896L633.733 15.375C636.402 15.8367 639.058 16.3088 641.702 16.7912L641.881 15.8074C644.565 16.2969 647.235 16.797 649.891 17.3074L649.703 18.2894C652.356 18.7993 654.996 19.3195 657.623 19.8499L657.82 18.8697C660.495 19.41 663.156 19.9608 665.801 20.5221L665.594 21.5004C668.25 22.0638 670.89 22.6377 673.516 23.2222L673.734 22.2461C676.38 22.835 679.011 23.4346 681.626 24.0446L681.399 25.0185C684.056 25.6381 686.697 26.2685 689.321 26.9096L689.558 25.9382C692.186 26.5801 694.797 27.2327 697.392 27.8959L697.144 28.8648C699.79 29.5409 702.418 30.2281 705.028 30.926L705.286 29.9599C707.911 30.6617 710.518 31.3744 713.106 32.098L712.837 33.0611C715.453 33.7922 718.05 34.5344 720.628 35.2875L720.909 34.3276C723.528 35.0927 726.128 35.869 728.708 36.6564L728.416 37.6129C731.001 38.4019 733.566 39.2021 736.11 40.0131L736.414 39.0604C739.026 39.8927 741.615 40.7366 744.183 41.5919L743.867 42.5406C746.431 43.3944 748.972 44.2596 751.491 45.1358L751.82 44.1913C754.409 45.0921 756.975 46.0046 759.517 46.9286L759.176 47.8685C761.723 48.7944 764.245 49.7319 766.743 50.6808L767.099 49.7459C769.656 50.7172 772.187 51.7005 774.692 52.6954L774.322 53.6248C776.847 54.6278 779.345 55.6426 781.816 56.6692L782.2 55.7458C784.722 56.7938 787.216 57.854 789.681 58.9262L789.282 59.8432C791.778 60.9288 794.244 62.0266 796.68 63.1365L797.095 62.2265C799.58 63.3587 802.033 64.5036 804.455 65.6607L804.024 66.563C806.481 67.7374 808.906 68.9244 811.297 70.1237L811.745 69.2299C814.188 70.4557 816.597 71.6944 818.97 72.9458L818.503 73.8304C820.911 75.1004 823.282 76.3835 825.616 77.6792L826.101 76.805C828.497 78.1354 830.853 79.4792 833.169 80.8362L832.664 81.699C835.007 83.0722 837.309 84.4588 839.569 85.8583L840.096 85.0082C842.434 86.4564 844.728 87.9187 846.976 89.3947L846.427 90.2306C848.688 91.7152 850.902 93.2136 853.069 94.7252L853.641 93.9051C855.907 95.4863 858.122 97.0822 860.284 98.6925L859.687 99.4945C861.87 101.12 863.998 102.76 866.072 104.414L866.695 103.632C868.84 105.342 870.925 107.068 872.952 108.808L872.301 109.566C874.379 111.351 876.393 113.15 878.344 114.964L879.025 114.232C881.023 116.091 882.955 117.965 884.818 119.854L884.106 120.557C886.03 122.507 887.88 124.474 889.655 126.455L890.4 125.788C892.236 127.836 893.992 129.901 895.668 131.982L894.889 132.609C896.594 134.726 898.213 136.858 899.747 139.005L900.56 138.424C902.155 140.656 903.657 142.906 905.066 145.171L904.217 145.699C905.657 148.015 906.998 150.348 908.238 152.695L909.122 152.228C910.4 154.649 911.572 157.087 912.636 159.54L911.718 159.938C912.793 162.417 913.755 164.91 914.603 167.419L915.55 167.099C916.422 169.678 917.175 172.274 917.807 174.886L916.835 175.121C917.467 177.734 917.975 180.363 918.358 183.005L919.348 182.862Z" stroke="#7161BA" stroke-width="2" stroke-dasharray="8 8"/>
</svg>
