<svg width="40" height="40" viewBox="0 0 40 40" fill="none" xmlns="http://www.w3.org/2000/svg">
<path d="M15.6349 22.5568L18.8695 25.8925C18.9897 26.0165 19.1211 26.1272 19.2612 26.2236V35.5728C19.2612 35.7636 19.1066 35.9182 18.9159 35.9182H15.9802C15.7895 35.9182 15.6349 35.7636 15.6349 35.5728V22.5568Z" fill="#7161BA"/>
<path d="M11.1451 26.2417L14.7714 22.5355V35.5728C14.7714 35.7636 14.6168 35.9182 14.4261 35.9182H11.4904C11.2997 35.9182 11.1451 35.7636 11.1451 35.5728V26.2417Z" fill="#7161BA"/>
<path d="M6.65527 28.9175C7.53421 29.1598 8.51467 28.9299 9.19748 28.2321L10.2816 27.1241V35.5728C10.2816 35.7636 10.127 35.9182 9.93628 35.9182H7.00064C6.80991 35.9182 6.65527 35.7636 6.65527 35.5728V28.9175Z" fill="#7161BA"/>
<path d="M20.1247 26.6081C20.3145 26.6537 20.5107 26.678 20.7092 26.6795C21.4029 26.6849 22.0701 26.4116 22.5606 25.9209L23.751 24.7305V35.5728C23.751 35.6296 23.7374 35.6832 23.7131 35.7305C23.7077 35.7411 23.7016 35.7513 23.6952 35.7612C23.6765 35.7898 23.6537 35.8154 23.6278 35.8373C23.5677 35.8878 23.4903 35.9182 23.4057 35.9182H20.47C20.2793 35.9182 20.1247 35.7636 20.1247 35.5728V26.6081Z" fill="#7161BA"/>
<path d="M24.6145 23.8671V35.5728C24.6145 35.7636 24.7691 35.9182 24.9598 35.9182H27.8955C28.0862 35.9182 28.2408 35.7636 28.2408 35.5728V20.2407L24.6145 23.8671Z" fill="#7161BA"/>
<path d="M29.1043 19.3773V35.5728C29.1043 35.7636 29.2589 35.9182 29.4496 35.9182H32.3853C32.576 35.9182 32.7306 35.7636 32.7306 35.5728V19.2688L30.9476 17.5339L29.1043 19.3773Z" fill="#7161BA"/>
<path d="M34.1638 10.9796C34.2409 10.675 33.9594 10.4011 33.6571 10.4865L28.1609 12.04C27.8585 12.1255 27.7621 12.5062 27.9873 12.7253L29.0445 13.7541L20.7452 22.0534L16.2293 17.3963C15.961 17.1196 15.5923 16.9631 15.2069 16.9622C14.8215 16.9614 14.4521 17.1162 14.1826 17.3917L6.32547 25.4215C5.77367 25.9854 5.7835 26.8899 6.34743 27.4417C6.91135 27.9935 7.81582 27.9837 8.36761 27.4197L15.1991 20.4381L19.704 25.0839C19.9704 25.3586 20.3359 25.515 20.7186 25.5179C21.1013 25.5209 21.4691 25.3701 21.7397 25.0995L31.0925 15.7468L32.0807 16.7084C32.3059 16.9276 32.6839 16.8207 32.761 16.5162L34.1638 10.9796Z" fill="#7161BA"/>
<path fill-rule="evenodd" clip-rule="evenodd" d="M20.1252 16.2323C23.3678 16.2323 25.9965 13.6036 25.9965 10.361C25.9965 7.1184 23.3678 4.48975 20.1252 4.48975C16.8826 4.48975 14.2539 7.1184 14.2539 10.361C14.2539 13.6036 16.8826 16.2323 20.1252 16.2323ZM20.808 6.73464C20.808 6.45287 20.5796 6.22444 20.2978 6.22444C20.016 6.22444 19.7876 6.45287 19.7876 6.73464V7.04344C18.9173 7.25267 18.2334 7.9848 18.2334 8.91787C18.2334 10.0889 19.2724 10.717 20.2978 10.717C20.9171 10.717 21.3418 11.1673 21.3418 11.6315C21.3418 12.0956 20.9171 12.5459 20.2978 12.5459C19.6785 12.5459 19.2538 12.0956 19.2538 11.6315C19.2538 11.3497 19.0254 11.1213 18.7436 11.1213C18.4619 11.1213 18.2334 11.3497 18.2334 11.6315C18.2334 12.5645 18.9173 13.2967 19.7876 13.5059V13.8147C19.7876 14.0965 20.016 14.3249 20.2978 14.3249C20.5796 14.3249 20.808 14.0965 20.808 13.8147V13.5059C21.6783 13.2967 22.3622 12.5645 22.3622 11.6315C22.3622 10.522 21.3952 9.69663 20.2978 9.69663C19.6066 9.69663 19.2538 9.3205 19.2538 8.91787C19.2538 8.45372 19.6785 8.00343 20.2978 8.00343C20.9171 8.00343 21.3418 8.45372 21.3418 8.91787C21.3418 9.19965 21.5702 9.42807 21.852 9.42807C22.1337 9.42807 22.3622 9.19965 22.3622 8.91787C22.3622 7.9848 21.6783 7.25267 20.808 7.04344V6.73464Z" fill="#7161BA"/>
</svg>
