<svg width="160" height="160" viewBox="0 0 160 160" fill="none" xmlns="http://www.w3.org/2000/svg">
<circle cx="80" cy="80" r="80" fill="#EEEDF2"/>
<path fill-rule="evenodd" clip-rule="evenodd" d="M67.8667 66.9333H29.6C26.5072 66.9333 24 69.4406 24 72.5333V124.8C24 127.893 26.5072 130.4 29.6 130.4H67.8667V128.533H29.6C27.5381 128.533 25.8667 126.862 25.8667 124.8V109.56C28.9217 106.348 35.2891 102.377 43.2947 105.149C46.2176 106.16 48.7065 107.627 51.0773 109.257C52.1793 110.016 53.2483 110.804 54.3276 111.6L54.3283 111.6L54.5798 111.786C55.7403 112.641 56.915 113.502 58.1301 114.317C60.9864 116.233 64.0729 117.898 67.8667 118.765V116.846C64.5275 116.016 61.7726 114.512 59.1699 112.767C57.9933 111.977 56.8492 111.139 55.6873 110.283L55.4318 110.094C54.357 109.302 53.264 108.496 52.1352 107.72C49.6935 106.04 47.049 104.473 43.9053 103.385C36.0315 100.659 29.6082 103.774 25.8667 106.995V72.5333C25.8667 70.4715 27.5381 68.8 29.6 68.8H67.8667V66.9333ZM67.8667 76.2667H56.6666C56.1512 76.2667 55.7333 76.6845 55.7333 77.2V79.0667C55.7333 79.5821 56.1512 80 56.6666 80H67.8667V76.2667ZM67.8667 84.6667H50.1333C49.6178 84.6667 49.2 85.0845 49.2 85.6C49.2 86.1155 49.6178 86.5333 50.1333 86.5333H67.8667V84.6667ZM67.8667 90.2667H50.1333C49.6178 90.2667 49.2 90.6845 49.2 91.2C49.2 91.7155 49.6178 92.1333 50.1333 92.1333H67.8667V90.2667ZM34.2667 76.2667C32.2048 76.2667 30.5333 77.9381 30.5333 80V88.4C30.5333 90.4619 32.2048 92.1333 34.2667 92.1333H42.6666C44.7285 92.1333 46.4 90.4619 46.4 88.4V80C46.4 77.9381 44.7285 76.2667 42.6666 76.2667H34.2667ZM42.6666 78.1333H34.2667C33.2357 78.1333 32.4 78.9691 32.4 80V88.4C32.4 89.4309 33.2357 90.2667 34.2667 90.2667H42.6666C43.6976 90.2667 44.5333 89.4309 44.5333 88.4V80C44.5333 78.9691 43.6976 78.1333 42.6666 78.1333ZM50.1333 76.2667C49.6178 76.2667 49.2 76.6845 49.2 77.2V79.0667C49.2 79.5821 49.6178 80 50.1333 80H52C52.5154 80 52.9333 79.5821 52.9333 79.0667V77.2C52.9333 76.6845 52.5154 76.2667 52 76.2667H50.1333ZM30.5333 122.933C30.5333 122.418 30.9512 122 31.4667 122H33.3333C33.8488 122 34.2667 122.418 34.2667 122.933V124.8C34.2667 125.315 33.8488 125.733 33.3333 125.733H31.4667C30.9512 125.733 30.5333 125.315 30.5333 124.8V122.933ZM38 122.933C38 122.418 38.4179 122 38.9333 122H40.8C41.3154 122 41.7333 122.418 41.7333 122.933V124.8C41.7333 125.315 41.3154 125.733 40.8 125.733H38.9333C38.4179 125.733 38 125.315 38 124.8V122.933ZM45.4666 122.933C45.4666 122.418 45.8845 122 46.4 122H48.2666C48.7821 122 49.2 122.418 49.2 122.933V124.8C49.2 125.315 48.7821 125.733 48.2666 125.733H46.4C45.8845 125.733 45.4666 125.315 45.4666 124.8V122.933Z" fill="#7161BA"/>
<path fill-rule="evenodd" clip-rule="evenodd" d="M86.5318 29.6003H73.4662C70.3734 29.6003 67.8662 32.1075 67.8662 35.2003V130.4C67.8662 133.493 70.3734 136 73.4662 136H130.399C133.492 136 135.999 133.493 135.999 130.4V35.2003C135.999 32.1075 133.492 29.6003 130.399 29.6003H117.332V31.6003H130.399C132.388 31.6003 133.999 33.2121 133.999 35.2003V130.4C133.999 132.388 132.388 134 130.399 134H73.4662C71.478 134 69.8662 132.388 69.8662 130.4V35.2003C69.8662 33.2121 71.478 31.6003 73.4662 31.6003H86.5318V29.6003Z" fill="#7161BA"/>
<rect x="87.5322" y="25" width="28.8" height="9.19999" rx="1" stroke="#7161BA" stroke-width="2"/>
<rect x="84.665" y="101.466" width="35.4666" height="3.73333" rx="1" fill="#7161BA"/>
<rect x="77.2002" y="109.867" width="50.3999" height="1.86666" rx="0.933332" fill="#7161BA"/>
<rect x="77.2002" y="115.466" width="50.3999" height="1.86666" rx="0.933332" fill="#7161BA"/>
<rect x="92.1328" y="121.067" width="20.5333" height="1.86666" rx="0.933332" fill="#7161BA"/>
<path d="M94.9316 69.2667L100.998 76.2667L111.732 60.8667" stroke="#7161BA" stroke-width="2" stroke-linecap="round"/>
<circle cx="102.399" cy="68.7998" r="18.6" stroke="#7161BA" stroke-width="2"/>
</svg>
