<svg id="Layer_1" data-name="Layer 1" xmlns="http://www.w3.org/2000/svg" viewBox="0 0 160 160"><defs><style>.cls-1{fill:#7161ba;}.cls-2,.cls-4{fill:#f5f5f7;}.cls-2{fill-rule:evenodd;}.cls-3,.cls-5{fill:none;stroke:#f5f5f7;stroke-width:2px;}.cls-5{stroke-linecap:round;}</style></defs><circle class="cls-1" cx="80" cy="80" r="80"/><path class="cls-2" d="M67.87,66.93H29.6a5.6,5.6,0,0,0-5.6,5.6V124.8a5.6,5.6,0,0,0,5.6,5.6H67.87v-1.87H29.6a3.73,3.73,0,0,1-3.73-3.73V109.56a16.42,16.42,0,0,1,17.42-4.41,32.08,32.08,0,0,1,7.79,4.11c1.1.76,2.17,1.54,3.25,2.34h0l.25.19c1.16.85,2.34,1.71,3.55,2.53a28.62,28.62,0,0,0,9.74,4.44v-1.91a27.24,27.24,0,0,1-8.7-4.08c-1.18-.79-2.32-1.63-3.48-2.49l-.26-.19c-1.07-.79-2.17-1.59-3.29-2.37a34,34,0,0,0-8.23-4.33,18,18,0,0,0-18,3.61V72.53A3.73,3.73,0,0,1,29.6,68.8H67.87Zm0,9.34H56.67a.93.93,0,0,0-.94.93v1.87a.94.94,0,0,0,.94.93h11.2Zm0,8.4H50.13a.93.93,0,1,0,0,1.86H67.87Zm0,5.6H50.13a.93.93,0,0,0,0,1.86H67.87Zm-33.6-14A3.73,3.73,0,0,0,30.53,80v8.4a3.73,3.73,0,0,0,3.74,3.73h8.4A3.73,3.73,0,0,0,46.4,88.4V80a3.73,3.73,0,0,0-3.73-3.73Zm8.4,1.86h-8.4A1.87,1.87,0,0,0,32.4,80v8.4a1.87,1.87,0,0,0,1.87,1.87h8.4a1.87,1.87,0,0,0,1.86-1.87V80A1.87,1.87,0,0,0,42.67,78.13Zm7.46-1.86a.93.93,0,0,0-.93.93v1.87a.93.93,0,0,0,.93.93H52a.93.93,0,0,0,.93-.93V77.2a.92.92,0,0,0-.93-.93Zm-19.6,46.66a.94.94,0,0,1,.94-.93h1.86a.94.94,0,0,1,.94.93v1.87a.93.93,0,0,1-.94.93H31.47a.93.93,0,0,1-.94-.93Zm7.47,0a.93.93,0,0,1,.93-.93H40.8a.93.93,0,0,1,.93.93v1.87a.92.92,0,0,1-.93.93H38.93a.93.93,0,0,1-.93-.93Zm7.47,0a.93.93,0,0,1,.93-.93h1.87a.93.93,0,0,1,.93.93v1.87a.93.93,0,0,1-.93.93H46.4a.92.92,0,0,1-.93-.93Z"/><path class="cls-2" d="M86.53,29.6H73.47a5.6,5.6,0,0,0-5.6,5.6v95.2a5.6,5.6,0,0,0,5.6,5.6H130.4a5.6,5.6,0,0,0,5.6-5.6V35.2a5.6,5.6,0,0,0-5.6-5.6H117.33v2H130.4a3.6,3.6,0,0,1,3.6,3.6v95.2a3.6,3.6,0,0,1-3.6,3.6H73.47a3.6,3.6,0,0,1-3.6-3.6V35.2a3.6,3.6,0,0,1,3.6-3.6H86.53Z"/><rect class="cls-3" x="87.53" y="25" width="28.8" height="9.2" rx="1"/><rect class="cls-4" x="84.67" y="101.47" width="35.47" height="3.73" rx="1"/><rect class="cls-4" x="77.2" y="109.87" width="50.4" height="1.87" rx="0.93"/><path class="cls-4" d="M78.13,115.47h48.54a.93.93,0,0,1,.93.93h0a.93.93,0,0,1-.93.93H78.13a.93.93,0,0,1-.93-.93h0A.93.93,0,0,1,78.13,115.47Z"/><path class="cls-4" d="M93.07,121.07h18.66a.93.93,0,0,1,.94.93h0a.93.93,0,0,1-.94.93H93.07a.93.93,0,0,1-.94-.93h0A.93.93,0,0,1,93.07,121.07Z"/><path class="cls-5" d="M94.93,69.27l6.07,7,10.73-15.4"/><circle class="cls-3" cx="102.4" cy="68.8" r="18.6"/></svg>