<svg width="101" height="99" viewBox="0 0 101 99" fill="none" xmlns="http://www.w3.org/2000/svg">
<g filter="url(#filter0_d)">
<circle cx="52" cy="47" r="32" fill="#F5F5F7"/>
</g>
<path d="M58.2685 61.9683H36.1829C33.8727 61.9683 32 60.0956 32 57.7854C32 55.4753 33.8727 53.6025 36.1829 53.6025H54.3102C55.9806 53.6025 57.5753 54.2989 58.7108 55.524L63.2879 60.4625H72.2536C72.7442 60.4625 73.242 60.5085 73.6751 60.7388C74.2571 61.0483 75 61.6526 75 62.7212C75 63.7899 74.2571 64.3942 73.6751 64.7037C73.242 64.934 72.7442 64.98 72.2536 64.98H61.2802L58.2685 61.9683Z" fill="#7161BA"/>
<path d="M32 64.98H59.4397L57.7665 63.1395H33.6732C32.4685 63.1395 32.0558 62.6933 32 62.4702V64.98Z" fill="#7161BA"/>
<path d="M40.5344 40.8867C40.1329 41.9575 37.2439 48.8063 35.8496 52.0968H45.0519C45.0519 51.9853 45.0854 51.6953 45.2193 51.4276C45.3866 51.0929 47.227 48.7505 47.8963 48.0812C48.4317 47.5458 48.454 46.6312 48.3982 46.2408C49.0675 46.9658 50.5399 48.4828 51.0753 48.7505C51.7446 49.0851 56.4294 51.0929 57.7679 51.4276C59.1064 51.7622 59.7757 50.9256 59.943 50.4237C60.1103 49.9217 60.1103 48.5832 58.7718 48.0812C57.4333 47.5793 53.0831 46.0735 52.7484 45.7388C52.4138 45.4042 47.227 40.5521 46.7251 40.2174C46.2232 39.8828 43.0442 39.3809 42.5422 39.3809C42.0403 39.3809 41.0364 39.5482 40.5344 40.8867Z" fill="#7161BA"/>
<circle cx="48.0618" cy="34.1946" r="5.18677" fill="#7161BA"/>
<circle cx="65.7981" cy="53.6038" r="5.18677" fill="#7161BA"/>
<path fill-rule="evenodd" clip-rule="evenodd" d="M46.0829 28.682C44.578 29.2223 43.3585 30.3612 42.7114 31.8117C41.8237 31.4249 41.2031 30.5398 41.2031 29.5097C41.2031 28.1236 42.3268 27 43.7129 27C44.8089 27 45.7409 27.7026 46.0829 28.682Z" fill="#7161BA"/>
<defs>
<filter id="filter0_d" x="-3" y="0" width="104" height="104" filterUnits="userSpaceOnUse" color-interpolation-filters="sRGB">
<feFlood flood-opacity="0" result="BackgroundImageFix"/>
<feColorMatrix in="SourceAlpha" type="matrix" values="0 0 0 0 0 0 0 0 0 0 0 0 0 0 0 0 0 0 127 0" result="hardAlpha"/>
<feOffset dx="-3" dy="5"/>
<feGaussianBlur stdDeviation="10"/>
<feColorMatrix type="matrix" values="0 0 0 0 0.443137 0 0 0 0 0.380392 0 0 0 0 0.729412 0 0 0 0.15 0"/>
<feBlend mode="normal" in2="BackgroundImageFix" result="effect1_dropShadow"/>
<feBlend mode="normal" in="SourceGraphic" in2="effect1_dropShadow" result="shape"/>
</filter>
</defs>
</svg>
