<svg width="101" height="99" viewBox="0 0 101 99" fill="none" xmlns="http://www.w3.org/2000/svg">
<g filter="url(#filter0_d)">
<circle cx="52" cy="47" r="32" fill="#F5F5F7"/>
</g>
<path d="M63.7325 38.0861L61.5 39.9997C61.1667 39.333 61.1 37.5997 63.5 35.9997C66.5 33.9997 69.5 37.9997 71.5 40.4997C73.1 42.4997 74.8333 47.6663 75.5 49.9997C74.6667 50.4997 72.1 51.6997 68.5 52.4997C64.9 53.2997 61 53.1663 59.5 52.9997C60.1667 52.1663 61.6 50.1997 62 48.9997C62.4 47.7997 62.5 44.6667 62.5 43.5L65.8549 40.5176C66.4967 39.9471 66.5793 38.9738 66.0429 38.3033C65.4727 37.5906 64.4254 37.4921 63.7325 38.0861Z" fill="#7161BA"/>
<path d="M59 42.5L52.5848 43.3554C51.9638 43.4382 51.5 43.9679 51.5 44.5944C51.5 45.3426 52.1529 45.9232 52.896 45.8358L60 45L65.5982 40.263C66.1046 39.8346 66.1892 39.0856 65.7912 38.555C65.361 37.9813 64.5378 37.8851 63.9869 38.3442L59 42.5Z" fill="#7161BA"/>
<path d="M43.4998 45.5L41.4998 44C41.3331 44.6667 41.3998 46.1 42.9998 46.5C44.3744 46.8437 47.8159 47.2119 50.0264 47.4145C50.6054 47.4676 51.1472 47.1314 51.3631 46.5916C51.6851 45.7868 51.159 44.8949 50.2988 44.7874L47.9998 44.5L43.4998 45.5Z" fill="#7161BA"/>
<circle cx="44.343" cy="33.6047" r="4.04022" fill="#7161BA"/>
<path fill-rule="evenodd" clip-rule="evenodd" d="M42.801 29.31C41.6287 29.7308 40.6787 30.6181 40.1746 31.748C39.4833 31.4467 39 30.7572 39 29.9549C39 28.8753 39.8753 28 40.9549 28C41.8086 28 42.5345 28.5472 42.801 29.31Z" fill="#7161BA"/>
<path d="M44.3579 42.1901L38.9052 38.2954C38.9052 38.2954 37.7368 37.5164 37.3473 38.6848C36.9579 39.8533 37.7368 40.2427 37.7368 40.2427L43.5789 44.5269L50 43C50 43 51.1689 42.9997 51.1689 41.8313C51.1689 40.6629 50 40.6632 50 40.6632L44.3579 42.1901Z" fill="#7161BA"/>
<path d="M28 49.5901C28.9088 47.2532 30.96 42.1901 31.8947 40.6322C33.0632 38.6848 34.2316 37.5164 35.4 36.7374C36.5684 35.9585 38.9053 35.569 40.4632 36.7374C41.5647 37.5636 41.6927 38.7791 41.5354 39.6957L39.126 37.9747L39.1208 37.9712L39.1195 37.9703L39.1177 37.9692L39.1129 37.9661L39.0983 37.9567C39.0863 37.9492 39.0699 37.9392 39.0495 37.9274C39.009 37.9038 38.9521 37.8726 38.8828 37.8398C38.7473 37.7756 38.5499 37.6981 38.3269 37.6663C38.1033 37.6343 37.8274 37.6449 37.5654 37.7905C37.2975 37.9393 37.0981 38.1992 36.9773 38.5616C36.7501 39.2433 36.8516 39.7523 37.0615 40.1022C37.1621 40.2697 37.2797 40.3878 37.3741 40.4649C37.4214 40.5036 37.4636 40.5327 37.4961 40.5532C37.507 40.5601 37.5169 40.566 37.5256 40.571L40.8573 43.0143C40.7262 44.8086 40.765 47.0777 41.2421 48.0318L43.1895 51.9266C41.3719 52.1862 37.0358 52.5497 34.2316 51.9266C31.4274 51.3034 28.9088 50.1092 28 49.5901Z" fill="#7161BA"/>
<path d="M43.0219 52.9473C41.7236 53.0771 38.3482 53.2588 35.2324 52.9473L39.1272 54.5052L40.7491 62.6148C40.9332 63.5354 41.7907 64.1624 42.7238 64.0588C43.7393 63.9459 44.4602 63.0154 44.3157 62.0039L43.0219 52.9473Z" fill="#7161BA"/>
<path d="M59.5582 53.9473C60.8564 54.0771 64.2319 54.2588 67.3477 53.9473L63.4529 55.5052L61.831 63.6148C61.6469 64.5354 60.7894 65.1624 59.8563 65.0588C58.8408 64.9459 58.1199 64.0154 58.2644 63.0039L59.5582 53.9473Z" fill="#7161BA"/>
<path d="M29 51.9474V51C29.9347 51.6232 33.0246 52.5579 34.4526 52.9474V63.0737H36.5947C36.9174 63.0737 37.1789 63.3352 37.1789 63.6579C37.1789 63.9805 36.9174 64.2421 36.5947 64.2421H31.1421C30.8195 64.2421 30.5579 63.9805 30.5579 63.6579C30.5579 63.3352 30.8195 63.0737 31.1421 63.0737H33.2842V52.9474H30C29.4477 52.9474 29 52.4997 29 51.9474Z" fill="#7161BA"/>
<path d="M73.5801 52.9474V52C72.6453 52.6232 69.5555 53.5579 68.1274 53.9474V64.0737H65.9853C65.6627 64.0737 65.4011 64.3352 65.4011 64.6579C65.4011 64.9805 65.6627 65.2421 65.9853 65.2421H71.438C71.7606 65.2421 72.0222 64.9805 72.0222 64.6579C72.0222 64.3352 71.7606 64.0737 71.438 64.0737H69.2959V53.9474H72.5801C73.1324 53.9474 73.5801 53.4997 73.5801 52.9474Z" fill="#7161BA"/>
<path d="M48.2094 38.7389C48.1066 38.568 48.1537 38.3467 48.3172 38.2325C48.4973 38.1066 48.7464 38.1597 48.8597 38.348L49.8989 40.0769C50.0016 40.2478 49.9545 40.4691 49.791 40.5833C49.6109 40.7092 49.3618 40.6562 49.2486 40.4678L48.2094 38.7389Z" fill="#7161BA"/>
<circle cx="61" cy="32" r="4" fill="#7161BA"/>
<path fill-rule="evenodd" clip-rule="evenodd" d="M44 48C43.4477 48 43 48.4477 43 49C43 49.5523 43.4477 50 44 50H45V61C45 61.5523 45.4477 62 46 62H56C56.5523 62 57 61.5523 57 61V50H58C58.5523 50 59 49.5523 59 49C59 48.4477 58.5523 48 58 48H44Z" fill="#7161BA"/>
<defs>
<filter id="filter0_d" x="-3" y="0" width="104" height="104" filterUnits="userSpaceOnUse" color-interpolation-filters="sRGB">
<feFlood flood-opacity="0" result="BackgroundImageFix"/>
<feColorMatrix in="SourceAlpha" type="matrix" values="0 0 0 0 0 0 0 0 0 0 0 0 0 0 0 0 0 0 127 0" result="hardAlpha"/>
<feOffset dx="-3" dy="5"/>
<feGaussianBlur stdDeviation="10"/>
<feColorMatrix type="matrix" values="0 0 0 0 0.443137 0 0 0 0 0.380392 0 0 0 0 0.729412 0 0 0 0.15 0"/>
<feBlend mode="normal" in2="BackgroundImageFix" result="effect1_dropShadow"/>
<feBlend mode="normal" in="SourceGraphic" in2="effect1_dropShadow" result="shape"/>
</filter>
</defs>
</svg>
