<svg id="Layer_1" data-name="Layer 1" xmlns="http://www.w3.org/2000/svg" xmlns:xlink="http://www.w3.org/1999/xlink" viewBox="0 0 160 160"><defs><style>.cls-1{fill:#fff;}.cls-1,.cls-3{fill-rule:evenodd;}.cls-2{fill:#7161ba;}.cls-3,.cls-6{fill:#f5f5f7;}.cls-4{fill:none;stroke:#f5f5f7;stroke-width:2px;}.cls-5{mask:url(#mask);}</style><mask id="mask" x="28" y="22" width="103.6" height="116" maskUnits="userSpaceOnUse"><g id="path-5-inside-1_260_770" data-name="path-5-inside-1 260 770"><path class="cls-1" d="M79.8,43.31a9.66,9.66,0,1,0-9.66-9.65A9.66,9.66,0,0,0,79.8,43.31Zm0,92.69a9.66,9.66,0,1,0-9.66-9.65A9.66,9.66,0,0,0,79.8,136ZM48,61.66A9.65,9.65,0,1,0,34.83,65.2,9.65,9.65,0,0,0,48,61.66ZM128.3,108a9.65,9.65,0,1,0-13.19,3.53A9.65,9.65,0,0,0,128.3,108Zm-3.54-42.82A9.65,9.65,0,1,1,128.3,52,9.65,9.65,0,0,1,124.76,65.19ZM44.5,111.54A9.65,9.65,0,1,1,48,98.35,9.65,9.65,0,0,1,44.5,111.54Z"/></g></mask></defs><circle class="cls-2" cx="80" cy="80" r="80"/><path class="cls-3" d="M89,36.61a44.33,44.33,0,0,1,23.78,13.73A10,10,0,0,1,114.26,49,46.28,46.28,0,0,0,89.4,34.65,9.75,9.75,0,0,1,89,36.61Zm34.88,29a9.38,9.38,0,0,1-1.9.62,44.55,44.55,0,0,1,0,27.47,9.5,9.5,0,0,1,1.91.63,46.65,46.65,0,0,0,0-28.72ZM114.26,111a9.5,9.5,0,0,1-1.49-1.33A44.31,44.31,0,0,1,89,123.39a9.75,9.75,0,0,1,.41,2A46.3,46.3,0,0,0,114.26,111ZM70.19,125.35a9.75,9.75,0,0,1,.41-2,44.3,44.3,0,0,1-23.77-13.73,10.11,10.11,0,0,1-1.5,1.33A46.35,46.35,0,0,0,70.19,125.35Zm-34.47-31a9.41,9.41,0,0,1,1.9-.63,44.55,44.55,0,0,1,0-27.47,8.79,8.79,0,0,1-1.9-.62,46.56,46.56,0,0,0,0,28.72ZM45.33,49a9.55,9.55,0,0,1,1.49,1.34A44.27,44.27,0,0,1,70.61,36.61a9.89,9.89,0,0,1-.41-2A46.3,46.3,0,0,0,45.33,49Z"/><circle class="cls-4" cx="79.78" cy="69.38" r="13.48"/><path class="cls-4" d="M97.92,102.9h-36a4,4,0,0,1-2.33-7.25L70.2,88a3.4,3.4,0,0,1,3.25-.4,17.66,17.66,0,0,0,13.14,0,3.4,3.4,0,0,1,3.26.41l10.44,7.63A4,4,0,0,1,97.92,102.9Z"/><g class="cls-5"><path class="cls-6" d="M48,61.66l-1.73-1h0ZM34.83,65.2l-1,1.73h0Zm76.75,33.16,1.73,1Zm3.53,13.18-1,1.74Zm-3.54-49.88,1.73-1Zm13.19,3.53-1-1.73ZM31.31,108,33,107Zm13.19,3.53,1,1.73h0ZM34.84,94.82l-1-1.73h0ZM87.46,33.66a7.66,7.66,0,0,1-7.66,7.65v4A11.66,11.66,0,0,0,91.46,33.66ZM79.8,26a7.66,7.66,0,0,1,7.66,7.66h4A11.66,11.66,0,0,0,79.8,22Zm-7.66,7.66A7.66,7.66,0,0,1,79.8,26V22A11.66,11.66,0,0,0,68.14,33.66Zm7.66,7.65a7.66,7.66,0,0,1-7.66-7.65h-4A11.66,11.66,0,0,0,79.8,45.31Zm7.66,85A7.66,7.66,0,0,1,79.8,134v4a11.66,11.66,0,0,0,11.66-11.65Zm-7.66-7.66a7.66,7.66,0,0,1,7.66,7.66h4A11.66,11.66,0,0,0,79.8,114.69Zm-7.66,7.66a7.66,7.66,0,0,1,7.66-7.66v-4a11.66,11.66,0,0,0-11.66,11.66ZM79.8,134a7.66,7.66,0,0,1-7.66-7.65h-4A11.66,11.66,0,0,0,79.8,138ZM43.48,50.2a7.66,7.66,0,0,1,2.81,10.46l3.46,2a11.65,11.65,0,0,0-4.27-15.92ZM33,53A7.64,7.64,0,0,1,43.48,50.2l2-3.46A11.65,11.65,0,0,0,29.56,51Zm2.8,10.45A7.64,7.64,0,0,1,33,53l-3.47-2a11.65,11.65,0,0,0,4.27,15.92Zm10.46-2.8a7.66,7.66,0,0,1-10.46,2.8l-2,3.47a11.65,11.65,0,0,0,15.92-4.27Zm77.48,35.89a7.66,7.66,0,0,1,2.8,10.46l3.47,2a11.67,11.67,0,0,0-4.27-15.92Zm-10.46,2.81a7.66,7.66,0,0,1,10.46-2.81l2-3.46a11.65,11.65,0,0,0-15.92,4.27Zm2.8,10.45a7.65,7.65,0,0,1-2.8-10.45l-3.46-2a11.66,11.66,0,0,0,4.26,15.92Zm10.46-2.8a7.65,7.65,0,0,1-10.46,2.8l-2,3.47A11.66,11.66,0,0,0,130,109ZM109.84,62.66a11.67,11.67,0,0,0,15.92,4.27l-2-3.47a7.66,7.66,0,0,1-10.46-2.8Zm4.27-15.92a11.65,11.65,0,0,0-4.27,15.92l3.46-2a7.66,7.66,0,0,1,2.81-10.46ZM130,51a11.66,11.66,0,0,0-15.92-4.26l2,3.46A7.65,7.65,0,0,1,126.56,53Zm-4.27,15.93A11.66,11.66,0,0,0,130,51l-3.47,2a7.65,7.65,0,0,1-2.8,10.46ZM29.57,109a11.67,11.67,0,0,0,15.93,4.26l-2-3.46A7.65,7.65,0,0,1,33,107Zm4.27-15.92A11.67,11.67,0,0,0,29.57,109L33,107a7.66,7.66,0,0,1,2.8-10.46Zm15.92,4.26a11.65,11.65,0,0,0-15.92-4.26l2,3.46a7.66,7.66,0,0,1,10.46,2.8ZM45.5,113.27a11.65,11.65,0,0,0,4.26-15.92l-3.46,2a7.66,7.66,0,0,1-2.8,10.46Z"/></g></svg>