<svg width="160" height="160" viewBox="0 0 160 160" fill="none" xmlns="http://www.w3.org/2000/svg">
<circle cx="80" cy="80" r="80" fill="#EEEDF2"/>
<path fill-rule="evenodd" clip-rule="evenodd" d="M88.9928 36.6072C98.3432 38.5793 106.608 43.4973 112.77 50.3449C113.211 49.8565 113.709 49.4081 114.259 49.0096C107.818 41.8513 99.1785 36.7103 89.404 34.6495C89.3342 35.3252 89.1947 35.9802 88.9928 36.6072ZM123.874 65.6379C123.254 65.9159 122.617 66.1232 121.973 66.2625C123.381 70.5873 124.142 75.2041 124.142 79.9985C124.142 84.7918 123.381 89.4076 121.974 93.7316C122.618 93.8705 123.255 94.0773 123.875 94.3549C125.346 89.8347 126.142 85.0095 126.142 79.9985C126.142 74.986 125.346 70.1593 123.874 65.6379ZM114.262 110.983C113.712 110.585 113.215 110.136 112.774 109.647C106.613 116.496 98.3484 121.415 88.998 123.389C89.1988 124.016 89.3371 124.671 89.4058 125.347C99.1814 123.286 107.821 118.143 114.262 110.983ZM70.1944 125.349C70.2629 124.673 70.4011 124.018 70.6017 123.39C61.2519 121.419 52.9877 116.503 46.8253 109.656C46.383 110.144 45.8853 110.592 45.3348 110.99C51.7771 118.149 60.4181 123.29 70.1944 125.349ZM35.7174 94.3602C36.337 94.0815 36.9736 93.8734 37.6172 93.7333C36.2099 89.4088 35.4492 84.7925 35.4492 79.9985C35.4492 75.2048 36.2098 70.5888 37.6169 66.2645C36.9731 66.1252 36.3362 65.9179 35.7164 65.6399C34.2447 70.1607 33.4492 74.9867 33.4492 79.9985C33.4492 85.0114 34.2451 89.8385 35.7174 94.3602ZM45.3311 49.0111C45.8811 49.4095 46.3783 49.8579 46.8202 50.3462C52.9843 43.4958 61.2523 38.5764 70.6069 36.6054C70.4051 35.9783 70.2658 35.3233 70.1961 34.6476C60.4172 36.7072 51.7742 41.8497 45.3311 49.0111Z" fill="#7161BA"/>
<circle cx="79.7801" cy="69.3826" r="13.4832" stroke="#7161BA" stroke-width="2"/>
<path d="M97.9245 102.903H61.8873C58 102.903 56.3972 97.9182 59.556 95.6525L70.2012 88.0169C71.1434 87.3411 72.3713 87.1932 73.4503 87.6248C77.6625 89.3097 82.3756 89.3156 86.5895 87.6301C87.6735 87.1965 88.9044 87.3517 89.8468 88.0408L100.286 95.674C103.408 97.9575 101.793 102.903 97.9245 102.903Z" stroke="#7161BA" stroke-width="2"/>
<mask id="path-5-inside-1_260_742" fill="white">
<path fill-rule="evenodd" clip-rule="evenodd" d="M79.8004 43.3109C85.133 43.3109 89.4559 38.988 89.4559 33.6555C89.4559 28.3229 85.133 24 79.8004 24C74.4678 24 70.1449 28.3229 70.1449 33.6555C70.1449 38.988 74.4678 43.3109 79.8004 43.3109ZM79.8004 136C85.133 136 89.4559 131.677 89.4559 126.345C89.4559 121.012 85.133 116.689 79.8004 116.689C74.4678 116.689 70.1449 121.012 70.1449 126.345C70.1449 131.677 74.4678 136 79.8004 136ZM48.019 61.6619C50.6852 57.0438 49.103 51.1386 44.4848 48.4723C39.8667 45.806 33.9615 47.3883 31.2952 52.0064C28.6289 56.6246 30.2112 62.5298 34.8293 65.196C39.4475 67.8623 45.3527 66.28 48.019 61.6619ZM128.303 108.011C130.969 103.393 129.387 97.4878 124.769 94.8215C120.151 92.1552 114.245 93.7375 111.579 98.3557C108.913 102.974 110.495 108.879 115.113 111.545C119.731 114.212 125.637 112.629 128.303 108.011ZM124.761 65.194C120.143 67.8603 114.238 66.278 111.572 61.6599C108.906 57.0417 110.488 51.1366 115.106 48.4703C119.724 45.804 125.629 47.3863 128.296 52.0044C130.962 56.6226 129.38 62.5278 124.761 65.194ZM44.4966 111.543C39.8785 114.209 33.9733 112.627 31.307 108.009C28.6407 103.391 30.223 97.4856 34.8411 94.8193C39.4593 92.153 45.3645 93.7353 48.0308 98.3535C50.697 102.972 49.1148 108.877 44.4966 111.543Z"/>
</mask>
<path d="M48.019 61.6619L46.2869 60.6619H46.2869L48.019 61.6619ZM34.8293 65.196L33.8293 66.9281H33.8293L34.8293 65.196ZM111.579 98.3557L113.311 99.3557L111.579 98.3557ZM115.113 111.545L114.113 113.277L115.113 111.545ZM111.572 61.6599L113.304 60.6599L111.572 61.6599ZM124.761 65.194L123.761 63.462L124.761 65.194ZM31.307 108.009L33.039 107.009L31.307 108.009ZM44.4966 111.543L45.4966 113.275H45.4966L44.4966 111.543ZM34.8411 94.8193L33.8411 93.0873H33.8411L34.8411 94.8193ZM87.4559 33.6555C87.4559 37.8835 84.0284 41.3109 79.8004 41.3109V45.3109C86.2375 45.3109 91.4559 40.0926 91.4559 33.6555H87.4559ZM79.8004 26C84.0284 26 87.4559 29.4275 87.4559 33.6555H91.4559C91.4559 27.2183 86.2375 22 79.8004 22V26ZM72.1449 33.6555C72.1449 29.4275 75.5724 26 79.8004 26V22C73.3633 22 68.1449 27.2183 68.1449 33.6555H72.1449ZM79.8004 41.3109C75.5724 41.3109 72.1449 37.8835 72.1449 33.6555H68.1449C68.1449 40.0926 73.3633 45.3109 79.8004 45.3109V41.3109ZM87.4559 126.345C87.4559 130.573 84.0284 134 79.8004 134V138C86.2375 138 91.4559 132.782 91.4559 126.345H87.4559ZM79.8004 118.689C84.0284 118.689 87.4559 122.117 87.4559 126.345H91.4559C91.4559 119.907 86.2375 114.689 79.8004 114.689V118.689ZM72.1449 126.345C72.1449 122.117 75.5724 118.689 79.8004 118.689V114.689C73.3633 114.689 68.1449 119.907 68.1449 126.345H72.1449ZM79.8004 134C75.5724 134 72.1449 130.573 72.1449 126.345H68.1449C68.1449 132.782 73.3633 138 79.8004 138V134ZM43.4848 50.2043C47.1464 52.3183 48.4009 57.0003 46.2869 60.6619L49.751 62.6619C52.9696 57.0872 51.0595 49.9588 45.4848 46.7402L43.4848 50.2043ZM33.0273 53.0064C35.1413 49.3449 39.8233 48.0903 43.4848 50.2043L45.4848 46.7402C39.9101 43.5217 32.7817 45.4317 29.5631 51.0064L33.0273 53.0064ZM35.8293 63.464C32.1678 61.35 30.9133 56.668 33.0273 53.0064L29.5631 51.0064C26.3446 56.5812 28.2546 63.7095 33.8293 66.9281L35.8293 63.464ZM46.2869 60.6619C44.1729 64.3235 39.4909 65.578 35.8293 63.464L33.8293 66.9281C39.4041 70.1467 46.5324 68.2366 49.751 62.6619L46.2869 60.6619ZM123.769 96.5536C127.43 98.6676 128.685 103.35 126.571 107.011L130.035 109.011C133.254 103.436 131.344 96.308 125.769 93.0895L123.769 96.5536ZM113.311 99.3557C115.425 95.6941 120.107 94.4396 123.769 96.5536L125.769 93.0895C120.194 89.8709 113.066 91.7809 109.847 97.3557L113.311 99.3557ZM116.113 109.813C112.452 107.699 111.197 103.017 113.311 99.3557L109.847 97.3557C106.629 102.93 108.539 110.059 114.113 113.277L116.113 109.813ZM126.571 107.011C124.457 110.673 119.775 111.927 116.113 109.813L114.113 113.277C119.688 116.496 126.816 114.586 130.035 109.011L126.571 107.011ZM109.84 62.6599C113.058 68.2346 120.187 70.1447 125.761 66.9261L123.761 63.462C120.1 65.576 115.418 64.3214 113.304 60.6599L109.84 62.6599ZM114.106 46.7382C108.531 49.9568 106.621 57.0852 109.84 62.6599L113.304 60.6599C111.19 56.9983 112.444 52.3163 116.106 50.2023L114.106 46.7382ZM130.028 51.0044C126.809 45.4297 119.681 43.5197 114.106 46.7382L116.106 50.2023C119.768 48.0883 124.45 49.3429 126.564 53.0044L130.028 51.0044ZM125.761 66.9261C131.336 63.7075 133.246 56.5791 130.028 51.0044L126.564 53.0044C128.678 56.666 127.423 61.348 123.761 63.462L125.761 66.9261ZM29.5749 109.009C32.7935 114.584 39.9219 116.494 45.4966 113.275L43.4966 109.811C39.8351 111.925 35.153 110.67 33.039 107.009L29.5749 109.009ZM33.8411 93.0873C28.2664 96.3058 26.3564 103.434 29.5749 109.009L33.039 107.009C30.925 103.347 32.1796 98.6654 35.8411 96.5514L33.8411 93.0873ZM49.7628 97.3535C46.5442 91.7787 39.4159 89.8687 33.8411 93.0873L35.8411 96.5514C39.5027 94.4374 44.1847 95.6919 46.2987 99.3535L49.7628 97.3535ZM45.4966 113.275C51.0713 110.057 52.9814 102.928 49.7628 97.3535L46.2987 99.3535C48.4127 103.015 47.1582 107.697 43.4966 109.811L45.4966 113.275Z" fill="#7161BA" mask="url(#path-5-inside-1_260_742)"/>
</svg>
