<svg width="101" height="99" viewBox="0 0 101 99" fill="none" xmlns="http://www.w3.org/2000/svg">
<g filter="url(#filter0_d)">
<circle cx="52" cy="47" r="32" fill="#F5F5F7"/>
</g>
<path d="M53 64C48.2 64 46 62.1667 45.5 61C48.6667 61.1667 55.5 61 57.5 61C59.5 61 60 59.6667 60 59C63.5 59 67 61 68.5 64.5C69.4269 66.6628 69.5185 67.871 69.5122 69.0002C69.5091 69.5524 69.0523 70 68.5 70H65.5C64.9477 70 64.5274 69.5523 64.5088 69.0004C64.4836 68.2521 64.3135 67.3559 63.5 66C62 63.5 59 64 53 64Z" fill="#7161BA"/>
<path d="M66.7996 42.1674L63 48.5C63.6667 48.1667 65.3 47.7 66.5 48.5C67.7 49.3 67.6667 51.5 67.5 52.5L71.1436 46.1236C71.3566 45.751 71.308 45.284 71.0228 44.9631L68.4045 42.0175C67.956 41.513 67.1468 41.5886 66.7996 42.1674Z" fill="#7161BA"/>
<path d="M44.1479 41.1122L49.5427 36.9511L55.2999 32.5105C56.3081 31.7328 56.3412 30.2246 55.3696 29.4017L49.7477 24.6405C47.2289 22.5073 43.5622 22.4235 40.9485 24.4394L40.2862 24.9503L39.7837 25.3379C37.0984 27.4092 36.284 31.1074 37.8509 34.115L41.1527 40.4526C41.7281 41.557 43.1619 41.8727 44.1479 41.1122Z" fill="#7161BA"/>
<path fill-rule="evenodd" clip-rule="evenodd" d="M46.541 40.2665L49.542 37.9518L54.3224 34.2646C55.3513 35.1805 55.9993 36.5149 55.9993 38.0007C55.9993 40.7621 53.7608 43.0007 50.9993 43.0007C49.0535 43.0007 47.3674 41.8892 46.541 40.2665Z" fill="#7161BA"/>
<path d="M37.5 35.5L33 40.5L34 42.5L38.5 37.5L37.5 35.5Z" fill="#7161BA"/>
<path fill-rule="evenodd" clip-rule="evenodd" d="M37.4757 50.4044C37.2133 49.0488 38.0994 47.7372 39.4549 47.4748C40.8105 47.2123 42.1221 48.0984 42.3846 49.454L44.0391 57.9998H46.0859C46.2918 57.4172 46.8474 56.9998 47.5005 56.9998H57.5005C58.329 56.9998 59.0005 57.6713 59.0005 58.4998C59.0005 59.3282 58.329 59.9998 57.5005 59.9998H47.5005C46.8474 59.9998 46.2918 59.5824 46.0859 58.9998H44.2327L44.4755 60.2534C44.683 61.3254 44.1723 62.3699 43.2791 62.8898L44.8005 65.0198C44.8652 65.0066 44.932 64.9998 45.0005 64.9998H60.0005C60.5528 64.9998 61.0005 65.4475 61.0005 65.9998V67.4998C61.0005 68.8805 59.8812 69.9998 58.5005 69.9998H46.5005C45.1198 69.9998 44.0005 68.8805 44.0005 67.4998L44.0005 66.9998L41.4414 63.1611C40.5164 62.9402 39.7592 62.1983 39.5666 61.2038L37.4757 50.4044Z" fill="#7161BA"/>
<path d="M45.5 45.5001C44.7 47.5001 44.5 53.6668 44.5 56.5001C44.5 56.7762 44.7238 57 44.9999 57H45.5607C45.842 57 46.1117 56.8883 46.3107 56.6893L46.5 56.5C46.8201 56.1799 47.2544 56 47.7071 56H57.772C58.2381 56 58.6852 56.1852 59.0148 56.5148C59.3 56.8 59.7418 56.8553 60.0861 56.6454C61.8836 55.5502 64.7846 53.7154 65.5 53C66.5 52 67 50.5 66 49.5C65 48.5 63.5 49.5 63 50C62.5 50.5 59 53 57 53.5C55 54 54 49.5001 52.5 46.5001C51 43.5001 46.5 43.0001 45.5 45.5001Z" fill="#7161BA"/>
<defs>
<filter id="filter0_d" x="-3" y="0" width="104" height="104" filterUnits="userSpaceOnUse" color-interpolation-filters="sRGB">
<feFlood flood-opacity="0" result="BackgroundImageFix"/>
<feColorMatrix in="SourceAlpha" type="matrix" values="0 0 0 0 0 0 0 0 0 0 0 0 0 0 0 0 0 0 127 0" result="hardAlpha"/>
<feOffset dx="-3" dy="5"/>
<feGaussianBlur stdDeviation="10"/>
<feColorMatrix type="matrix" values="0 0 0 0 0.443137 0 0 0 0 0.380392 0 0 0 0 0.729412 0 0 0 0.15 0"/>
<feBlend mode="normal" in2="BackgroundImageFix" result="effect1_dropShadow"/>
<feBlend mode="normal" in="SourceGraphic" in2="effect1_dropShadow" result="shape"/>
</filter>
</defs>
</svg>
