<svg width="40" height="40" viewBox="0 0 40 40" fill="none" xmlns="http://www.w3.org/2000/svg">
<rect x="6.12207" y="32.9116" width="27.6251" height="2.80254" rx="1.40127" fill="#7161BA"/>
<path fill-rule="evenodd" clip-rule="evenodd" d="M19.8981 4.28564C19.1011 4.28564 17.3092 4.44649 16.5177 5.08985C15.5283 5.89406 15.1161 6.84449 15.1161 8.08735C15.1161 9.08164 15.3909 9.72014 15.5283 9.9151C15.3909 9.81762 15.0996 9.73963 15.0336 10.2075C14.9512 10.7924 15.1161 12.1084 15.6107 12.4008C16.0065 12.6348 16.1604 12.4983 16.1879 12.4008C16.1879 12.7176 16.2704 13.4682 16.6002 13.9361C16.8316 14.2645 17.0371 14.4316 17.1874 14.5538L17.1874 14.5538C17.3048 14.6492 17.3885 14.7173 17.4247 14.8134C17.5071 15.0328 17.8369 15.9832 16.93 17.0799L17.2544 17.5274C18.5581 19.3257 21.238 19.3257 22.5417 17.5274L22.8662 17.0799C21.9592 15.9832 22.289 15.0328 22.3715 14.8134C22.4076 14.7173 22.4914 14.6492 22.6087 14.5538C22.759 14.4316 22.9645 14.2645 23.196 13.9361C23.5258 13.4682 23.6082 12.7176 23.6082 12.4008C23.6357 12.4983 23.7897 12.6348 24.1854 12.4008C24.6801 12.1084 24.845 10.7924 24.7625 10.2075C24.6966 9.73963 24.4053 9.81762 24.2679 9.9151C24.4053 9.72014 24.6801 9.08164 24.6801 8.08735C24.6801 6.84449 24.2679 5.89406 23.2785 5.08985C22.487 4.44649 20.6951 4.28564 19.8981 4.28564ZM11.9501 19.2061C10.9618 19.6005 9.06975 20.3554 8.68511 21.174C8.35531 21.8759 8.32783 22.295 8.35531 22.4169L6.82913 28.3741C6.36613 30.1814 7.73125 31.9403 9.59689 31.9403H30.1993C32.0649 31.9403 33.43 30.1814 32.967 28.3741L31.4408 22.4169C31.4683 22.295 31.4408 21.8759 31.111 21.174C30.7264 20.3554 28.8344 19.6005 27.8461 19.2061L27.8461 19.2061L27.8446 19.2055C27.7743 19.1775 27.7085 19.1512 27.6482 19.1269C27.4153 19.033 27.0464 18.9247 26.6114 18.7969C26.003 18.6182 25.2652 18.4015 24.5891 18.1333C24.4027 18.0593 24.1881 18.1236 24.0796 18.2923L20.2184 24.2994C20.0638 24.5399 19.7162 24.5511 19.5465 24.3209L15.2173 18.4496C15.1087 18.3023 14.9155 18.2458 14.7429 18.3068C14.2052 18.4972 13.6563 18.6584 13.185 18.7968L13.1848 18.7969L13.1847 18.7969L13.1846 18.797C12.7497 18.9247 12.3808 19.0331 12.148 19.1269C12.0872 19.1514 12.021 19.1778 11.9501 19.2061ZM18.8098 20.6947L19.556 19.5503C19.717 19.3034 20.0787 19.3034 20.2398 19.5503L20.9859 20.6947C21.0651 20.8161 21.074 20.9703 21.0092 21.1L20.263 22.5941C20.1127 22.8952 19.6831 22.8952 19.5327 22.5941L18.7865 21.1C18.7218 20.9703 18.7306 20.8161 18.8098 20.6947ZM19.8552 25.5183H14.502C13.1429 25.5183 12.1796 26.8448 12.6002 28.1373L13.1226 29.7424C13.3906 30.5659 14.1583 31.1234 15.0244 31.1234H19.8552H24.6861C25.5522 31.1234 26.3199 30.5659 26.5879 29.7424L27.1103 28.1373C27.5309 26.8448 26.5676 25.5183 25.2084 25.5183H19.8552Z" fill="#7161BA"/>
</svg>
