<svg width="40" height="40" viewBox="0 0 40 40" fill="none" xmlns="http://www.w3.org/2000/svg">
<path fill-rule="evenodd" clip-rule="evenodd" d="M7.71094 35.2699V23.7472C7.71094 23.6375 7.75511 23.5324 7.8335 23.4556L20.149 11.3931L32.2437 23.3272C32.3214 23.4039 32.3651 23.5086 32.3651 23.6178V35.2699C32.3651 35.5152 32.1663 35.7141 31.9209 35.7141H8.15516C7.90982 35.7141 7.71094 35.5152 7.71094 35.2699ZM15.9291 22.2764C15.9291 21.7858 16.3269 21.388 16.8176 21.388H23.703C24.1936 21.388 24.5914 21.7858 24.5914 22.2764V25.8302C24.5914 26.3209 24.1936 26.7187 23.703 26.7187H16.8176C16.3269 26.7187 15.9291 26.3209 15.9291 25.8302V22.2764ZM11.0427 28.9398C11.0427 28.4491 11.4405 28.0513 11.9312 28.0513H18.8166C19.3072 28.0513 19.705 28.4491 19.705 28.9398V32.4935C19.705 32.9842 19.3072 33.382 18.8166 33.382H11.9312C11.4405 33.382 11.0427 32.9842 11.0427 32.4935V28.9398ZM21.0377 28.9398C21.0377 28.4491 21.4355 28.0513 21.9261 28.0513H28.8115C29.3022 28.0513 29.7 28.4491 29.7 28.9398V32.4935C29.7 32.9842 29.3022 33.382 28.8115 33.382H21.9261C21.4355 33.382 21.0377 32.9842 21.0377 32.4935V28.9398Z" fill="#7161BA"/>
<path fill-rule="evenodd" clip-rule="evenodd" d="M18.585 4.92969C19.4508 4.07096 20.8471 4.07096 21.713 4.92969L35.1507 18.2563C36.0217 19.1201 36.0275 20.5264 35.1637 21.3974C34.2999 22.2684 32.8936 22.2742 32.0226 21.4104L20.149 9.6349L8.27536 21.4104C7.40437 22.2742 5.99806 22.2684 5.13428 21.3974C4.27049 20.5264 4.27632 19.1201 5.14731 18.2563L18.585 4.92969Z" fill="#7161BA"/>
</svg>
