<svg width="160" height="160" viewBox="0 0 160 160" fill="none" xmlns="http://www.w3.org/2000/svg">
<ellipse cx="80" cy="140.168" rx="80" ry="19.829" fill="#E3E1F1"/>
<path fill-rule="evenodd" clip-rule="evenodd" d="M79 26H27C24.7909 26 23 27.7909 23 30V115.82H16V122C16 129.732 22.268 136 30 136H79H128C135.732 136 142 129.732 142 122V115.82H135V30C135 27.7909 133.209 26 131 26H79ZM31 32C28.7909 32 27 33.7909 27 36V104C27 106.209 28.7909 108 31 108H126C128.209 108 130 106.209 130 104V36C130 33.7909 128.209 32 126 32H31Z" fill="#E3E1F1"/>
<path d="M89 20H22.5556C20.3464 20 18.5556 21.7909 18.5556 24V117.986M18.5556 117.986H63.4691M18.5556 117.986H11V126C11 133.732 17.268 140 25 140H30M79 117.986H63.4691M63.4691 117.986V123.482C63.4691 125.691 65.26 127.482 67.4691 127.482H79H90.5309C92.74 127.482 94.5309 125.691 94.5309 123.482V117.986M40.5 140H133C140.732 140 147 133.732 147 126V117.986H139.444M139.444 117.986H94.5309M139.444 117.986V79M94.5309 117.986H86.7654" stroke="#7161BA" stroke-width="2" stroke-linecap="round"/>
<path d="M89 32H31C28.7909 32 27 33.7909 27 36V104C27 106.209 28.7909 108 31 108H126C128.209 108 130 106.209 130 104V79" stroke="#7161BA" stroke-width="2" stroke-linecap="round"/>
<ellipse cx="65.5" cy="60" rx="11.5" ry="12" fill="#7161BA"/>
<path fill-rule="evenodd" clip-rule="evenodd" d="M58.163 71.3096C51.0192 74.6569 46 82.5587 46 91.7733C46 95.4976 46.8199 101.479 48.2687 108H83.3313C84.78 101.479 85.6 95.4976 85.6 91.7733C85.6 82.5587 80.5807 74.6569 73.4369 71.3096C71.4157 73.2305 68.7376 74.4001 65.8 74.4001C62.8624 74.4001 60.1843 73.2305 58.163 71.3096Z" fill="#7161BA"/>
<path d="M101 9C101 7.34315 102.343 6 104 6H132.586C133.37 6 134.122 6.3064 134.682 6.8537L135.379 6.1407L134.682 6.8537L147.096 18.9767C147.674 19.5412 148 20.3151 148 21.123V63C148 64.6569 146.657 66 145 66H104C102.343 66 101 64.6569 101 63V9Z" fill="#E3E1F1" stroke="#E3E1F1" stroke-width="2"/>
<path d="M150 72H100C98.3431 72 97 70.6569 97 69V4C97 2.34315 98.3431 1 100 1H136.38C137.159 1 137.908 1.30314 138.468 1.84528L152.087 15.0394C152.671 15.6045 153 16.382 153 17.1942V69C153 70.6569 151.657 72 150 72Z" stroke="#7161BA" stroke-width="2"/>
<path d="M136.14 12.8646L136.502 2.18082C136.531 1.32567 137.551 0.899492 138.179 1.47973L153.12 15.2651C153.789 15.8824 153.352 17 152.442 17H140.138C137.876 17 136.063 15.1255 136.14 12.8646Z" fill="#7161BA"/>
<path d="M107 25H128.5M133 25H137.5" stroke="#7161BA" stroke-width="2" stroke-linecap="round"/>
<path d="M107 41.5H128.5M133 41.5H137.5" stroke="#7161BA" stroke-width="2" stroke-linecap="round"/>
<path d="M142 33.5H116M111.5 33.5H107" stroke="#7161BA" stroke-width="2" stroke-linecap="round"/>
<path d="M142 49.5H116M111.5 49.5H107" stroke="#7161BA" stroke-width="2" stroke-linecap="round"/>
</svg>
