<svg width="160" height="160" viewBox="0 0 160 160" fill="none" xmlns="http://www.w3.org/2000/svg">
<ellipse cx="80" cy="140.168" rx="80" ry="19.829" fill="#E3E1F1"/>
<path d="M51.2774 127.183V127.183C51.2774 122.524 48.6101 118.275 44.4135 116.251L42.9941 115.566C39.0624 113.669 35.9038 110.477 34.0493 106.525L27.4422 92.4456C27.1522 91.8277 27.0252 91.1458 27.0732 90.465L29.119 61.4496C29.2717 59.2838 31.1785 57.5689 33.1902 58.3855C34.2197 58.8035 35.1957 59.402 35.8903 60.2335M35.8903 60.2335C36.5181 60.9851 36.9161 61.927 36.9161 63.0981V82.732M35.8903 60.2335V54.7276C35.8903 52.1203 38.3927 50.207 40.6047 51.5874C42.5024 52.7717 44.0968 54.4219 44.0968 56.5164C44.0968 60.3961 44.0968 59.7495 44.0968 58.9412M44.0968 58.9412C46.4903 59.1721 51.2774 60.5347 51.2774 64.1373C51.2774 67.233 51.2774 77.8831 51.2774 84.9216M44.0968 58.9412V83.4396M44.0968 102.242L35.2167 87.732C34.2177 86.0996 34.4971 83.9259 36.2048 83.062C36.4356 82.9452 36.6731 82.8345 36.9161 82.732M69.4 127.183L66.4015 107.438M36.9161 82.732C39.1332 81.7965 41.8107 81.5356 44.0968 83.4396M44.0968 83.4396C44.5722 83.8355 45.0306 84.325 45.4645 84.9216C48.0159 88.4295 50.0008 91.4147 51.2774 93.4263M51.2774 93.4263C51.5002 93.7774 51.7015 94.0988 51.8804 94.3882C52.3633 95.1693 53.2111 95.6602 54.1295 95.6602V95.6602C60.1579 95.6602 65.2818 100.065 66.1869 106.025L66.4015 107.438M51.2774 93.4263V88.0392C51.2774 87.1295 51.2774 86.074 51.2774 84.9216M51.2774 84.9216C51.8473 82.9586 54.0129 78.7556 58.1161 77.6471C59.49 77.2759 60.8884 76.9545 62.2194 76.6694M70.7677 72.1046C70.7677 72.7974 70.5626 74.3216 69.7419 74.8758C68.9909 75.3831 65.8572 75.8903 62.2194 76.6694M62.2194 76.6694V76.6694C65.1201 83.5591 71.8675 88.0392 79.3429 88.0392H80H80.6571C88.1325 88.0392 94.8799 83.5591 97.7806 76.6694V76.6694M66.4015 107.438H80H93.5985M108.723 127.183V127.183C108.723 122.524 111.39 118.275 115.587 116.251L117.006 115.566C120.938 113.669 124.096 110.477 125.951 106.525L132.558 92.4456C132.848 91.8277 132.975 91.1458 132.927 90.465L130.881 61.4496C130.728 59.2838 128.822 57.5689 126.81 58.3855C125.78 58.8035 124.804 59.402 124.11 60.2335M124.11 60.2335C123.482 60.9851 123.084 61.927 123.084 63.0981V82.732M124.11 60.2335V54.7276C124.11 52.1203 121.607 50.207 119.395 51.5874C117.498 52.7717 115.903 54.4219 115.903 56.5164C115.903 60.3961 115.903 59.7495 115.903 58.9412M115.903 58.9412C113.51 59.1721 108.723 60.5347 108.723 64.1373C108.723 67.233 108.723 77.8831 108.723 84.9216M115.903 58.9412V83.4396M115.903 102.242L124.783 87.732C125.782 86.0996 125.503 83.9259 123.795 83.062C123.564 82.9452 123.327 82.8345 123.084 82.732M90.6 127.183L93.5985 107.438M123.084 82.732C120.867 81.7965 118.189 81.5356 115.903 83.4396M115.903 83.4396C115.428 83.8355 114.969 84.325 114.535 84.9216C111.984 88.4295 109.999 91.4147 108.723 93.4263M108.723 93.4263C108.5 93.7774 108.299 94.0988 108.12 94.3882C107.637 95.1693 106.789 95.6602 105.871 95.6602V95.6602C99.8421 95.6602 94.7182 100.065 93.8131 106.025L93.5985 107.438M108.723 93.4263V88.0392C108.723 87.1295 108.723 86.074 108.723 84.9216M108.723 84.9216C108.153 82.9586 105.987 78.7556 101.884 77.6471C100.51 77.2759 99.1116 76.9545 97.7806 76.6694M89.2323 72.1046C89.2323 72.7974 89.4374 74.3216 90.2581 74.8758C91.0091 75.3831 94.1428 75.8903 97.7806 76.6694" stroke="#7161BA" stroke-width="2" stroke-linecap="round"/>
<path fill-rule="evenodd" clip-rule="evenodd" d="M65.7607 48.2927L65.9176 49.8578C69.2134 50.1933 77.1045 49.6061 82.3024 44.5729C83.9032 46.3345 88.2913 49.8578 93.0373 49.8578C93.4095 49.8578 93.7356 49.7999 94.0194 49.6911C93.0113 42.3847 87.0117 36.7713 79.7611 36.7713C72.9805 36.7713 67.2939 41.6805 65.7607 48.2927Z" fill="#E3E1F1"/>
<path d="M96.4373 52.0131C96.4373 52.887 96.3901 53.7797 96.2983 54.6831C95.7627 59.9487 93.7147 65.4995 90.7401 69.7123C87.7473 73.9508 83.9627 76.6471 79.9986 76.6471C76.2454 76.6471 72.5352 73.8831 69.495 69.5668C66.4977 65.3115 64.3243 59.776 63.5596 54.7098C63.5594 53.1089 63.5596 52.9416 63.5597 52.7768C63.5598 52.666 63.5598 52.5562 63.5598 52.0131C63.5598 46.5104 65.4251 42.277 68.3646 39.4189C71.3108 36.5543 75.4095 35 79.9986 35C84.5876 35 88.6863 36.5543 91.6325 39.4189C94.572 42.277 96.4373 46.5104 96.4373 52.0131Z" stroke="#7161BA" stroke-width="2"/>
<rect x="44.0967" y="126.144" width="31.4581" height="13.1634" rx="4" fill="#7161BA"/>
<rect x="83.0771" y="126.144" width="31.4581" height="13.1634" rx="4" fill="#7161BA"/>
<path d="M78.9741 90.4641C68.0322 90.4641 62.7892 83.536 61.5354 80.0719C56.7483 80.0719 53.6709 84.5752 53.6709 89.0784V93.5817C54.2408 93.5817 56.6115 93.8588 61.5354 94.9673C66.4593 96.0758 68.1462 102.357 68.3741 105.359H92.3096C92.6515 103.974 93.6773 100.51 95.0451 97.7386C96.4128 94.9673 103.138 93.8126 106.329 93.5817C106.443 94.6209 106.603 95.1752 106.329 89.0784C106.055 82.9817 101.2 80.5338 98.8064 80.0719C96.7548 83.536 89.9161 90.4641 78.9741 90.4641Z" fill="#E3E1F1"/>
<path d="M31.1035 140H128.897" stroke="#7161BA" stroke-width="2" stroke-linecap="round"/>
<path d="M130.948 140L133 140" stroke="#7161BA" stroke-width="2" stroke-linecap="round"/>
<path d="M27 140L29.0516 140" stroke="#7161BA" stroke-width="2" stroke-linecap="round"/>
<path d="M103.242 28.8786L103.646 27.5815H102.287H96C94.3431 27.5815 93 26.2383 93 24.5815V4C93 2.34314 94.3431 1 96 1H128.697C130.354 1 131.697 2.34314 131.697 4V24.5815C131.697 26.2383 130.354 27.5815 128.697 27.5815H111.969H111.561L111.27 27.8665L100.182 38.7088L103.242 28.8786Z" fill="#7161BA" stroke="#7161BA" stroke-width="2"/>
<path d="M102 6H106.145L109.829 17.0416H118.579L121.342 9.22047H112.132" stroke="#E3E1F1" stroke-width="2" stroke-linecap="round" stroke-linejoin="round"/>
<path d="M111.631 21.1822C111.631 21.6679 111.237 22.0624 110.75 22.0624C110.262 22.0624 109.868 21.6679 109.868 21.1822C109.868 20.6966 110.262 20.302 110.75 20.302C111.237 20.302 111.631 20.6966 111.631 21.1822Z" fill="#E3E1F1" stroke="#E3E1F1"/>
<path d="M118.079 21.1822C118.079 21.6679 117.684 22.0624 117.197 22.0624C116.71 22.0624 116.315 21.6679 116.315 21.1822C116.315 20.6966 116.71 20.302 117.197 20.302C117.684 20.302 118.079 20.6966 118.079 21.1822Z" fill="#E3E1F1" stroke="#E3E1F1"/>
</svg>
