<svg width="160" height="160" viewBox="0 0 160 160" fill="none" xmlns="http://www.w3.org/2000/svg">
<ellipse cx="80" cy="140.171" rx="80" ry="19.829" fill="#E3E1F1"/>
<rect x="48" y="41" width="64" height="86.0001" rx="4" fill="#E3E1F1"/>
<path fill-rule="evenodd" clip-rule="evenodd" d="M47 36C44.2386 36 42 38.2386 42 41V54V59V78.0001C42 78.5523 42.4477 79.0001 43 79.0001C43.5523 79.0001 44 78.5523 44 78.0001V60H115V128C115 129.657 113.657 131 112 131H69C68.4477 131 68 131.448 68 132C68 132.552 68.4477 133 69 133H112C114.761 133 117 130.762 117 128V41C117 38.2386 114.761 36 112 36H66C65.4477 36 65 36.4477 65 37C65 37.5523 65.4477 38 66 38H112C113.657 38 115 39.3431 115 41V58H44V54V41C44 39.3431 45.3431 38 47 38H57C57.5523 38 58 37.5523 58 37C58 36.4477 57.5523 36 57 36H47Z" fill="#7161BA"/>
<circle cx="89.5" cy="76.5" r="4.5" fill="#7161BA"/>
<path fill-rule="evenodd" clip-rule="evenodd" d="M90.6598 106.498L84.2002 96.184L89.1657 89.9772C90.0182 88.9115 91.6642 88.9939 92.4061 90.1394L103 106.498H90.6598Z" fill="#7161BA"/>
<path d="M56 106H89L75.7485 85.355C75.0074 84.2005 73.3505 84.1178 72.4982 85.1927L56 106Z" fill="#7161BA"/>
<circle cx="53.5" cy="46.5" r="1.5" fill="#7161BA"/>
<circle cx="58.5" cy="46.5" r="1.5" fill="#7161BA"/>
<circle cx="63.5" cy="46.5" r="1.5" fill="#7161BA"/>
<path d="M53 53H59" stroke="#7161BA" stroke-width="2" stroke-linecap="round"/>
<path d="M63 53H72" stroke="#7161BA" stroke-width="2" stroke-linecap="round"/>
<path d="M76 53H104" stroke="#7161BA" stroke-width="2" stroke-linecap="round"/>
<rect x="39" y="87.0002" width="24" height="49" rx="2" fill="#E3E1F1"/>
<rect x="36" y="84.0002" width="26" height="55" rx="3" stroke="#7161BA" stroke-width="2"/>
<circle cx="52.1179" cy="105.628" r="1.62766" fill="#7161BA"/>
<path fill-rule="evenodd" clip-rule="evenodd" d="M52.5365 116.478L50.6893 113.529C50.5248 113.266 50.3132 113.058 50.0743 112.905L50.8901 111.885C51.7427 110.819 53.3887 110.902 54.1305 112.047L57 116.478H52.5365Z" fill="#7161BA"/>
<path d="M39.9994 116.298H51.9355L48.1073 110.334C47.3663 109.18 45.7094 109.097 44.857 110.172L39.9994 116.298Z" fill="#7161BA"/>
<path d="M46 88.5002H52" stroke="#7161BA" stroke-width="2" stroke-linecap="round"/>
<rect x="73" y="116" width="68" height="24" rx="4" fill="#7161BA"/>
<path d="M90.82 122.5C91.78 122.5 92.495 122.725 92.965 123.175C93.435 123.625 93.67 124.29 93.67 125.17C93.67 125.64 93.555 126.055 93.325 126.415C93.095 126.765 92.755 127.04 92.305 127.24C91.855 127.43 91.3 127.525 90.64 127.525L90.7 126.85C91.01 126.85 91.365 126.895 91.765 126.985C92.165 127.065 92.55 127.215 92.92 127.435C93.3 127.645 93.61 127.945 93.85 128.335C94.1 128.715 94.225 129.205 94.225 129.805C94.225 130.465 94.115 131.005 93.895 131.425C93.685 131.845 93.405 132.17 93.055 132.4C92.705 132.63 92.33 132.79 91.93 132.88C91.53 132.96 91.145 133 90.775 133H87.04C86.78 133 86.56 132.915 86.38 132.745C86.21 132.565 86.125 132.345 86.125 132.085V123.415C86.125 123.155 86.21 122.94 86.38 122.77C86.56 122.59 86.78 122.5 87.04 122.5H90.82ZM90.55 124.27H87.88L88.075 124.03V126.745L87.895 126.61H90.595C90.885 126.61 91.145 126.515 91.375 126.325C91.605 126.135 91.72 125.86 91.72 125.5C91.72 125.07 91.61 124.76 91.39 124.57C91.18 124.37 90.9 124.27 90.55 124.27ZM90.67 128.38H87.94L88.075 128.26V131.425L87.925 131.275H90.775C91.235 131.275 91.6 131.155 91.87 130.915C92.14 130.665 92.275 130.295 92.275 129.805C92.275 129.355 92.185 129.03 92.005 128.83C91.825 128.63 91.61 128.505 91.36 128.455C91.11 128.405 90.88 128.38 90.67 128.38ZM96.7041 133C96.4441 133 96.2291 132.915 96.0591 132.745C95.8891 132.565 95.8041 132.345 95.8041 132.085V125.89C95.8041 125.63 95.8891 125.415 96.0591 125.245C96.2291 125.065 96.4441 124.975 96.7041 124.975C96.9641 124.975 97.1791 125.065 97.3491 125.245C97.5191 125.415 97.6041 125.63 97.6041 125.89V127.3L97.4991 126.295C97.6091 126.055 97.7491 125.845 97.9191 125.665C98.0991 125.475 98.2991 125.32 98.5191 125.2C98.7391 125.07 98.9741 124.975 99.2241 124.915C99.4741 124.855 99.7241 124.825 99.9741 124.825C100.274 124.825 100.524 124.91 100.724 125.08C100.934 125.25 101.039 125.45 101.039 125.68C101.039 126.01 100.954 126.25 100.784 126.4C100.614 126.54 100.429 126.61 100.229 126.61C100.039 126.61 99.8641 126.575 99.7041 126.505C99.5541 126.435 99.3791 126.4 99.1791 126.4C98.9991 126.4 98.8141 126.445 98.6241 126.535C98.4441 126.615 98.2741 126.745 98.1141 126.925C97.9641 127.105 97.8391 127.33 97.7391 127.6C97.6491 127.86 97.6041 128.17 97.6041 128.53V132.085C97.6041 132.345 97.5191 132.565 97.3491 132.745C97.1791 132.915 96.9641 133 96.7041 133ZM108.627 124.825C108.887 124.825 109.102 124.91 109.272 125.08C109.442 125.25 109.527 125.47 109.527 125.74V132.085C109.527 132.345 109.442 132.565 109.272 132.745C109.102 132.915 108.887 133 108.627 133C108.367 133 108.152 132.915 107.982 132.745C107.812 132.565 107.727 132.345 107.727 132.085V131.35L108.057 131.485C108.057 131.615 107.987 131.775 107.847 131.965C107.707 132.145 107.517 132.325 107.277 132.505C107.037 132.685 106.752 132.84 106.422 132.97C106.102 133.09 105.752 133.15 105.372 133.15C104.682 133.15 104.057 132.975 103.497 132.625C102.937 132.265 102.492 131.775 102.162 131.155C101.842 130.525 101.682 129.805 101.682 128.995C101.682 128.175 101.842 127.455 102.162 126.835C102.492 126.205 102.932 125.715 103.482 125.365C104.032 125.005 104.642 124.825 105.312 124.825C105.742 124.825 106.137 124.89 106.497 125.02C106.857 125.15 107.167 125.315 107.427 125.515C107.697 125.715 107.902 125.92 108.042 126.13C108.192 126.33 108.267 126.5 108.267 126.64L107.727 126.835V125.74C107.727 125.48 107.812 125.265 107.982 125.095C108.152 124.915 108.367 124.825 108.627 124.825ZM105.597 131.5C106.037 131.5 106.422 131.39 106.752 131.17C107.082 130.95 107.337 130.65 107.517 130.27C107.707 129.89 107.802 129.465 107.802 128.995C107.802 128.515 107.707 128.085 107.517 127.705C107.337 127.325 107.082 127.025 106.752 126.805C106.422 126.585 106.037 126.475 105.597 126.475C105.167 126.475 104.787 126.585 104.457 126.805C104.127 127.025 103.867 127.325 103.677 127.705C103.497 128.085 103.407 128.515 103.407 128.995C103.407 129.465 103.497 129.89 103.677 130.27C103.867 130.65 104.127 130.95 104.457 131.17C104.787 131.39 105.167 131.5 105.597 131.5ZM115.768 124.825C116.508 124.825 117.068 124.98 117.448 125.29C117.838 125.6 118.103 126.015 118.243 126.535C118.393 127.045 118.468 127.615 118.468 128.245V132.085C118.468 132.345 118.383 132.565 118.213 132.745C118.043 132.915 117.828 133 117.568 133C117.308 133 117.093 132.915 116.923 132.745C116.753 132.565 116.668 132.345 116.668 132.085V128.245C116.668 127.915 116.623 127.62 116.533 127.36C116.453 127.09 116.303 126.875 116.083 126.715C115.863 126.555 115.548 126.475 115.138 126.475C114.738 126.475 114.398 126.555 114.118 126.715C113.848 126.875 113.638 127.09 113.488 127.36C113.348 127.62 113.278 127.915 113.278 128.245V132.085C113.278 132.345 113.193 132.565 113.023 132.745C112.853 132.915 112.638 133 112.378 133C112.118 133 111.903 132.915 111.733 132.745C111.563 132.565 111.478 132.345 111.478 132.085V125.89C111.478 125.63 111.563 125.415 111.733 125.245C111.903 125.065 112.118 124.975 112.378 124.975C112.638 124.975 112.853 125.065 113.023 125.245C113.193 125.415 113.278 125.63 113.278 125.89V126.535L113.053 126.49C113.143 126.32 113.273 126.14 113.443 125.95C113.613 125.75 113.813 125.565 114.043 125.395C114.273 125.225 114.533 125.09 114.823 124.99C115.113 124.88 115.428 124.825 115.768 124.825ZM126.908 121.9C127.168 121.9 127.383 121.985 127.553 122.155C127.723 122.325 127.808 122.545 127.808 122.815V132.085C127.808 132.345 127.723 132.565 127.553 132.745C127.383 132.915 127.168 133 126.908 133C126.648 133 126.433 132.915 126.263 132.745C126.093 132.565 126.008 132.345 126.008 132.085V131.35L126.338 131.485C126.338 131.615 126.268 131.775 126.128 131.965C125.988 132.145 125.798 132.325 125.558 132.505C125.318 132.685 125.033 132.84 124.703 132.97C124.383 133.09 124.033 133.15 123.653 133.15C122.963 133.15 122.338 132.975 121.778 132.625C121.218 132.265 120.773 131.775 120.443 131.155C120.123 130.525 119.963 129.805 119.963 128.995C119.963 128.175 120.123 127.455 120.443 126.835C120.773 126.205 121.213 125.715 121.763 125.365C122.313 125.005 122.923 124.825 123.593 124.825C124.023 124.825 124.418 124.89 124.778 125.02C125.138 125.15 125.448 125.315 125.708 125.515C125.978 125.715 126.183 125.92 126.323 126.13C126.473 126.33 126.548 126.5 126.548 126.64L126.008 126.835V122.815C126.008 122.555 126.093 122.34 126.263 122.17C126.433 121.99 126.648 121.9 126.908 121.9ZM123.878 131.5C124.318 131.5 124.703 131.39 125.033 131.17C125.363 130.95 125.618 130.65 125.798 130.27C125.988 129.89 126.083 129.465 126.083 128.995C126.083 128.515 125.988 128.085 125.798 127.705C125.618 127.325 125.363 127.025 125.033 126.805C124.703 126.585 124.318 126.475 123.878 126.475C123.448 126.475 123.068 126.585 122.738 126.805C122.408 127.025 122.148 127.325 121.958 127.705C121.778 128.085 121.688 128.515 121.688 128.995C121.688 129.465 121.778 129.89 121.958 130.27C122.148 130.65 122.408 130.95 122.738 131.17C123.068 131.39 123.448 131.5 123.878 131.5Z" fill="#E3E1F1"/>
<path d="M8 7C8 4.79086 9.79086 3 12 3H38C40.2091 3 42 4.79086 42 7V25C42 27.2091 40.2091 29 38 29H33.4058H25.3172H12C9.79086 29 8 27.2091 8 25V7Z" fill="#E3E1F1"/>
<path d="M34.3984 32.9775L34.1951 31.8064H35.3837H42C43.6569 31.8064 45 30.4633 45 28.8064V4C45 2.34315 43.6569 1 42 1H8C6.34315 1 5 2.34315 5 4V28.8064C5 30.4633 6.34315 31.8064 8 31.8064H25.3918H25.8081L26.1014 32.1018L35.9716 42.0416L34.3984 32.9775Z" stroke="#7161BA" stroke-width="2"/>
<path d="M15.627 20.5095C15.6614 20.3004 15.7613 20.1076 15.9123 19.9589L28.3665 7.70164C28.7602 7.31424 29.3933 7.31929 29.7807 7.71291L32.2281 10.1996C32.6155 10.5933 32.6105 11.2264 32.2169 11.6138L19.7626 23.8711C19.6116 24.0198 19.4172 24.1166 19.2076 24.1476L14.9252 24.7813L15.627 20.5095Z" fill="#7161BA"/>
<path d="M30.4301 6.4169L30.0091 6.8354L32.9943 9.86858L33.4294 9.43606C34.21 8.66009 34.217 7.39919 33.4449 6.61471L33.2655 6.43245C32.488 5.64243 31.2162 5.63546 30.4301 6.4169Z" fill="#7161BA"/>
</svg>
