<svg width="160" height="160" viewBox="0 0 160 160" fill="none" xmlns="http://www.w3.org/2000/svg">
<ellipse cx="80" cy="140.168" rx="80" ry="19.829" fill="#E3E1F1"/>
<path d="M42.4554 28.8786L42.0517 27.5815H43.4102H49.6973C51.3541 27.5815 52.6973 26.2383 52.6973 24.5815V4C52.6973 2.34314 51.3541 1 49.6973 1H17C15.3432 1 14 2.34314 14 4V24.5815C14 26.2383 15.3432 27.5815 17 27.5815H33.7283H34.136L34.4275 27.8665L45.5148 38.7088L42.4554 28.8786Z" fill="#7161BA" stroke="#7161BA" stroke-width="2"/>
<path d="M20.07 20C19.79 20 19.56 19.915 19.38 19.745C19.21 19.565 19.125 19.345 19.125 19.085V10.415C19.125 10.155 19.21 9.94 19.38 9.77C19.56 9.59 19.78 9.5 20.04 9.5H24.915C25.175 9.5 25.39 9.585 25.56 9.755C25.74 9.915 25.83 10.125 25.83 10.385C25.83 10.605 25.74 10.8 25.56 10.97C25.39 11.14 25.175 11.225 24.915 11.225H20.865L21 11.045V14.06L20.895 13.865H24.24C24.5 13.865 24.715 13.95 24.885 14.12C25.065 14.28 25.155 14.49 25.155 14.75C25.155 14.97 25.065 15.165 24.885 15.335C24.715 15.505 24.5 15.59 24.24 15.59H20.865L21 15.455V19.085C21 19.345 20.905 19.565 20.715 19.745C20.535 19.915 20.32 20 20.07 20ZM28.166 20C27.906 20 27.691 19.915 27.521 19.745C27.351 19.565 27.266 19.345 27.266 19.085V12.89C27.266 12.63 27.351 12.415 27.521 12.245C27.691 12.065 27.906 11.975 28.166 11.975C28.426 11.975 28.641 12.065 28.811 12.245C28.981 12.415 29.066 12.63 29.066 12.89V14.3L28.961 13.295C29.071 13.055 29.211 12.845 29.381 12.665C29.561 12.475 29.761 12.32 29.981 12.2C30.201 12.07 30.436 11.975 30.686 11.915C30.936 11.855 31.186 11.825 31.436 11.825C31.736 11.825 31.986 11.91 32.186 12.08C32.396 12.25 32.501 12.45 32.501 12.68C32.501 13.01 32.416 13.25 32.246 13.4C32.076 13.54 31.891 13.61 31.691 13.61C31.501 13.61 31.326 13.575 31.166 13.505C31.016 13.435 30.841 13.4 30.641 13.4C30.461 13.4 30.276 13.445 30.086 13.535C29.906 13.615 29.736 13.745 29.576 13.925C29.426 14.105 29.301 14.33 29.201 14.6C29.111 14.86 29.066 15.17 29.066 15.53V19.085C29.066 19.345 28.981 19.565 28.811 19.745C28.641 19.915 28.426 20 28.166 20ZM37.138 20.15C36.288 20.15 35.548 19.975 34.918 19.625C34.298 19.265 33.818 18.78 33.478 18.17C33.148 17.56 32.983 16.87 32.983 16.1C32.983 15.2 33.163 14.435 33.523 13.805C33.893 13.165 34.373 12.675 34.963 12.335C35.553 11.995 36.178 11.825 36.838 11.825C37.348 11.825 37.828 11.93 38.278 12.14C38.738 12.35 39.143 12.64 39.493 13.01C39.843 13.37 40.118 13.79 40.318 14.27C40.528 14.75 40.633 15.26 40.633 15.8C40.623 16.04 40.528 16.235 40.348 16.385C40.168 16.535 39.958 16.61 39.718 16.61H33.988L33.538 15.11H39.043L38.713 15.41V15.005C38.693 14.715 38.588 14.455 38.398 14.225C38.218 13.995 37.988 13.815 37.708 13.685C37.438 13.545 37.148 13.475 36.838 13.475C36.538 13.475 36.258 13.515 35.998 13.595C35.738 13.675 35.513 13.81 35.323 14C35.133 14.19 34.983 14.445 34.873 14.765C34.763 15.085 34.708 15.49 34.708 15.98C34.708 16.52 34.818 16.98 35.038 17.36C35.268 17.73 35.558 18.015 35.908 18.215C36.268 18.405 36.648 18.5 37.048 18.5C37.418 18.5 37.713 18.47 37.933 18.41C38.153 18.35 38.328 18.28 38.458 18.2C38.598 18.11 38.723 18.035 38.833 17.975C39.013 17.885 39.183 17.84 39.343 17.84C39.563 17.84 39.743 17.915 39.883 18.065C40.033 18.215 40.108 18.39 40.108 18.59C40.108 18.86 39.968 19.105 39.688 19.325C39.428 19.545 39.063 19.74 38.593 19.91C38.123 20.07 37.638 20.15 37.138 20.15ZM45.8392 20.15C44.9892 20.15 44.2492 19.975 43.6192 19.625C42.9992 19.265 42.5192 18.78 42.1792 18.17C41.8492 17.56 41.6842 16.87 41.6842 16.1C41.6842 15.2 41.8642 14.435 42.2242 13.805C42.5942 13.165 43.0742 12.675 43.6642 12.335C44.2542 11.995 44.8792 11.825 45.5392 11.825C46.0492 11.825 46.5292 11.93 46.9792 12.14C47.4392 12.35 47.8442 12.64 48.1942 13.01C48.5442 13.37 48.8192 13.79 49.0192 14.27C49.2292 14.75 49.3342 15.26 49.3342 15.8C49.3242 16.04 49.2292 16.235 49.0492 16.385C48.8692 16.535 48.6592 16.61 48.4192 16.61H42.6892L42.2392 15.11H47.7442L47.4142 15.41V15.005C47.3942 14.715 47.2892 14.455 47.0992 14.225C46.9192 13.995 46.6892 13.815 46.4092 13.685C46.1392 13.545 45.8492 13.475 45.5392 13.475C45.2392 13.475 44.9592 13.515 44.6992 13.595C44.4392 13.675 44.2142 13.81 44.0242 14C43.8342 14.19 43.6842 14.445 43.5742 14.765C43.4642 15.085 43.4092 15.49 43.4092 15.98C43.4092 16.52 43.5192 16.98 43.7392 17.36C43.9692 17.73 44.2592 18.015 44.6092 18.215C44.9692 18.405 45.3492 18.5 45.7492 18.5C46.1192 18.5 46.4142 18.47 46.6342 18.41C46.8542 18.35 47.0292 18.28 47.1592 18.2C47.2992 18.11 47.4242 18.035 47.5342 17.975C47.7142 17.885 47.8842 17.84 48.0442 17.84C48.2642 17.84 48.4442 17.915 48.5842 18.065C48.7342 18.215 48.8092 18.39 48.8092 18.59C48.8092 18.86 48.6692 19.105 48.3892 19.325C48.1292 19.545 47.7642 19.74 47.2942 19.91C46.8242 20.07 46.3392 20.15 45.8392 20.15Z" fill="#E3E1F1"/>
<path d="M63.8896 21.5034H120.758C122.967 21.5034 124.758 23.2942 124.758 25.5034V37.2488M79.1068 135.062H120.758C122.967 135.062 124.758 133.271 124.758 131.062V107.388" stroke="#7161BA" stroke-width="2"/>
<path d="M104.293 69.8628V96.758C98.2904 92.0169 83.4076 82.8311 69.3701 81.7012V83.9515C69.3701 86.0731 67.6502 87.793 65.5286 87.793V105.959H56.4488V87.793C55.0987 87.793 54.0042 86.6985 54.0042 85.3484V81.5864H50.0109C43.5361 81.5864 38.2891 76.3376 38.2891 69.8628C38.2891 63.3881 43.5375 58.1393 50.0123 58.1393H60.6395H66.5763C81.3835 58.1393 97.8902 48.0248 104.293 42.9676V69.8628Z" fill="#E3E1F1"/>
<path d="M58.4773 81.3882C60.5729 81.3882 62.7754 81.3882 65.0777 81.3882C66.1067 81.3882 67.1431 81.4322 68.1837 81.5162M58.4773 81.3882V68.3248V55.2614M58.4773 81.3882C55.8448 81.3882 53.3811 81.3882 51.1004 81.3882M58.4773 55.2614C54.0207 55.2614 50.0478 55.2614 46.6281 55.2614C39.4484 55.2614 33.6289 61.1451 33.6289 68.3248V68.3248V68.3248C33.6289 75.5045 39.4474 81.3882 46.6271 81.3882C48.0271 81.3882 49.5198 81.3882 51.1004 81.3882M58.4773 55.2614C60.5729 55.2614 62.7754 55.2614 65.0777 55.2614C81.5397 55.2614 99.8913 43.991 107.009 38.3558V68.3248V98.2938C100.336 93.0108 83.7901 82.7752 68.1837 81.5162M68.1837 81.5162V84.3041C68.1837 86.5132 66.3929 88.3041 64.1837 88.3041H63.9129M63.9129 88.3041H59.2538H53.8182M63.9129 88.3041V108.08H53.8182V88.3041M53.8182 88.3041V88.3041C52.3172 88.3041 51.1004 87.0873 51.1004 85.5863V81.3882" stroke="#7161BA" stroke-width="2"/>
<path d="M59.2549 88.3041H63.914V108.08H53.8193V88.3041H59.2549Z" fill="#7161BA" stroke="#7161BA" stroke-width="2"/>
<path d="M39.8418 63.7149H53.0425" stroke="#7161BA" stroke-width="2" stroke-linecap="round"/>
<path d="M39.8418 68.3253H53.0425" stroke="#7161BA" stroke-width="2" stroke-linecap="round"/>
<path d="M39.8418 72.9357H53.0425" stroke="#7161BA" stroke-width="2" stroke-linecap="round"/>
<path d="M68.5723 61.793C73.749 61.2807 82.1612 59.7182 88.3733 56.0297M91.8676 54.4929L94.5854 52.956" stroke="#7161BA" stroke-width="2" stroke-linecap="round"/>
<mask id="path-12-inside-1_107_438" fill="white">
<path d="M106.233 79.083C108.807 79.083 111.276 78.071 113.096 76.2696C114.917 74.4683 115.939 72.0251 115.939 69.4776C115.939 66.93 114.917 64.4869 113.096 62.6855C111.276 60.8841 108.807 59.8721 106.233 59.8721L106.233 69.4776V79.083Z"/>
</mask>
<path d="M106.233 79.083C108.807 79.083 111.276 78.071 113.096 76.2696C114.917 74.4683 115.939 72.0251 115.939 69.4776C115.939 66.93 114.917 64.4869 113.096 62.6855C111.276 60.8841 108.807 59.8721 106.233 59.8721L106.233 69.4776V79.083Z" fill="#7161BA" stroke="#7161BA" stroke-width="4" mask="url(#path-12-inside-1_107_438)"/>
<path d="M121.375 57.1825L129.917 51.035L131.47 54.8772L138.847 47.577M127.199 67.1721H137.682L136.517 71.0143L147 69.8616M121.375 80.2355L129.917 85.9988L127.199 88.3041L137.682 92.5305" stroke="#7161BA" stroke-width="2" stroke-linecap="round"/>
<path d="M30.6696 134.321L21.981 134.321L21.981 114.795L29.4284 114.795C29.4284 114.795 29.4972 112.063 31.4444 108.797C33.3917 105.531 35.339 104.878 35.339 104.878L35.339 95.9143C35.339 95.8731 35.3415 95.8324 35.3477 95.7917C35.4374 95.2086 36.2772 90.6268 40.5318 90.6268C45.0754 90.6268 45.7245 95.8525 45.7245 95.8525L45.7245 108.45L69.7644 108.45C69.7644 108.45 72.8674 108.45 72.8674 112.551C72.8674 116.653 69.7644 116.653 69.7644 116.653L69.768 116.653C69.768 116.653 72.8711 116.653 72.8711 120.439C72.8711 124.225 69.768 124.225 69.768 124.225C69.768 124.225 72.8711 124.225 72.8711 128.011C72.8711 131.797 69.768 131.797 69.768 131.797C69.768 131.797 72.8711 131.797 72.8711 135.898C72.8711 140 69.768 140 69.768 140L41.22 140C34.2692 140 31.2902 136.214 30.6696 134.321Z" fill="#E3E1F1"/>
<path d="M69.768 131.797L60.4589 131.797M69.768 131.797C69.768 131.797 72.8711 131.797 72.8711 135.898C72.8711 140 69.768 140 69.768 140C63.1482 140 48.1708 140 41.22 140C34.2692 140 31.2902 136.214 30.6696 134.321L21.981 134.321L21.9811 114.795L29.4284 114.795C29.4284 114.795 29.4972 112.063 31.4444 108.797C33.3917 105.531 35.339 104.878 35.339 104.878L35.339 95.9143C35.339 95.8731 35.3415 95.8324 35.3477 95.7917C35.4374 95.2086 36.2772 90.6268 40.5318 90.6268C45.0754 90.6268 45.7245 95.8525 45.7245 95.8525L45.7245 108.45L69.7644 108.45C69.7644 108.45 72.8674 108.45 72.8674 112.551C72.8674 116.653 69.7644 116.653 69.7644 116.653L69.768 116.653M69.768 131.797C69.768 131.797 72.8711 131.797 72.8711 128.011C72.8711 124.225 69.768 124.225 69.768 124.225M69.768 124.225L60.4589 124.225M69.768 124.225C69.768 124.225 72.8711 124.225 72.8711 120.439C72.8711 116.653 69.768 116.653 69.768 116.653M69.768 116.653L56.1146 116.653" stroke="#7161BA" stroke-width="2" stroke-linecap="round"/>
</svg>
