<svg width="160" height="160" viewBox="0 0 160 160" fill="none" xmlns="http://www.w3.org/2000/svg">
<ellipse cx="80" cy="140.171" rx="80" ry="19.829" fill="#E3E1F1"/>
<ellipse cx="80" cy="92.0263" rx="44" ry="44.4962" fill="#E3E1F1"/>
<path d="M106.835 46.5188C121.927 55.8127 132 72.5715 132 91.7014C132 120.924 108.495 144.613 79.5 144.613C50.5051 144.613 27 120.924 27 91.7014C27 72.5715 37.0731 55.8127 52.1653 46.5188" stroke="#7161BA" stroke-width="2" stroke-linecap="round"/>
<path fill-rule="evenodd" clip-rule="evenodd" d="M122.017 122.675C112.475 135.969 96.986 144.614 79.5 144.614C62.0141 144.614 46.5248 135.969 36.9834 122.675L122.017 122.675ZM56.5039 126.939C55.9516 126.939 55.5039 127.387 55.5039 127.939C55.5039 128.491 55.9516 128.939 56.5039 128.939H78.1981C78.7504 128.939 79.1981 128.491 79.1981 127.939C79.1981 127.387 78.7504 126.939 78.1981 126.939H56.5039ZM101.628 132.204C102.18 132.204 102.628 132.652 102.628 133.204C102.628 133.756 102.18 134.204 101.628 134.204H79.9334C79.3811 134.204 78.9334 133.756 78.9334 133.204C78.9334 132.652 79.3811 132.204 79.9334 132.204H101.628ZM80.6689 127.939C80.6689 127.387 81.1166 126.939 81.6689 126.939H87.7432C88.2955 126.939 88.7432 127.387 88.7432 127.939C88.7432 128.491 88.2955 128.939 87.7432 128.939H81.6689C81.1166 128.939 80.6689 128.491 80.6689 127.939ZM76.4627 132.204C77.015 132.204 77.4627 132.652 77.4627 133.204C77.4627 133.756 77.015 134.204 76.4627 134.204H70.3883C69.836 134.204 69.3883 133.756 69.3883 133.204C69.3883 132.652 69.836 132.204 70.3883 132.204H76.4627Z" fill="#7161BA"/>
<rect x="60" y="28.3158" width="39" height="79.8909" rx="5" fill="#E3E1F1"/>
<rect x="58" y="25.2707" width="43" height="91.0375" rx="6" stroke="#7161BA" stroke-width="2"/>
<path d="M75 31.3496H84" stroke="#7161BA" stroke-width="2" stroke-linecap="round"/>
<ellipse cx="101" cy="69.7782" rx="9" ry="9.1015" fill="#7161BA"/>
<path d="M84.347 115.672V122.365H102.701V116.628C102.701 116.628 106.565 116.15 108.497 114.238C110.429 112.325 109.946 107.545 109.946 107.545V88.9444C109.946 88.3921 109.497 87.9506 108.952 88.0379C108.268 88.1474 107.347 88.3849 106.565 88.9005C105.116 89.8566 104.15 91.2908 104.15 91.2908V72.1685C104.15 72.1685 104.15 69.7782 101.011 69.7782C97.8712 69.7782 97.8712 72.1685 97.8712 72.1685V85.5541C97.8712 85.5541 97.8712 83.1638 94.9732 83.1638C92.0751 83.1638 92.0751 85.5541 92.0751 85.5541C92.0751 85.5541 92.0751 83.1638 89.1771 83.1638C86.2791 83.1638 86.2791 85.5541 86.2791 85.5541C86.2791 85.5541 86.2791 83.1638 83.1395 83.1638C80 83.1638 80 85.5541 80 85.5541V107.545C80 112.899 82.898 115.194 84.347 115.672Z" fill="#E3E1F1"/>
<path d="M86.2791 85.5541V92.725M86.2791 85.5541C86.2791 85.5541 86.2791 83.1638 83.1395 83.1638C80 83.1638 80 85.5541 80 85.5541C80 90.6534 80 102.191 80 107.545C80 112.899 82.898 115.194 84.347 115.672V122.365H102.701V116.628C102.701 116.628 106.565 116.15 108.497 114.238C110.429 112.325 109.946 107.545 109.946 107.545V88.9444C109.946 88.3921 109.497 87.9506 108.952 88.0379C108.268 88.1474 107.347 88.3849 106.565 88.9005C105.116 89.8566 104.15 91.2908 104.15 91.2908M86.2791 85.5541C86.2791 85.5541 86.2791 83.1638 89.1771 83.1638C92.0751 83.1638 92.0751 85.5541 92.0751 85.5541M92.0751 85.5541V92.725M92.0751 85.5541C92.0751 85.5541 92.0751 83.1638 94.9732 83.1638C97.8712 83.1638 97.8712 85.5541 97.8712 85.5541M97.8712 85.5541V96.0714M97.8712 85.5541V72.1685C97.8712 72.1685 97.8712 69.7782 101.011 69.7782C104.15 69.7782 104.15 72.1685 104.15 72.1685V91.2908M104.15 99.4178V91.2908" stroke="#7161BA" stroke-width="2" stroke-linecap="round"/>
<path d="M50 18.7086C50 28.4995 42.1544 36.4173 32.5 36.4173C22.8456 36.4173 15 28.4995 15 18.7086C15 8.91782 22.8456 1 32.5 1C42.1544 1 50 8.91782 50 18.7086Z" stroke="#7161BA" stroke-width="2"/>
<path d="M28.4336 11.3001C25.8311 10.2473 23 12.1849 23 15.0203V15.2138C23 18.6871 24.6172 21.958 27.3652 24.0418L33 28.316L38.6348 24.0418C41.3828 21.958 43 18.6871 43 15.2138V15.0203C43 12.1849 40.1689 10.2473 37.5664 11.3001C34.8086 12.415 33 15.1161 33 18.1203C33 15.1161 31.1914 12.415 28.4336 11.3001Z" fill="#7161BA"/>
</svg>
