<svg width="196" height="196" viewBox="0 0 196 196" fill="none" xmlns="http://www.w3.org/2000/svg">
<path d="M115.384 122.595L111.259 126.72C111.259 126.72 111.259 126.72 111.259 126.72C108.665 129.314 105.139 130.759 101.472 130.73C100.847 130.725 100.227 130.678 99.6152 130.59V173.308C99.6152 173.69 99.9253 174 100.308 174H114.692C114.862 174 115.015 173.94 115.136 173.839L115.384 122.595ZM115.384 122.595V173.308C115.384 173.424 115.357 173.53 115.309 173.624L115.308 173.626C115.3 173.64 115.289 173.659 115.273 173.685C115.235 173.742 115.19 173.793 115.137 173.838L115.384 122.595ZM45.7868 138.038L49.3845 134.361V173.308C49.3845 173.69 49.0744 174 48.6922 174H34.3075C33.9253 174 33.6152 173.69 33.6152 173.308V141.946C37.9134 142.702 42.5015 141.395 45.7867 138.038L45.7868 138.038ZM91.747 126.57L92.4649 125.874L91.747 126.57C92.2571 127.096 92.8051 127.577 93.3845 128.01V173.308C93.3845 173.69 93.0744 174 92.6922 174H78.3075C77.9253 174 77.6152 173.69 77.6152 173.308V111.997L91.747 126.57ZM55.6152 173.308V127.993L71.3845 111.877V173.308C71.3845 173.69 71.0744 174 70.6922 174H56.3075C55.9253 174 55.6152 173.69 55.6152 173.308ZM121.615 173.308V116.364L137.384 100.595V173.308C137.384 173.69 137.074 174 136.692 174H122.308C121.925 174 121.615 173.69 121.615 173.308ZM143.615 173.308V94.3637L151.657 86.3216L159.384 93.8402V173.308C159.384 173.69 159.074 174 158.692 174H144.308C143.925 174 143.615 173.69 143.615 173.308Z" stroke="#AAA5D4" stroke-width="2"/>
<path d="M143.027 68.103L143.744 67.3861L143.018 66.6792L137.837 61.6382C137.285 61.1014 137.522 60.1686 138.262 59.9592L165.194 52.3471C165.934 52.1377 166.624 52.8088 166.435 53.555L159.562 80.6842C159.373 81.4305 158.447 81.6922 157.895 81.1553L153.052 76.4434L152.345 75.7555L151.648 76.453L105.82 122.281C104.683 123.418 103.138 124.051 101.531 124.038C99.9235 124.026 98.3884 123.369 97.2695 122.216L75.1953 99.4515L74.4806 98.7145L73.7626 99.4482L40.2885 133.658C37.971 136.026 34.1722 136.068 31.8037 133.75C29.4353 131.433 29.394 127.634 31.7115 125.265L70.2115 85.9193C71.3435 84.7624 72.8949 84.1119 74.5135 84.1156C76.1321 84.1193 77.6806 84.7767 78.8074 85.9387L100.936 108.759L101.643 109.488L102.361 108.77L143.027 68.103Z" stroke="#AAA5D4" stroke-width="2"/>
<circle cx="98.6149" cy="49.7692" r="27.7692" stroke="#AAA5D4" stroke-width="2"/>
<path d="M99.4611 35.717C95.2552 35.717 91.8457 38.8424 91.8457 42.6978C91.8457 46.5532 95.2552 49.0137 99.4611 49.0137C103.667 49.0137 107.076 52.1391 107.076 55.9945C107.076 59.8499 103.667 62.9753 99.4611 62.9753M99.4611 35.717C103.667 35.717 107.076 38.8424 107.076 42.6978M99.4611 35.717V32M91.8457 55.9945C91.8457 59.8499 95.2552 62.9753 99.4611 62.9753M99.4611 62.9753V66.6923" stroke="#AAA5D4" stroke-width="2" stroke-linecap="round"/>
</svg>
