<svg width="196" height="196" viewBox="0 0 196 196" fill="none" xmlns="http://www.w3.org/2000/svg">
<path d="M76.6152 110.529L92.4649 126.874C93.0541 127.482 93.6978 128.024 94.3845 128.496V174.308C94.3845 175.242 93.6267 176 92.6922 176H78.3075C77.373 176 76.6152 175.242 76.6152 174.308V110.529Z" fill="#F5F5F7"/>
<path d="M54.6152 128.585L72.3845 110.425V174.308C72.3845 175.242 71.6267 176 70.6922 176H56.3075C55.373 176 54.6152 175.242 54.6152 174.308V128.585Z" fill="#F5F5F7"/>
<path d="M32.6152 141.697C36.922 142.884 41.7263 141.757 45.072 138.338L50.3845 132.909V174.308C50.3845 175.242 49.6267 176 48.6922 176H34.3075C33.373 176 32.6152 175.242 32.6152 174.308V141.697Z" fill="#F5F5F7"/>
<path d="M98.6152 130.381C99.5457 130.604 100.507 130.723 101.479 130.73C104.879 130.757 108.148 129.417 110.551 127.013L116.384 121.18V174.308C116.384 174.586 116.318 174.848 116.199 175.08C116.172 175.132 116.142 175.182 116.111 175.231C116.019 175.371 115.908 175.496 115.78 175.604C115.486 175.851 115.107 176 114.692 176H100.308C99.373 176 98.6152 175.242 98.6152 174.308V130.381Z" fill="#F5F5F7"/>
<path d="M120.615 116.95V174.308C120.615 175.242 121.373 176 122.308 176H136.692C137.627 176 138.384 175.242 138.384 174.308V99.1803L120.615 116.95Z" fill="#F5F5F7"/>
<path d="M142.615 94.9495V174.308C142.615 175.242 143.373 176 144.308 176H158.692C159.627 176 160.384 175.242 160.384 174.308V94.418L151.648 85.917L142.615 94.9495Z" fill="#F5F5F7"/>
<path d="M167.404 53.8006C167.783 52.3081 166.403 50.966 164.922 51.3848L137.99 58.9969C136.509 59.4157 136.036 61.2812 137.14 62.3549L142.32 67.3959L101.654 108.062L79.5253 85.2426C78.2107 83.8869 76.4042 83.1199 74.5158 83.1156C72.6274 83.1113 70.8174 83.8702 69.4967 85.2199L30.9967 124.566C28.293 127.329 28.3411 131.761 31.1043 134.465C33.8676 137.169 38.2995 137.121 41.0033 134.357L74.4774 100.148L96.5516 122.912C97.857 124.258 99.648 125.024 101.523 125.038C103.398 125.053 105.201 124.314 106.527 122.988L152.355 77.1601L157.198 81.872C158.301 82.9457 160.153 82.4223 160.531 80.9298L167.404 53.8006Z" fill="#F5F5F7"/>
<path fill-rule="evenodd" clip-rule="evenodd" d="M98.6149 79.5385C114.504 79.5385 127.384 66.658 127.384 50.7692C127.384 34.8804 114.504 22 98.6149 22C82.7261 22 69.8457 34.8804 69.8457 50.7692C69.8457 66.658 82.7261 79.5385 98.6149 79.5385ZM101.961 33C101.961 31.6193 100.841 30.5 99.4608 30.5C98.0801 30.5 96.9608 31.6193 96.9608 33V34.5131C92.6965 35.5383 89.3454 39.1258 89.3454 43.6978C89.3454 49.4356 94.4362 52.5137 99.4608 52.5137C102.495 52.5137 104.576 54.7202 104.576 56.9945C104.576 59.2688 102.495 61.4753 99.4608 61.4753C96.4264 61.4753 94.3454 59.2688 94.3454 56.9945C94.3454 55.6138 93.2261 54.4945 91.8454 54.4945C90.4647 54.4945 89.3454 55.6138 89.3454 56.9945C89.3454 61.5665 92.6965 65.154 96.9608 66.1792V67.6923C96.9608 69.073 98.0801 70.1923 99.4608 70.1923C100.841 70.1923 101.961 69.073 101.961 67.6923V66.1792C106.225 65.154 109.576 61.5665 109.576 56.9945C109.576 51.5581 104.838 47.5137 99.4608 47.5137C96.0737 47.5137 94.3454 45.6707 94.3454 43.6978C94.3454 41.4235 96.4264 39.217 99.4608 39.217C102.495 39.217 104.576 41.4235 104.576 43.6978C104.576 45.0785 105.695 46.1978 107.076 46.1978C108.457 46.1978 109.576 45.0785 109.576 43.6978C109.576 39.1258 106.225 35.5383 101.961 34.5131V33Z" fill="#F5F5F7"/>
</svg>
