<svg width="112" height="79" viewBox="0 0 112 79" fill="none" xmlns="http://www.w3.org/2000/svg">
<ellipse cx="56" cy="66" rx="56" ry="13" fill="#E3E1F1"/>
<path d="M27.191 35.006C27.5369 35.3439 29.0648 35.7098 29.7854 35.8506V45.2643C29.7854 47.4735 31.5763 49.2643 33.7854 49.2643H56.1352L80.2146 49.2643C82.4237 49.2642 84.2146 47.4734 84.2146 45.2643V35.8505C84.9352 35.7097 86.4631 35.3438 86.809 35.0059C87.0535 34.7671 87.0244 41.7787 86.9354 48.5945C86.8785 52.9533 83.3184 56.443 78.9593 56.443H67.8101L66.9453 61.088H69.6884C71.1897 61.088 72.5646 61.9287 73.2488 63.2651L75.161 66.9999L56.1352 67H38.839L40.7512 63.2652C41.4354 61.9288 42.8103 61.0881 44.3116 61.0881H47.0547L46.1899 56.4431H35.0407C30.6816 56.4431 27.1215 52.9534 27.0646 48.5946C26.9756 41.7788 26.9465 34.7673 27.191 35.006Z" fill="#E3E1F1"/>
<path d="M45.8334 61.8014L44.8563 56.5325H34.6296C30.2702 56.5325 26.7108 53.043 26.6506 48.684C26.5396 40.6402 26.4904 31.9334 26.7793 32.2166C27.1701 32.5998 28.8964 33.0149 29.7107 33.1745V44.3897C29.7107 46.5988 31.5016 48.3897 33.7107 48.3897H56.0934L80.4303 48.3896C82.6395 48.3896 84.4303 46.5987 84.4303 44.3896V33.1744C85.2446 33.0148 86.9709 32.5996 87.3617 32.2164C87.6506 31.9333 87.6015 40.6401 87.4904 48.6839C87.4302 53.0429 83.8708 56.5324 79.5114 56.5324H69.2848L68.3076 61.8013M45.8334 61.8014H42.4207C40.9171 61.8014 39.5405 62.6446 38.8574 63.984L36.5505 68.5072H56.0934L77.5905 68.5071L75.2837 63.9839C74.6005 62.6445 73.2239 61.8013 71.7203 61.8013H68.3076M45.8334 61.8014H49.5M54.5 61.8013H68.3076" stroke="#7161BA" stroke-width="2" stroke-linecap="round" stroke-linejoin="round"/>
<circle cx="41.979" cy="4.71118" r="1.5" fill="#7161BA"/>
<ellipse cx="46.979" cy="4.66573" rx="1.5" ry="1.45455" fill="#7161BA"/>
<circle cx="51.979" cy="4.71118" r="1.5" fill="#7161BA"/>
<path d="M40 16C40 13.7909 41.7909 12 44 12H68C70.2091 12 72 13.7909 72 16V17.6543V33.5C72 35.7091 70.2091 37.5 68 37.5H44C41.7909 37.5 40 35.7091 40 33.5V17.6543V16Z" fill="#E3E1F1"/>
<circle cx="48" cy="16" r="1" fill="#7161BA"/>
<circle cx="51.2109" cy="16" r="1" fill="#7161BA"/>
<rect x="44" y="13" width="24" height="6" rx="2" stroke="#7161BA" stroke-width="2"/>
<circle cx="48" cy="26" r="1" fill="#7161BA"/>
<circle cx="51.2109" cy="26" r="1" fill="#7161BA"/>
<rect x="44" y="23" width="24" height="6" rx="2" stroke="#7161BA" stroke-width="2"/>
<rect x="50" y="32" width="11.9155" height="3.18993" rx="1.59496" stroke="#7161BA" stroke-width="2"/>
<path d="M56 20V22" stroke="#7161BA" stroke-width="2" stroke-linecap="round" stroke-linejoin="round"/>
<path d="M56 30V31" stroke="#7161BA" stroke-width="2" stroke-linecap="round" stroke-linejoin="round"/>
<path d="M34 29H29C25.6863 29 23 26.3137 23 23V13" stroke="#7161BA" stroke-width="2" stroke-linecap="round" stroke-linejoin="round"/>
<circle cx="23" cy="9" r="3" stroke="#7161BA" stroke-width="2"/>
<path d="M37.1973 4C37.1973 2.34315 38.5404 1 40.1973 1H71.8029C73.4597 1 74.8029 2.34315 74.8029 4V8.5V37.5954C74.8029 39.2522 73.4598 40.5954 71.8029 40.5954H40.1973C38.5404 40.5954 37.1973 39.2522 37.1973 37.5954V8.5V4Z" stroke="#7161BA" stroke-width="2" stroke-linecap="round"/>
<path d="M78 29H83C86.3137 29 89 26.3137 89 23V13" stroke="#7161BA" stroke-width="2" stroke-linecap="round" stroke-linejoin="round"/>
<circle r="3" transform="matrix(-1 0 0 1 89 9)" stroke="#7161BA" stroke-width="2"/>
<path d="M58.7463 53.9753C58.7463 55.114 57.7855 56.0892 56.535 56.0892C55.2845 56.0892 54.3237 55.114 54.3237 53.9753C54.3237 52.8366 55.2845 51.8613 56.535 51.8613C57.7855 51.8613 58.7463 52.8366 58.7463 53.9753Z" stroke="#7161BA" stroke-width="2"/>
</svg>
