<svg width="112" height="80" viewBox="0 0 112 80" fill="none" xmlns="http://www.w3.org/2000/svg">
<ellipse cx="56" cy="66.0259" rx="56" ry="13" fill="#E3E1F1"/>
<path d="M63.2468 44.6684C62.6168 41.242 59.6118 38.6458 55.9999 38.6458C52.3879 38.6458 49.3829 41.242 48.7529 44.6684C50.6104 45.4492 54.6601 45.6722 55.9999 42.9955C57.3396 45.6722 61.3894 45.4492 63.2468 44.6684Z" fill="#E3E1F1"/>
<path d="M65.1313 46.0067C65.1313 51.0434 61.0439 55.1282 55.9997 55.1282C50.9556 55.1282 46.8682 51.0434 46.8682 46.0067C46.8682 45.4392 46.9199 44.8847 47.0187 44.3473C47.7992 40.1027 51.5238 36.8853 55.9997 36.8853C61.0439 36.8853 65.1313 40.97 65.1313 46.0067Z" stroke="#7161BA" stroke-width="2"/>
<path d="M46.4246 60.6369H49.9257L54.5681 65.3956C55.3529 66.2001 56.6464 66.2001 57.4313 65.3956L62.0737 60.6369H65.5748C67.205 60.6369 68.6721 61.6262 69.2832 63.1375L70.5458 66.2604C71.0774 67.5751 70.1098 69.0101 68.6916 69.0101H55.9997H43.3077C41.8896 69.0101 40.922 67.5751 41.4536 66.2604L42.7162 63.1375C43.3273 61.6262 44.7944 60.6369 46.4246 60.6369Z" fill="#E3E1F1"/>
<path d="M51.3951 54.748V58.8887M51.3951 58.8887H45.4008C43.7415 58.8887 42.2545 59.9131 41.6633 61.4634L39.9953 65.8374C39.4961 67.1466 40.463 68.5501 41.8641 68.5501H56.0004H70.1367C71.5379 68.5501 72.5047 67.1466 72.0055 65.8374L70.3375 61.4634C69.7463 59.9131 68.2593 58.8887 66.6 58.8887H60.6057M51.3951 58.8887L56.0004 63.9494L60.6057 58.8887M60.6057 54.748V58.8887" stroke="#7161BA" stroke-width="2" stroke-linecap="round" stroke-linejoin="round"/>
<rect x="23.7627" y="8.28125" width="22.1053" height="19.3228" rx="2" fill="#E3E1F1"/>
<path d="M29.2891 15.6423H34.8154" stroke="#7161BA" stroke-width="2" stroke-linecap="round" stroke-linejoin="round"/>
<path d="M29.2891 21.1631H39.4206" stroke="#7161BA" stroke-width="2" stroke-linecap="round" stroke-linejoin="round"/>
<ellipse cx="39.4211" cy="15.6423" rx="0.921053" ry="0.920134" fill="#7161BA"/>
<rect x="65.2109" y="8.28125" width="22.1053" height="19.3228" rx="2" fill="#E3E1F1"/>
<path d="M40.8026 30.2845H39.3927L39.8589 31.6151L41.836 37.2585L34.09 30.5295L33.8079 30.2845H33.4342H25C23.3431 30.2845 22 28.9413 22 27.2845V8.60058C22 6.94373 23.3431 5.60059 25 5.60059H44.6316C46.2884 5.60059 47.6316 6.94373 47.6316 8.60059V27.2845C47.6316 28.9413 46.2884 30.2845 44.6316 30.2845H40.8026ZM72.1411 31.6151L72.6073 30.2845H71.1974H67.3684C65.7116 30.2845 64.3684 28.9413 64.3684 27.2845V8.60059C64.3684 6.94373 65.7116 5.60059 67.3684 5.60059H87C88.6569 5.60059 90 6.94373 90 8.60058V27.2845C90 28.9413 88.6569 30.2845 87 30.2845H78.5658H78.1921L77.91 30.5295L70.164 37.2585L72.1411 31.6151Z" stroke="#7161BA" stroke-width="2"/>
<path d="M77.8503 15.8684L78.0749 16.5591H78.8013L82.4129 16.5591L79.4919 18.6793L78.9034 19.1064L79.1283 19.7979L80.2446 23.23L77.3208 21.1078L76.7334 20.6815L76.146 21.1078L73.2221 23.23L74.3384 19.7979L74.5633 19.1064L73.9748 18.6793L71.0538 16.5591L74.6655 16.5591H75.3918L75.6164 15.8684L76.7334 12.4343L77.8503 15.8684Z" stroke="#7161BA" stroke-width="2"/>
<path d="M60.6054 26.604H60.0911L59.792 27.0224L56.0938 32.1946L53.184 27.1075L52.896 26.604H52.316H44.3423C42.6854 26.604 41.3423 25.2609 41.3423 23.604V4C41.3423 2.34315 42.6854 1 44.3423 1H67.6581C69.3149 1 70.6581 2.34315 70.6581 4V23.604C70.6581 25.2609 69.3149 26.604 67.6581 26.604H60.6054Z" fill="#E3E1F1" stroke="#7161BA" stroke-width="2"/>
<path d="M44.9473 5.52075H49.092L52.7762 16.5624H61.5262L64.2894 8.74122H55.0788" stroke="#7161BA" stroke-width="2" stroke-linecap="round" stroke-linejoin="round"/>
<ellipse cx="53.697" cy="20.703" rx="1.38158" ry="1.3802" fill="#7161BA"/>
<ellipse cx="60.1443" cy="20.703" rx="1.38158" ry="1.3802" fill="#7161BA"/>
</svg>
