<svg width="112" height="74" viewBox="0 0 112 74" fill="none" xmlns="http://www.w3.org/2000/svg">
<ellipse cx="56" cy="61" rx="56" ry="13" fill="#E3E1F1"/>
<path fill-rule="evenodd" clip-rule="evenodd" d="M90 17H22V54C22 57.866 25.134 61 29 61H83C86.866 61 90 57.866 90 54V17ZM31.4814 20.5432C29.2723 20.5432 27.4814 22.3341 27.4814 24.5432V33.1358C27.4814 35.3449 29.2723 37.1358 31.4814 37.1358H40.074C42.2832 37.1358 44.074 35.3449 44.074 33.1358V24.5432C44.074 22.3341 42.2832 20.5432 40.074 20.5432H31.4814ZM48.0249 24.5432C48.0249 22.3341 49.8158 20.5432 52.0249 20.5432H60.6175C62.8266 20.5432 64.6175 22.3341 64.6175 24.5432V33.1358C64.6175 35.3449 62.8266 37.1358 60.6175 37.1358H52.0249C49.8158 37.1358 48.0249 35.3449 48.0249 33.1358V24.5432ZM72.5679 20.5432C70.3587 20.5432 68.5679 22.3341 68.5679 24.5432V33.1358C68.5679 35.3449 70.3587 37.1358 72.5679 37.1358H81.1605C83.3696 37.1358 85.1605 35.3449 85.1605 33.1358V24.5432C85.1605 22.3341 83.3696 20.5432 81.1605 20.5432H72.5679Z" fill="#E3E1F1"/>
<path fill-rule="evenodd" clip-rule="evenodd" d="M68.5677 8.29623C68.5677 10.2599 66.9759 11.8518 65.0122 11.8518C63.0485 11.8518 61.4566 10.2599 61.4566 8.29623C61.4566 6.33255 63.0485 4.74067 65.0122 4.74067C66.9759 4.74067 68.5677 6.33255 68.5677 8.29623ZM66.5677 8.29623C66.5677 9.15534 65.8713 9.85178 65.0122 9.85178C64.1531 9.85178 63.4566 9.15534 63.4566 8.29623C63.4566 7.43712 64.1531 6.74067 65.0122 6.74067C65.8713 6.74067 66.5677 7.43712 66.5677 8.29623Z" fill="#7161BA"/>
<path fill-rule="evenodd" clip-rule="evenodd" d="M73.7039 11.8518C75.6676 11.8518 77.2594 10.2599 77.2594 8.29623C77.2594 6.33255 75.6676 4.74067 73.7039 4.74067C71.7402 4.74067 70.1483 6.33255 70.1483 8.29623C70.1483 10.2599 71.7402 11.8518 73.7039 11.8518ZM73.7039 9.85178C74.563 9.85178 75.2594 9.15534 75.2594 8.29623C75.2594 7.43712 74.563 6.74067 73.7039 6.74067C72.8448 6.74067 72.1483 7.43712 72.1483 8.29623C72.1483 9.15534 72.8448 9.85178 73.7039 9.85178Z" fill="#7161BA"/>
<path fill-rule="evenodd" clip-rule="evenodd" d="M85.9507 8.29623C85.9507 10.2599 84.3588 11.8518 82.3951 11.8518C80.4314 11.8518 78.8396 10.2599 78.8396 8.29623C78.8396 6.33255 80.4314 4.74067 82.3951 4.74067C84.3588 4.74067 85.9507 6.33255 85.9507 8.29623ZM83.9507 8.29623C83.9507 9.15534 83.2542 9.85178 82.3951 9.85178C81.536 9.85178 80.8396 9.15534 80.8396 8.29623C80.8396 7.43712 81.536 6.74067 82.3951 6.74067C83.2542 6.74067 83.9507 7.43712 83.9507 8.29623Z" fill="#7161BA"/>
<path fill-rule="evenodd" clip-rule="evenodd" d="M31.4813 20.5431C29.2722 20.5431 27.4813 22.334 27.4813 24.5431V33.1357C27.4813 35.3449 29.2722 37.1357 31.4813 37.1357H40.0739C42.2831 37.1357 44.0739 35.3449 44.0739 33.1357V24.5431C44.0739 22.334 42.2831 20.5431 40.0739 20.5431H31.4813ZM40.0739 22.5431H31.4813C30.3768 22.5431 29.4813 23.4386 29.4813 24.5431V33.1357C29.4813 34.2403 30.3768 35.1357 31.4813 35.1357H40.0739C41.1785 35.1357 42.0739 34.2403 42.0739 33.1357V24.5431C42.0739 23.4386 41.1785 22.5431 40.0739 22.5431Z" fill="#7161BA"/>
<path fill-rule="evenodd" clip-rule="evenodd" d="M48.0247 24.5431C48.0247 22.334 49.8156 20.5431 52.0247 20.5431H60.6173C62.8265 20.5431 64.6173 22.334 64.6173 24.5431V33.1357C64.6173 35.3449 62.8265 37.1357 60.6173 37.1357H52.0247C49.8156 37.1357 48.0247 35.3449 48.0247 33.1357V24.5431ZM52.0247 22.5431H60.6173C61.7219 22.5431 62.6173 23.4386 62.6173 24.5431V33.1357C62.6173 34.2403 61.7219 35.1357 60.6173 35.1357H52.0247C50.9202 35.1357 50.0247 34.2403 50.0247 33.1357V24.5431C50.0247 23.4386 50.9202 22.5431 52.0247 22.5431Z" fill="#7161BA"/>
<path fill-rule="evenodd" clip-rule="evenodd" d="M72.5681 20.5431C70.359 20.5431 68.5681 22.334 68.5681 24.5431V33.1357C68.5681 35.3449 70.359 37.1357 72.5681 37.1357H81.1607C83.3698 37.1357 85.1607 35.3449 85.1607 33.1357V24.5431C85.1607 22.334 83.3698 20.5431 81.1607 20.5431H72.5681ZM81.1607 22.5431H72.5681C71.4635 22.5431 70.5681 23.4386 70.5681 24.5431V33.1357C70.5681 34.2403 71.4635 35.1357 72.5681 35.1357H81.1607C82.2653 35.1357 83.1607 34.2403 83.1607 33.1357V24.5431C83.1607 23.4386 82.2653 22.5431 81.1607 22.5431Z" fill="#7161BA"/>
<path d="M32.222 43.247C31.6697 43.247 31.222 43.6947 31.222 44.247C31.222 44.7993 31.6697 45.247 32.222 45.247L83.58 45.247C84.1323 45.247 84.58 44.7993 84.58 44.247C84.58 43.6947 84.1323 43.247 83.58 43.247L32.222 43.247Z" fill="#7161BA"/>
<path d="M28.0616 49.7778C28.0616 49.2255 28.5093 48.7778 29.0616 48.7778H63.0369C63.5892 48.7778 64.0369 49.2255 64.0369 49.7778C64.0369 50.33 63.5892 50.7778 63.0369 50.7778H29.0616C28.5093 50.7778 28.0616 50.33 28.0616 49.7778Z" fill="#7161BA"/>
<path d="M38.5434 54.3085C37.9911 54.3085 37.5434 54.7563 37.5434 55.3085C37.5434 55.8608 37.9911 56.3085 38.5434 56.3085L79.6298 56.3085C80.1821 56.3085 80.6298 55.8608 80.6298 55.3085C80.6298 54.7563 80.1821 54.3085 79.6298 54.3085L38.5434 54.3085Z" fill="#7161BA"/>
<path fill-rule="evenodd" clip-rule="evenodd" d="M94 10V54.125C94 59.6478 89.5229 64.125 84 64.125H28C22.4772 64.125 18 59.6479 18 54.125V10C18 4.47715 22.4772 0 28 0H84C89.5229 0 94 4.47715 94 10ZM35.0208 13.6458C34.4685 13.6458 34.0208 14.0935 34.0208 14.6458C34.0208 15.1981 34.4685 15.6458 35.0208 15.6458H92V54.125C92 58.5433 88.4183 62.125 84 62.125H28C23.5817 62.125 20 58.5433 20 54.125V15.6458H26.7083C27.2606 15.6458 27.7083 15.1981 27.7083 14.6458C27.7083 14.0935 27.2606 13.6458 26.7083 13.6458H20V10C20 5.58172 23.5817 2 28 2H84C88.4183 2 92 5.58172 92 10V13.6458H35.0208Z" fill="#7161BA"/>
</svg>
