<svg width="41" height="40" viewBox="0 0 41 40" fill="none" xmlns="http://www.w3.org/2000/svg">
<path d="M16.5001 22.5571L19.7347 25.8928C19.855 26.0168 19.9863 26.1274 20.1265 26.2238V35.5731C20.1265 35.7638 19.9718 35.9184 19.7811 35.9184H16.8455C16.6547 35.9184 16.5001 35.7638 16.5001 35.5731V22.5571Z" fill="#7161BA"/>
<path d="M12.0103 26.242L15.6367 22.5358V35.5731C15.6367 35.7638 15.482 35.9184 15.2913 35.9184H12.3557C12.1649 35.9184 12.0103 35.7638 12.0103 35.5731V26.242Z" fill="#7161BA"/>
<path d="M7.52051 28.9178C8.39944 29.1601 9.3799 28.9301 10.0627 28.2324L11.1469 27.1244V35.5731C11.1469 35.7638 10.9922 35.9184 10.8015 35.9184H7.86588C7.67515 35.9184 7.52051 35.7638 7.52051 35.5731V28.9178Z" fill="#7161BA"/>
<path d="M20.9899 26.6084C21.1798 26.6539 21.3759 26.6782 21.5744 26.6797C22.2682 26.6851 22.9353 26.4118 23.4259 25.9212L24.6163 24.7308V35.5731C24.6163 35.6299 24.6026 35.6835 24.5783 35.7308C24.5729 35.7413 24.5669 35.7516 24.5605 35.7615C24.5417 35.7901 24.519 35.8157 24.493 35.8375C24.433 35.888 24.3556 35.9184 24.2709 35.9184H21.3353C21.1445 35.9184 20.9899 35.7638 20.9899 35.5731V26.6084Z" fill="#7161BA"/>
<path d="M25.4797 23.8673V35.5731C25.4797 35.7638 25.6343 35.9184 25.8251 35.9184H28.7607C28.9514 35.9184 29.1061 35.7638 29.1061 35.5731V20.241L25.4797 23.8673Z" fill="#7161BA"/>
<path d="M29.9695 19.3776V35.5731C29.9695 35.7638 30.1241 35.9184 30.3149 35.9184H33.2505C33.4412 35.9184 33.5959 35.7638 33.5959 35.5731V19.2691L31.8129 17.5342L29.9695 19.3776Z" fill="#7161BA"/>
<path d="M35.0285 10.9796C35.1057 10.675 34.8242 10.4011 34.5218 10.4865L29.0256 12.04C28.7233 12.1255 28.6268 12.5062 28.852 12.7253L29.9093 13.7541L21.61 22.0534L17.094 17.3963C16.8257 17.1196 16.457 16.9631 16.0717 16.9622C15.6863 16.9614 15.3169 17.1162 15.0474 17.3917L7.19021 25.4215C6.63842 25.9854 6.64825 26.8899 7.21217 27.4417C7.7761 27.9935 8.68056 27.9837 9.23236 27.4197L16.0638 20.4381L20.5688 25.0839C20.8352 25.3586 21.2007 25.515 21.5833 25.5179C21.966 25.5209 22.3339 25.3701 22.6045 25.0995L31.9572 15.7468L32.9455 16.7084C33.1707 16.9276 33.5486 16.8207 33.6258 16.5162L35.0285 10.9796Z" fill="#7161BA"/>
<path fill-rule="evenodd" clip-rule="evenodd" d="M20.9899 16.2323C24.2325 16.2323 26.8612 13.6036 26.8612 10.361C26.8612 7.1184 24.2325 4.48975 20.9899 4.48975C17.7473 4.48975 15.1187 7.1184 15.1187 10.361C15.1187 13.6036 17.7473 16.2323 20.9899 16.2323ZM21.6728 6.73464C21.6728 6.45287 21.4443 6.22444 21.1625 6.22444C20.8808 6.22444 20.6523 6.45287 20.6523 6.73464V7.04344C19.7821 7.25267 19.0982 7.9848 19.0982 8.91787C19.0982 10.0889 20.1371 10.717 21.1625 10.717C21.7818 10.717 22.2065 11.1673 22.2065 11.6315C22.2065 12.0956 21.7818 12.5459 21.1625 12.5459C20.5433 12.5459 20.1186 12.0956 20.1186 11.6315C20.1186 11.3497 19.8902 11.1213 19.6084 11.1213C19.3266 11.1213 19.0982 11.3497 19.0982 11.6315C19.0982 12.5645 19.7821 13.2967 20.6523 13.5059V13.8147C20.6523 14.0965 20.8808 14.3249 21.1625 14.3249C21.4443 14.3249 21.6728 14.0965 21.6728 13.8147V13.5059C22.543 13.2967 23.2269 12.5645 23.2269 11.6315C23.2269 10.522 22.26 9.69663 21.1625 9.69663C20.4713 9.69663 20.1186 9.3205 20.1186 8.91787C20.1186 8.45372 20.5433 8.00343 21.1625 8.00343C21.7818 8.00343 22.2065 8.45372 22.2065 8.91787C22.2065 9.19965 22.4349 9.42807 22.7167 9.42807C22.9985 9.42807 23.2269 9.19965 23.2269 8.91787C23.2269 7.9848 22.543 7.25267 21.6728 7.04344V6.73464Z" fill="#7161BA"/>
</svg>
