<svg width="41" height="40" viewBox="0 0 41 40" fill="none" xmlns="http://www.w3.org/2000/svg">
<path d="M23.9905 16.3761C24.7876 15.6592 26.5922 15.48 27.3949 15.48C28.1975 15.48 30.0021 15.6592 30.7992 16.3761C31.7956 17.2723 32.2108 18.3314 32.2108 19.7163C32.2108 20.8243 31.934 21.5358 31.7956 21.753C31.934 21.6444 32.2274 21.5575 32.2938 22.0789C32.3768 22.7306 32.2108 24.1971 31.7126 24.5229C31.314 24.7836 31.159 24.6316 31.1313 24.5229C31.1313 24.876 31.0483 25.7124 30.7161 26.2338C30.301 26.8855 29.9688 26.967 29.8858 27.2114C29.8028 27.4558 29.4706 28.5149 30.384 29.7369C31.2974 30.9589 34.2865 31.6107 35.1999 32.018C36.1133 32.4253 38.2721 33.3215 38.6873 34.2991C39.0194 35.0812 39.0471 35.5483 39.0194 35.6841H27.3949H15.7703C15.7426 35.5483 15.7703 35.0812 16.1025 34.2991C16.5176 33.3215 18.6765 32.4253 19.5898 32.018C20.5032 31.6107 23.4924 30.9589 24.4057 29.7369C25.3191 28.5149 24.987 27.4558 24.9039 27.2114C24.8209 26.967 24.4888 26.8855 24.0736 26.2338C23.7415 25.7124 23.6584 24.876 23.6584 24.5229C23.6307 24.6316 23.4757 24.7836 23.0772 24.5229C22.579 24.1971 22.4129 22.7306 22.4959 22.0789C22.5624 21.5575 22.8557 21.6444 22.9941 21.753C22.8557 21.5358 22.579 20.8243 22.579 19.7163C22.579 18.3314 22.9941 17.2723 23.9905 16.3761Z" fill="#7161BA"/>
<path fill-rule="evenodd" clip-rule="evenodd" d="M25.9958 8.47982C25.9958 10.9089 20.7811 12.8781 14.3485 12.8781C7.91584 12.8781 2.70117 10.9089 2.70117 8.47982C2.70117 6.05072 7.91584 4.08154 14.3485 4.08154C20.7811 4.08154 25.9958 6.05072 25.9958 8.47982ZM14.4706 14.5071C5.87771 14.5071 2.86407 11.412 2.86407 11.412V14.1604C2.86407 15.0094 3.20098 15.8251 3.92721 16.265C5.44118 17.1819 8.69612 18.5796 14.4706 18.5796C17.594 18.5796 19.9803 18.1706 21.7526 17.6501C22.0358 16.8655 22.5091 16.1615 23.2101 15.532C23.8452 14.9617 24.7504 14.6898 25.4441 14.5468C25.6535 14.5036 25.8623 14.4687 26.0648 14.4407C26.0731 14.348 26.0772 14.2544 26.0772 14.1604V11.412C26.0772 11.412 23.0636 14.5071 14.4706 14.5071ZM18.1554 31.4018C17.8132 31.5617 17.4363 31.7477 17.0743 31.9511C16.6896 32.1672 16.2875 32.4214 15.9396 32.7092C15.6078 32.9837 15.2331 33.363 15.0247 33.853C14.8315 34.3072 14.7156 34.6961 14.6534 35.0161C14.6128 35.2248 14.5839 35.4589 14.5959 35.6838C14.5543 35.6839 14.5125 35.684 14.4706 35.684C8.69612 35.684 5.44118 34.2863 3.92721 33.3694C3.20098 32.9296 2.86407 32.1138 2.86407 31.2648V28.5164C2.86407 28.5164 5.87771 31.6115 14.4706 31.6115C15.8364 31.6115 17.0613 31.5333 18.1554 31.4018ZM21.9029 24.9357C22.0281 25.1279 22.1994 25.3269 22.434 25.48C22.4891 25.5161 22.5492 25.5524 22.6138 25.5872C22.6903 25.9592 22.829 26.4338 23.0939 26.8491C23.373 27.2866 23.636 27.5458 23.8283 27.7207L23.8499 27.7403C23.8659 27.8223 23.8781 27.9294 23.8722 28.0563C23.8692 28.1226 23.861 28.1983 23.8436 28.2823C22.045 29.1034 19.0502 29.9825 14.4706 29.9825C8.69612 29.9825 5.44118 28.5848 3.92721 27.6679C3.20098 27.2281 2.86407 26.4123 2.86407 25.5633V22.815C2.86407 22.815 5.87771 25.91 14.4706 25.91C17.6832 25.91 20.1159 25.4774 21.9029 24.9357ZM21.4263 19.3717C21.421 19.4863 21.4184 19.6024 21.4184 19.7198C21.4184 20.2914 21.4819 20.7969 21.5778 21.2205C21.4326 21.4715 21.3696 21.7406 21.3444 21.9375C21.2906 22.3592 21.3118 22.9254 21.3956 23.4526C19.6638 23.9241 17.389 24.281 14.4706 24.281C8.69612 24.281 5.44118 22.8833 3.92721 21.9664C3.20098 21.5266 2.86407 20.7109 2.86407 19.8618V17.1135C2.86407 17.1135 5.87771 20.2086 14.4706 20.2086C17.4063 20.2086 19.6907 19.8473 21.4263 19.3717Z" fill="#7161BA"/>
</svg>
