<svg width="196" height="196" viewBox="0 0 196 196" fill="none" xmlns="http://www.w3.org/2000/svg">
<rect x="30" y="161.268" width="135.363" height="13.7325" rx="2" fill="#F5F5F7"/>
<path fill-rule="evenodd" clip-rule="evenodd" d="M97.5035 21C93.5982 21 84.818 21.7881 80.9396 24.9406C76.0916 28.8812 74.0716 33.5383 74.0716 39.6284C74.0716 44.5004 75.4183 47.629 76.0916 48.5843C75.4183 48.1067 73.9908 47.7245 73.6676 50.0173C73.2636 52.8832 74.0716 59.3314 76.4956 60.7644C78.4348 61.9107 79.1891 61.242 79.3238 60.7644C79.3238 62.3167 79.7278 65.9947 81.3438 68.2874C82.478 69.8966 83.4849 70.7152 84.2213 71.3139C84.7964 71.7815 85.2066 72.115 85.3838 72.5862C85.7878 73.6609 87.4038 78.318 82.9598 83.6916L84.5495 85.8844C90.9377 94.6962 104.069 94.6962 110.457 85.8844L112.047 83.6916C107.603 78.318 109.219 73.6609 109.623 72.5862C109.8 72.115 110.211 71.7815 110.786 71.3139C111.522 70.7152 112.529 69.8966 113.663 68.2874C115.279 65.9947 115.683 62.3167 115.683 60.7644C115.818 61.242 116.572 61.9107 118.511 60.7644C120.935 59.3314 121.743 52.8832 121.339 50.0173C121.016 47.7245 119.589 48.1067 118.915 48.5843C119.589 47.629 120.935 44.5004 120.935 39.6284C120.935 33.5383 118.915 28.8812 114.067 24.9406C110.189 21.7881 101.409 21 97.5035 21ZM58.5583 94.1104C53.7155 96.0427 44.4447 99.7419 42.56 103.753C40.944 107.192 40.8093 109.246 40.944 109.843L33.4657 139.033C31.1969 147.889 37.8861 156.508 47.0277 156.508H147.979C157.121 156.508 163.81 147.889 161.541 139.033L154.063 109.843C154.198 109.246 154.063 107.192 152.447 103.753C150.562 99.7418 141.291 96.0427 136.449 94.1103L136.441 94.1074C136.097 93.9699 135.775 93.8413 135.479 93.7223C134.338 93.2622 132.53 92.7313 130.399 92.1053C127.418 91.2297 123.802 90.1677 120.49 88.8533C119.576 88.4909 118.524 88.806 117.993 89.6327L99.073 119.067C98.3155 120.246 96.6123 120.301 95.7809 119.173L74.5677 90.4034C74.0355 89.6816 73.0887 89.4047 72.2434 89.7039C69.6086 90.6365 66.919 91.4265 64.6095 92.1049L64.6085 92.1052L64.6081 92.1053C62.4767 92.7313 60.6692 93.2623 59.5279 93.7223C59.2304 93.8422 58.9057 93.9717 58.5583 94.1104ZM92.1709 101.404L95.8272 95.7969C96.6163 94.5868 98.3887 94.5868 99.1778 95.7969L102.834 101.404C103.222 101.999 103.265 102.755 102.948 103.39L99.2918 110.711C98.555 112.187 96.45 112.187 95.7132 110.711L92.0569 103.39C91.7397 102.755 91.783 101.999 92.1709 101.404ZM97.2935 125.04H60.3215C58.9624 125.04 57.9991 126.367 58.4197 127.659L66.0563 151.124C66.3243 151.948 67.092 152.505 67.9581 152.505H97.2935H126.629C127.495 152.505 128.263 151.948 128.531 151.124L136.167 127.659C136.588 126.367 135.625 125.04 134.265 125.04H97.2935Z" fill="#F5F5F7"/>
</svg>
