<svg width="196" height="196" viewBox="0 0 196 196" fill="none" xmlns="http://www.w3.org/2000/svg">
<path fill-rule="evenodd" clip-rule="evenodd" d="M37.7803 172.823V116.362C37.7803 115.824 37.9967 115.309 38.3808 114.933L98.7266 55.8269L157.991 114.304C158.372 114.68 158.586 115.193 158.586 115.728V172.823C158.586 174.026 157.611 175 156.409 175H39.9569C38.7548 175 37.7803 174.026 37.7803 172.823ZM78.0495 109.155C78.0495 106.751 79.9987 104.802 82.4028 104.802H116.141C118.545 104.802 120.495 106.751 120.495 109.155V126.569C120.495 128.973 118.545 130.922 116.141 130.922H82.4028C79.9987 130.922 78.0495 128.973 78.0495 126.569V109.155ZM54.106 141.806C54.106 139.401 56.0552 137.452 58.4594 137.452H92.1979C94.602 137.452 96.5512 139.401 96.5512 141.806V159.219C96.5512 161.623 94.602 163.572 92.1979 163.572H58.4594C56.0552 163.572 54.106 161.623 54.106 159.219V141.806ZM103.081 141.806C103.081 139.401 105.031 137.452 107.435 137.452H141.173C143.577 137.452 145.526 139.401 145.526 141.806V159.219C145.526 161.623 143.577 163.572 141.173 163.572H107.435C105.031 163.572 103.081 161.623 103.081 159.219V141.806Z" fill="#F5F5F7"/>
<path fill-rule="evenodd" clip-rule="evenodd" d="M91.0642 24.1558C95.307 19.9481 102.149 19.9481 106.392 24.1558L172.236 89.4562C176.504 93.6887 176.533 100.58 172.3 104.847C168.067 109.115 161.177 109.144 156.909 104.911L98.7279 47.2114L40.5471 104.911C36.2793 109.144 29.3884 109.115 25.1558 104.847C20.9232 100.58 20.9518 93.6887 25.2197 89.4562L91.0642 24.1558Z" fill="#F5F5F7"/>
</svg>
