<svg width="196" height="196" viewBox="0 0 196 196" fill="none" xmlns="http://www.w3.org/2000/svg">
<rect x="31" y="162.268" width="133.363" height="11.7325" rx="1" stroke="#AAA5D4" stroke-width="2"/>
<path d="M41.9195 109.623C41.9543 109.777 41.952 109.938 41.9127 110.091L34.4344 139.282C32.3277 147.505 38.539 155.508 47.0277 155.508H147.979C156.468 155.508 162.679 147.505 160.573 139.282L153.094 110.091C153.055 109.938 153.053 109.777 153.088 109.623C153.087 109.623 153.09 109.613 153.092 109.591C153.095 109.57 153.098 109.54 153.1 109.501C153.104 109.422 153.104 109.316 153.096 109.18C153.081 108.909 153.034 108.541 152.934 108.074C152.733 107.141 152.323 105.84 151.542 104.178C151.169 103.385 150.381 102.519 149.219 101.615C148.073 100.724 146.642 99.8557 145.09 99.0364C141.986 97.3973 138.506 96.0079 136.078 95.0391L136.077 95.0386L136.071 95.0362L41.9195 109.623ZM41.9195 109.623C41.9195 109.623 41.9174 109.613 41.9146 109.591C41.9119 109.57 41.9092 109.54 41.9072 109.501C41.9032 109.422 41.903 109.316 41.9108 109.18C41.9263 108.909 41.9728 108.541 42.0731 108.074C42.2737 107.141 42.6844 105.84 43.465 104.178C43.8377 103.385 44.6263 102.519 45.7878 101.615C46.934 100.724 48.365 99.8557 49.9168 99.0364C53.0212 97.3973 56.501 96.0079 58.9289 95.0391L58.5583 94.1104M41.9195 109.623L58.5583 94.1104M58.5583 94.1104L58.9289 95.0391C59.2759 94.9007 59.6023 94.7704 59.9017 94.6497C60.9863 94.2126 62.7352 93.6976 64.8903 93.0646L64.9005 93.0617C67.2045 92.3849 69.9162 91.5884 72.5771 90.6466C73.0192 90.4901 73.4993 90.6394 73.7628 90.9968L94.976 119.766C96.2232 121.458 98.7779 121.376 99.9142 119.608L118.834 90.1734C119.096 89.7658 119.633 89.5892 120.121 89.7828C123.476 91.1143 127.128 92.1869 130.099 93.0594L130.117 93.0648C132.272 93.6977 134.021 94.2126 135.105 94.6497C135.402 94.7694 135.726 94.8985 136.07 95.0357L58.5583 94.1104ZM75.513 49.3999C75.9102 49.6817 76.4527 49.6363 76.7976 49.2925C77.1425 48.9486 77.1896 48.4063 76.909 48.0082C76.3813 47.2596 75.0716 44.3462 75.0716 39.6284C75.0716 33.8192 76.9712 29.455 81.5703 25.7166C83.3036 24.3077 86.2544 23.3571 89.3949 22.7712C92.4941 22.1929 95.6034 22 97.5035 22C99.4037 22 102.513 22.1929 105.612 22.7712C108.753 23.3571 111.703 24.3077 113.437 25.7166C118.036 29.455 119.935 33.8192 119.935 39.6284C119.935 44.3462 118.626 47.2596 118.098 48.0082C117.817 48.4063 117.864 48.9486 118.209 49.2925C118.554 49.6363 119.097 49.6817 119.494 49.3999C119.585 49.3357 119.699 49.2769 119.809 49.2453C119.92 49.2135 119.978 49.2219 119.996 49.2266C120.002 49.2284 120.009 49.231 120.019 49.2383C120.029 49.246 120.056 49.268 120.092 49.3212C120.169 49.4338 120.282 49.6787 120.349 50.1568C120.531 51.4481 120.444 53.6564 120.008 55.7213C119.791 56.7468 119.496 57.6937 119.132 58.4493C118.759 59.2236 118.363 59.6907 118.003 59.9035C117.147 60.4095 116.728 60.4104 116.611 60.3916C116.442 59.9699 116.005 59.7103 115.546 59.7738C115.052 59.8422 114.683 60.2651 114.683 60.7644C114.683 61.4716 114.589 62.7081 114.302 64.0367C114.012 65.3762 113.544 66.721 112.846 67.7113C111.791 69.2077 110.868 69.958 110.156 70.5371L110.155 70.538C110.125 70.5622 110.095 70.5868 110.064 70.6117C109.571 71.0102 108.962 71.5028 108.687 72.2344C108.242 73.4199 106.624 78.2006 110.793 83.7178L109.648 85.2975C103.659 93.5585 91.3481 93.5585 85.3591 85.2975L84.2139 83.7178C88.3834 78.2006 86.7655 73.4199 86.3198 72.2344C86.0448 71.5028 85.4358 71.0102 84.9431 70.6117C84.9123 70.5868 84.8819 70.5622 84.8521 70.538L84.851 70.5371C84.1388 69.958 83.2159 69.2077 82.1612 67.7113C81.4632 66.721 80.995 65.3762 80.7052 64.0367C80.4177 62.7081 80.3238 61.4716 80.3238 60.7644C80.3238 60.2651 79.9555 59.8422 79.4608 59.7738C79.0019 59.7103 78.5648 59.9699 78.3958 60.3916C78.2787 60.4104 77.8604 60.4095 77.0045 59.9036C76.6444 59.6907 76.2485 59.2236 75.875 58.4493C75.5107 57.6937 75.2163 56.7468 74.9995 55.7213C74.5629 53.6564 74.4758 51.4481 74.6578 50.1568C74.7252 49.6787 74.8384 49.4338 74.915 49.3212C74.9511 49.268 74.9778 49.246 74.9884 49.2382C74.9984 49.231 75.0049 49.2284 75.0115 49.2266C75.0288 49.2219 75.0873 49.2135 75.1979 49.2453C75.3078 49.2769 75.4225 49.3357 75.513 49.3999ZM93.0085 101.95L96.6648 96.3431C97.0594 95.7381 97.9456 95.7381 98.3401 96.3431L101.996 101.95C102.19 102.248 102.212 102.626 102.053 102.943L98.3971 110.265C98.0288 111.002 96.9762 111.002 96.6079 110.265L92.9516 102.943C92.7929 102.626 92.8146 102.248 93.0085 101.95Z" stroke="#AAA5D4" stroke-width="2" stroke-linecap="round" stroke-linejoin="round"/>
<path d="M60.3218 125.04H134.266C135.625 125.04 136.588 126.367 136.168 127.659L128.531 151.124C128.263 151.948 127.495 152.505 126.629 152.505H67.9584C67.0923 152.505 66.3246 151.948 66.0566 151.124L58.42 127.659C57.9994 126.367 58.9627 125.04 60.3218 125.04Z" fill="#AAA5D4"/>
</svg>
