<svg width="196" height="196" viewBox="0 0 196 196" fill="none" xmlns="http://www.w3.org/2000/svg">
<path d="M38.7803 172.823V116.362C38.7803 116.093 38.8885 115.836 39.0805 115.648L98.724 57.2292L157.288 115.016C157.479 115.204 157.586 115.46 157.586 115.728V172.823C157.586 173.473 157.059 174 156.409 174H39.9569C39.3071 174 38.7803 173.473 38.7803 172.823ZM82.4028 99.8021C79.4465 99.8021 77.0495 102.199 77.0495 105.155V122.569C77.0495 125.526 79.4465 127.922 82.4028 127.922H116.141C119.098 127.922 121.495 125.526 121.495 122.569V105.155C121.495 102.199 119.098 99.8021 116.141 99.8021H82.4028ZM58.4594 136.452C55.503 136.452 53.106 138.849 53.106 141.806V159.219C53.106 162.176 55.503 164.572 58.4594 164.572H90.1979C93.1543 164.572 95.5512 162.176 95.5512 159.219V141.806C95.5512 138.849 93.1543 136.452 90.1979 136.452H58.4594ZM109.435 136.452C106.478 136.452 104.081 138.849 104.081 141.806V159.219C104.081 162.176 106.478 164.572 109.435 164.572H141.173C144.13 164.572 146.526 162.176 146.526 159.219V141.806C146.526 138.849 144.13 136.452 141.173 136.452H109.435Z" stroke="#AAA5D4" stroke-width="2"/>
<path fill-rule="evenodd" clip-rule="evenodd" d="M91.0642 24.1558C95.307 19.9481 102.149 19.9481 106.392 24.1558L172.236 89.4562C176.504 93.6887 176.533 100.58 172.3 104.847C168.067 109.115 161.177 109.144 156.909 104.911L98.7279 47.2114L40.5471 104.911C36.2793 109.144 29.3884 109.115 25.1558 104.847C20.9232 100.58 20.9518 93.6887 25.2197 89.4562L91.0642 24.1558Z" stroke="#AAA5D4" stroke-width="2" stroke-linecap="round" stroke-linejoin="round"/>
</svg>
