<svg width="196" height="196" viewBox="0 0 196 196" fill="none" xmlns="http://www.w3.org/2000/svg">
<path d="M113.319 78.2432C117.225 74.7303 126.067 73.8521 130 73.8521C133.933 73.8521 142.775 74.7303 146.681 78.2432C151.564 82.6343 153.598 87.8238 153.598 94.6101C153.598 100.039 152.242 103.525 151.564 104.59C152.242 104.058 153.679 103.632 154.005 106.187C154.412 109.38 153.598 116.566 151.157 118.163C149.204 119.44 148.444 118.695 148.308 118.163C148.308 119.892 147.902 123.991 146.274 126.546C144.24 129.739 142.612 130.138 142.206 131.336C141.799 132.534 140.171 137.723 144.647 143.711C149.122 149.699 163.769 152.892 168.245 154.888C172.72 156.884 183.299 161.275 185.333 166.066C186.96 169.898 187.096 172.187 186.96 172.852H130H73.0398C72.9041 172.187 73.0398 169.898 74.6672 166.066C76.7015 161.275 87.2799 156.884 91.7553 154.888C96.2308 152.892 110.878 149.699 115.353 143.711C119.829 137.723 118.201 132.534 117.794 131.336C117.388 130.138 115.76 129.739 113.726 126.546C112.098 123.991 111.691 119.892 111.691 118.163C111.556 118.695 110.796 119.44 108.843 118.163C106.402 116.566 105.588 109.38 105.995 106.187C106.321 103.632 107.758 104.058 108.436 104.59C107.758 103.525 106.402 100.039 106.402 94.6101C106.402 87.8238 108.436 82.6343 113.319 78.2432Z" stroke="#AAA5D4" stroke-width="2" stroke-linecap="round" stroke-linejoin="round"/>
<mask id="path-2-inside-1" fill="white">
<path fill-rule="evenodd" clip-rule="evenodd" d="M123.143 39.5516C123.143 51.4542 97.5916 61.1031 66.0717 61.1031C34.5519 61.1031 9 51.4542 9 39.5516C9 27.649 34.5519 18 66.0717 18C97.5916 18 123.143 27.649 123.143 39.5516ZM66.6704 69.0852C24.565 69.0852 9.79821 53.9193 9.79821 53.9193V67.3862C9.79821 71.5465 11.4491 75.5437 15.0076 77.6988C22.4261 82.1915 38.3753 89.0404 66.6704 89.0404C81.9745 89.0404 93.6668 87.0368 102.351 84.4861C103.739 80.6415 106.058 77.1923 109.493 74.1074C112.605 71.3131 117.04 69.9808 120.439 69.2801C121.466 69.0685 122.489 68.897 123.482 68.7599C123.522 68.3055 123.543 67.8469 123.543 67.3862V53.9193C123.543 53.9193 108.776 69.0852 66.6704 69.0852ZM84.7253 151.869C83.048 152.653 81.2012 153.564 79.4273 154.561C77.5424 155.62 75.5722 156.866 73.8672 158.276C72.2415 159.621 70.4055 161.48 69.3844 163.88C68.4378 166.106 67.8699 168.011 67.5648 169.58C67.3658 170.602 67.2244 171.749 67.2833 172.851C67.0797 172.852 66.8754 172.852 66.6704 172.852C38.3753 172.852 22.4261 166.003 15.0076 161.51C11.4491 159.355 9.79821 155.358 9.79821 151.198V137.731C9.79821 137.731 24.565 152.897 66.6704 152.897C73.3625 152.897 79.3639 152.514 84.7253 151.869ZM103.088 120.186C103.701 121.128 104.54 122.102 105.69 122.853C105.96 123.029 106.254 123.208 106.571 123.378C106.946 125.201 107.625 127.526 108.923 129.561C110.291 131.705 111.58 132.975 112.522 133.832L112.628 133.928C112.706 134.33 112.766 134.855 112.737 135.476C112.722 135.802 112.682 136.173 112.597 136.584C103.784 140.608 89.1093 144.915 66.6704 144.915C38.3753 144.915 22.4261 138.066 15.0076 133.573C11.4491 131.418 9.79821 127.421 9.79821 123.261V109.794C9.79821 109.794 24.565 124.96 66.6704 124.96C82.4114 124.96 94.3315 122.84 103.088 120.186ZM100.752 92.9219C100.726 93.4837 100.713 94.0523 100.713 94.6278C100.713 97.4288 101.024 99.9057 101.494 101.981C100.783 103.211 100.474 104.53 100.351 105.495C100.087 107.561 100.191 110.335 100.601 112.918C92.1159 115.228 80.9696 116.978 66.6704 116.978C38.3753 116.978 22.4261 110.129 15.0076 105.636C11.4491 103.481 9.79821 99.4837 9.79821 95.3234V81.8565C9.79821 81.8565 24.565 97.0224 66.6704 97.0224C81.0544 97.0224 92.2479 95.2525 100.752 92.9219Z"/>
</mask>
<path d="M9.79821 53.9193L11.2311 52.524C10.6634 51.941 9.79907 51.7601 9.04517 52.0665C8.29128 52.3729 7.79821 53.1055 7.79821 53.9193H9.79821ZM15.0076 77.6988L13.9715 79.4095L13.9715 79.4095L15.0076 77.6988ZM102.351 84.4861L102.915 86.405C103.526 86.2254 104.016 85.7648 104.232 85.1651L102.351 84.4861ZM109.493 74.1074L108.157 72.6194V72.6194L109.493 74.1074ZM120.439 69.2801L120.035 67.3213L120.439 69.2801ZM123.482 68.7599L123.755 70.741C124.678 70.6136 125.39 69.8663 125.474 68.9389L123.482 68.7599ZM123.543 53.9193H125.543C125.543 53.1055 125.05 52.3729 124.296 52.0665C123.542 51.7601 122.677 51.941 122.11 52.524L123.543 53.9193ZM84.7253 151.869L85.5717 153.681C86.4619 153.266 86.9183 152.265 86.6484 151.32C86.3784 150.375 85.4622 149.766 84.4866 149.884L84.7253 151.869ZM79.4273 154.561L78.4476 152.817H78.4476L79.4273 154.561ZM73.8672 158.276L75.142 159.817L75.142 159.817L73.8672 158.276ZM69.3844 163.88L71.2248 164.663L69.3844 163.88ZM67.5648 169.58L69.528 169.962H69.528L67.5648 169.58ZM67.2833 172.851L67.2904 174.851C67.8382 174.849 68.3611 174.622 68.7373 174.224C69.1134 173.826 69.3098 173.291 69.2805 172.744L67.2833 172.851ZM15.0076 161.51L13.9715 163.221H13.9715L15.0076 161.51ZM9.79821 137.731L11.2311 136.336C10.6634 135.753 9.79907 135.572 9.04517 135.878C8.29128 136.185 7.79821 136.917 7.79821 137.731H9.79821ZM103.088 120.186L104.764 119.094C104.278 118.349 103.359 118.014 102.507 118.272L103.088 120.186ZM105.69 122.853L106.783 121.178L106.783 121.178L105.69 122.853ZM106.571 123.378L108.53 122.975C108.41 122.395 108.04 121.897 107.519 121.617L106.571 123.378ZM108.923 129.561L107.237 130.637L108.923 129.561ZM112.522 133.832L111.176 135.311L111.179 135.314L112.522 133.832ZM112.628 133.928L114.591 133.545C114.508 133.122 114.291 132.736 113.971 132.446L112.628 133.928ZM112.737 135.476L114.735 135.569V135.569L112.737 135.476ZM112.597 136.584L113.428 138.403C114.007 138.139 114.426 137.613 114.555 136.989L112.597 136.584ZM15.0076 133.573L13.9715 135.284H13.9715L15.0076 133.573ZM9.79821 109.794L11.2311 108.398C10.6634 107.815 9.79907 107.635 9.04517 107.941C8.29128 108.247 7.79821 108.98 7.79821 109.794H9.79821ZM100.752 92.9219L102.75 93.0139C102.779 92.3746 102.501 91.7599 102.001 91.3601C101.502 90.9604 100.841 90.8239 100.224 90.9931L100.752 92.9219ZM101.494 101.981L103.226 102.982C103.478 102.546 103.556 102.031 103.445 101.539L101.494 101.981ZM100.351 105.495L102.335 105.748V105.748L100.351 105.495ZM100.601 112.918L101.127 114.848C102.112 114.58 102.737 113.613 102.577 112.604L100.601 112.918ZM15.0076 105.636L13.9715 107.347H13.9715L15.0076 105.636ZM9.79821 81.8565L11.2311 80.4613C10.6634 79.8782 9.79907 79.6973 9.04517 80.0037C8.29128 80.3101 7.79821 81.0427 7.79821 81.8565H9.79821ZM66.0717 63.1031C82.0094 63.1031 96.5276 60.6671 107.134 56.6619C112.43 54.662 116.855 52.2321 119.99 49.4323C123.125 46.6339 125.143 43.299 125.143 39.5516H121.143C121.143 41.7554 119.968 44.0902 117.327 46.4485C114.687 48.8055 110.753 51.0196 105.721 52.9198C95.6716 56.7147 81.654 59.1031 66.0717 59.1031V63.1031ZM7 39.5516C7 43.299 9.01853 46.6339 12.153 49.4323C15.2889 52.2321 19.7133 54.662 25.0094 56.6619C35.6159 60.6671 50.1341 63.1031 66.0717 63.1031V59.1031C50.4895 59.1031 36.4719 56.7147 26.4225 52.9198C21.3906 51.0196 17.457 48.8055 14.817 46.4485C12.1755 44.0902 11 41.7554 11 39.5516H7ZM66.0717 16C50.1341 16 35.6159 18.436 25.0094 22.4413C19.7133 24.4412 15.2889 26.871 12.153 29.6708C9.01854 32.4693 7 35.8041 7 39.5516H11C11 37.3477 12.1755 35.013 14.817 32.6546C17.457 30.2976 21.3906 28.0835 26.4225 26.1833C36.4719 22.3885 50.4895 20 66.0717 20V16ZM125.143 39.5516C125.143 35.8041 123.125 32.4693 119.99 29.6708C116.855 26.871 112.43 24.4412 107.134 22.4413C96.5276 18.436 82.0094 16 66.0717 16V20C81.654 20 95.6716 22.3885 105.721 26.1833C110.753 28.0835 114.687 30.2976 117.327 32.6546C119.968 35.013 121.143 37.3477 121.143 39.5516H125.143ZM9.79821 53.9193C8.36526 55.3145 8.36629 55.3156 8.36738 55.3167C8.36781 55.3171 8.36896 55.3183 8.36983 55.3192C8.37159 55.321 8.37357 55.323 8.37578 55.3253C8.38021 55.3297 8.38555 55.3351 8.39183 55.3414C8.40437 55.354 8.42062 55.3702 8.44063 55.3899C8.48065 55.4292 8.53569 55.4823 8.60614 55.5484C8.74705 55.6805 8.94957 55.8644 9.21679 56.0924C9.75129 56.5484 10.5444 57.181 11.6207 57.9304C13.774 59.4295 17.057 61.3929 21.665 63.344C30.8863 67.2483 45.3721 71.0852 66.6704 71.0852V67.0852C45.8633 67.0852 31.913 63.3392 23.2246 59.6605C18.8777 57.8201 15.8374 55.9921 13.9061 54.6476C12.9402 53.9751 12.2507 53.4228 11.8131 53.0495C11.5943 52.8628 11.4385 52.7208 11.3425 52.6308C11.2945 52.5858 11.2615 52.5538 11.2431 52.5357C11.2339 52.5266 11.2283 52.5211 11.2263 52.5191C11.2253 52.5181 11.2252 52.518 11.2261 52.5188C11.2265 52.5192 11.2271 52.5199 11.2279 52.5208C11.2284 52.5212 11.2292 52.522 11.2294 52.5222C11.2302 52.5231 11.2311 52.524 9.79821 53.9193ZM11.7982 67.3862V53.9193H7.79821V67.3862H11.7982ZM16.0436 75.988C13.2463 74.2939 11.7982 71.0609 11.7982 67.3862H7.79821C7.79821 72.032 9.65184 76.7934 13.9715 79.4095L16.0436 75.988ZM66.6704 87.0404C38.7139 87.0404 23.1276 80.2782 16.0436 75.988L13.9715 79.4095C21.7245 84.1048 38.0366 91.0404 66.6704 91.0404V87.0404ZM101.788 82.5672C93.2997 85.0601 81.7982 87.0404 66.6704 87.0404V91.0404C82.1507 91.0404 94.034 89.0134 102.915 86.405L101.788 82.5672ZM108.157 72.6194C104.491 75.9112 101.977 79.6333 100.47 83.8071L104.232 85.1651C105.501 81.6496 107.625 78.4734 110.829 75.5955L108.157 72.6194ZM120.035 67.3213C116.561 68.0375 111.681 69.4542 108.157 72.6194L110.829 75.5955C113.528 73.172 117.519 71.924 120.843 71.2389L120.035 67.3213ZM123.208 66.7787C122.177 66.9212 121.109 67.0998 120.035 67.3213L120.843 71.2389C121.822 71.0371 122.802 70.8728 123.755 70.741L123.208 66.7787ZM121.543 67.3862C121.543 67.7883 121.525 68.1873 121.49 68.5809L125.474 68.9389C125.52 68.4238 125.543 67.9054 125.543 67.3862H121.543ZM121.543 53.9193V67.3862H125.543V53.9193H121.543ZM66.6704 71.0852C87.9687 71.0852 102.454 67.2483 111.676 63.344C116.284 61.3929 119.567 59.4295 121.72 57.9304C122.796 57.181 123.59 56.5484 124.124 56.0924C124.391 55.8644 124.594 55.6805 124.735 55.5484C124.805 55.4823 124.86 55.4292 124.9 55.3899C124.92 55.3702 124.936 55.354 124.949 55.3414C124.955 55.3351 124.961 55.3297 124.965 55.3253C124.967 55.323 124.969 55.321 124.971 55.3192C124.972 55.3183 124.973 55.3171 124.973 55.3167C124.975 55.3156 124.976 55.3145 123.543 53.9193C122.11 52.524 122.111 52.5231 122.111 52.5222C122.112 52.522 122.112 52.5212 122.113 52.5208C122.114 52.5199 122.114 52.5192 122.115 52.5188C122.116 52.518 122.115 52.5181 122.114 52.5191C122.113 52.5211 122.107 52.5266 122.098 52.5357C122.079 52.5538 122.046 52.5858 121.998 52.6308C121.902 52.7208 121.746 52.8628 121.528 53.0495C121.09 53.4228 120.401 53.9751 119.435 54.6476C117.503 55.9921 114.463 57.8201 110.116 59.6605C101.428 63.3392 87.4775 67.0852 66.6704 67.0852V71.0852ZM83.8789 150.057C82.1759 150.853 80.2805 151.788 78.4476 152.817L80.407 156.305C82.1219 155.341 83.9202 154.453 85.5717 153.681L83.8789 150.057ZM78.4476 152.817C76.5076 153.907 74.4246 155.219 72.5925 156.735L75.142 159.817C76.7198 158.512 78.5772 157.333 80.407 156.305L78.4476 152.817ZM72.5925 156.735C70.8671 158.162 68.748 160.266 67.5439 163.098L71.2248 164.663C72.0629 162.693 73.616 161.079 75.142 159.817L72.5925 156.735ZM67.5439 163.098C66.5501 165.434 65.937 167.474 65.6016 169.198L69.528 169.962C69.8029 168.549 70.3254 166.778 71.2248 164.663L67.5439 163.098ZM65.6016 169.198C65.3861 170.305 65.2151 171.63 65.2862 172.958L69.2805 172.744C69.2336 171.868 69.3455 170.899 69.528 169.962L65.6016 169.198ZM67.2763 170.851C67.0751 170.852 66.8731 170.852 66.6704 170.852V174.852C66.8776 174.852 67.0843 174.852 67.2904 174.851L67.2763 170.851ZM66.6704 170.852C38.7139 170.852 23.1276 164.09 16.0436 159.8L13.9715 163.221C21.7245 167.916 38.0366 174.852 66.6704 174.852V170.852ZM16.0436 159.8C13.2463 158.106 11.7982 154.873 11.7982 151.198H7.79821C7.79821 155.844 9.65184 160.605 13.9715 163.221L16.0436 159.8ZM11.7982 151.198V137.731H7.79821V151.198H11.7982ZM9.79821 137.731C8.36526 139.126 8.36629 139.127 8.36738 139.128C8.36781 139.129 8.36896 139.13 8.36983 139.131C8.37159 139.133 8.37357 139.135 8.37578 139.137C8.38021 139.141 8.38555 139.147 8.39183 139.153C8.40437 139.166 8.42062 139.182 8.44063 139.202C8.48065 139.241 8.53569 139.294 8.60614 139.36C8.74705 139.492 8.94957 139.676 9.21679 139.904C9.75129 140.36 10.5444 140.993 11.6207 141.742C13.774 143.241 17.057 145.205 21.665 147.156C30.8863 151.06 45.3721 154.897 66.6704 154.897V150.897C45.8633 150.897 31.913 147.151 23.2246 143.472C18.8777 141.632 15.8374 139.804 13.9061 138.459C12.9402 137.787 12.2507 137.234 11.8131 136.861C11.5943 136.674 11.4385 136.532 11.3425 136.442C11.2945 136.397 11.2615 136.365 11.2431 136.347C11.2339 136.338 11.2283 136.333 11.2263 136.331C11.2253 136.33 11.2252 136.33 11.2261 136.33C11.2265 136.331 11.2271 136.332 11.2279 136.332C11.2284 136.333 11.2292 136.334 11.2294 136.334C11.2302 136.335 11.2311 136.336 9.79821 137.731ZM66.6704 154.897C73.4389 154.897 79.5202 154.509 84.964 153.855L84.4866 149.884C79.2077 150.518 73.286 150.897 66.6704 150.897V154.897ZM101.412 121.277C102.133 122.385 103.156 123.587 104.596 124.527L106.783 121.178C105.925 120.618 105.269 119.871 104.764 119.094L101.412 121.277ZM104.596 124.527C104.907 124.731 105.25 124.938 105.623 125.139L107.519 121.617C107.258 121.477 107.013 121.328 106.783 121.178L104.596 124.527ZM104.612 123.781C105.01 125.715 105.753 128.309 107.237 130.637L110.609 128.485C109.498 126.743 108.882 124.687 108.53 122.975L104.612 123.781ZM107.237 130.637C108.73 132.976 110.152 134.38 111.176 135.311L113.868 132.353C113.008 131.57 111.852 130.433 110.609 128.485L107.237 130.637ZM111.179 135.314L111.285 135.41L113.971 132.446L113.865 132.35L111.179 135.314ZM110.665 134.311C110.717 134.579 110.76 134.943 110.739 135.384L114.735 135.569C114.772 134.766 114.695 134.08 114.591 133.545L110.665 134.311ZM110.739 135.384C110.729 135.614 110.7 135.88 110.638 136.179L114.555 136.989C114.664 136.465 114.716 135.989 114.735 135.569L110.739 135.384ZM111.766 134.765C103.235 138.66 88.8465 142.915 66.6704 142.915V146.915C89.3721 146.915 104.333 142.555 113.428 138.403L111.766 134.765ZM66.6704 142.915C38.7139 142.915 23.1276 136.153 16.0436 131.862L13.9715 135.284C21.7245 139.979 38.0366 146.915 66.6704 146.915V142.915ZM16.0436 131.862C13.2463 130.168 11.7982 126.935 11.7982 123.261H7.79821C7.79821 127.906 9.65184 132.668 13.9715 135.284L16.0436 131.862ZM11.7982 123.261V109.794H7.79821V123.261H11.7982ZM9.79821 109.794C8.36526 111.189 8.36629 111.19 8.36738 111.191C8.36781 111.192 8.36896 111.193 8.36983 111.194C8.37159 111.195 8.37357 111.197 8.37578 111.2C8.38021 111.204 8.38555 111.21 8.39183 111.216C8.40437 111.228 8.42062 111.245 8.44063 111.264C8.48065 111.304 8.53569 111.357 8.60614 111.423C8.74705 111.555 8.94957 111.739 9.21679 111.967C9.75129 112.423 10.5444 113.055 11.6207 113.805C13.774 115.304 17.057 117.267 21.665 119.218C30.8863 123.123 45.3721 126.96 66.6704 126.96V122.96C45.8633 122.96 31.913 119.214 23.2246 115.535C18.8777 113.695 15.8374 111.867 13.9061 110.522C12.9402 109.85 12.2507 109.297 11.8131 108.924C11.5943 108.737 11.4385 108.595 11.3425 108.505C11.2945 108.46 11.2615 108.428 11.2431 108.41C11.2339 108.401 11.2283 108.396 11.2263 108.394C11.2253 108.393 11.2252 108.392 11.2261 108.393C11.2265 108.394 11.2271 108.394 11.2279 108.395C11.2284 108.396 11.2292 108.396 11.2294 108.397C11.2302 108.398 11.2311 108.398 9.79821 109.794ZM66.6704 126.96C82.5929 126.96 94.7097 124.815 103.668 122.1L102.507 118.272C93.9534 120.865 82.23 122.96 66.6704 122.96V126.96ZM98.7542 92.8299C98.7269 93.4235 98.7135 94.0228 98.7135 94.6278H102.713C102.713 94.0819 102.726 93.544 102.75 93.0139L98.7542 92.8299ZM98.7135 94.6278C98.7135 97.5754 99.0406 100.201 99.5438 102.423L103.445 101.539C103.008 99.6108 102.713 97.2821 102.713 94.6278H98.7135ZM99.7632 100.98C98.8764 102.513 98.5113 104.111 98.3671 105.242L102.335 105.748C102.437 104.948 102.689 103.909 103.226 102.982L99.7632 100.98ZM98.3671 105.242C98.0733 107.544 98.1948 110.517 98.6263 113.232L102.577 112.604C102.187 110.154 102.102 107.577 102.335 105.748L98.3671 105.242ZM100.076 110.988C91.7738 113.249 80.8052 114.978 66.6704 114.978V118.978C81.1341 118.978 92.4579 117.208 101.127 114.848L100.076 110.988ZM66.6704 114.978C38.7139 114.978 23.1276 108.215 16.0436 103.925L13.9715 107.347C21.7245 112.042 38.0366 118.978 66.6704 118.978V114.978ZM16.0436 103.925C13.2463 102.231 11.7982 98.9981 11.7982 95.3234H7.79821C7.79821 99.9693 9.65184 104.731 13.9715 107.347L16.0436 103.925ZM11.7982 95.3234V81.8565H7.79821V95.3234H11.7982ZM9.79821 81.8565C8.36526 83.2517 8.36629 83.2528 8.36738 83.2539C8.36781 83.2543 8.36896 83.2555 8.36983 83.2564C8.37159 83.2582 8.37357 83.2602 8.37578 83.2625C8.38021 83.267 8.38555 83.2724 8.39183 83.2787C8.40437 83.2913 8.42062 83.3074 8.44063 83.3271C8.48065 83.3664 8.53569 83.4195 8.60614 83.4856C8.74705 83.6178 8.94957 83.8016 9.21679 84.0296C9.75129 84.4857 10.5444 85.1183 11.6207 85.8676C13.774 87.3667 17.057 89.3302 21.665 91.2812C30.8863 95.1855 45.3721 99.0224 66.6704 99.0224V95.0224C45.8633 95.0224 31.913 91.2764 23.2246 87.5977C18.8777 85.7573 15.8374 83.9293 13.9061 82.5848C12.9402 81.9123 12.2507 81.3601 11.8131 80.9867C11.5943 80.8 11.4385 80.658 11.3425 80.568C11.2945 80.523 11.2615 80.491 11.2431 80.4729C11.2339 80.4639 11.2283 80.4583 11.2263 80.4563C11.2253 80.4553 11.2252 80.4552 11.2261 80.4561C11.2265 80.4565 11.2271 80.4571 11.2279 80.458C11.2284 80.4584 11.2292 80.4592 11.2294 80.4594C11.2302 80.4603 11.2311 80.4613 9.79821 81.8565ZM66.6704 99.0224C81.2199 99.0224 92.5921 97.2319 101.281 94.8508L100.224 90.9931C91.9038 93.2731 80.889 95.0224 66.6704 95.0224V99.0224Z" fill="#AAA5D4" mask="url(#path-2-inside-1)"/>
</svg>
