<svg width="196" height="196" viewBox="0 0 196 196" fill="none" xmlns="http://www.w3.org/2000/svg">
<path d="M113.319 80.2432C117.225 76.7303 126.067 75.8521 130 75.8521C133.933 75.8521 142.775 76.7303 146.681 80.2432C151.564 84.6343 153.598 89.8238 153.598 96.6101C153.598 102.039 152.242 105.525 151.564 106.59C152.242 106.058 153.679 105.632 154.005 108.187C154.412 111.38 153.598 118.566 151.157 120.163C149.204 121.44 148.444 120.695 148.308 120.163C148.308 121.892 147.902 125.991 146.274 128.546C144.24 131.739 142.612 132.138 142.206 133.336C141.799 134.534 140.171 139.723 144.647 145.711C149.122 151.699 163.769 154.892 168.245 156.888C172.72 158.884 183.299 163.275 185.333 168.066C186.96 171.898 187.096 174.187 186.96 174.852H130H73.0398C72.9041 174.187 73.0398 171.898 74.6672 168.066C76.7015 163.275 87.2799 158.884 91.7553 156.888C96.2308 154.892 110.878 151.699 115.353 145.711C119.829 139.723 118.201 134.534 117.794 133.336C117.388 132.138 115.76 131.739 113.726 128.546C112.098 125.991 111.691 121.892 111.691 120.163C111.556 120.695 110.796 121.44 108.843 120.163C106.402 118.566 105.588 111.38 105.995 108.187C106.321 105.632 107.758 106.058 108.436 106.59C107.758 105.525 106.402 102.039 106.402 96.6101C106.402 89.8238 108.436 84.6343 113.319 80.2432Z" fill="#F5F5F7"/>
<path fill-rule="evenodd" clip-rule="evenodd" d="M123.143 41.5516C123.143 53.4542 97.5916 63.1031 66.0717 63.1031C34.5519 63.1031 9 53.4542 9 41.5516C9 29.649 34.5519 20 66.0717 20C97.5916 20 123.143 29.649 123.143 41.5516ZM66.6704 71.0852C24.565 71.0852 9.79821 55.9193 9.79821 55.9193V69.3862C9.79821 73.5465 11.4491 77.5437 15.0076 79.6988C22.4261 84.1915 38.3753 91.0404 66.6704 91.0404C81.9745 91.0404 93.6668 89.0368 102.351 86.4861C103.739 82.6415 106.058 79.1923 109.493 76.1074C112.605 73.3131 117.04 71.9808 120.439 71.2801C121.466 71.0685 122.489 70.897 123.482 70.7599C123.522 70.3055 123.543 69.8469 123.543 69.3862V55.9193C123.543 55.9193 108.776 71.0852 66.6704 71.0852ZM84.7253 153.869C83.048 154.653 81.2012 155.564 79.4273 156.561C77.5424 157.62 75.5722 158.866 73.8672 160.276C72.2415 161.621 70.4055 163.48 69.3844 165.88C68.4378 168.106 67.8699 170.011 67.5648 171.58C67.3658 172.602 67.2244 173.749 67.2833 174.851C67.0797 174.852 66.8754 174.852 66.6704 174.852C38.3753 174.852 22.4261 168.003 15.0076 163.51C11.4491 161.355 9.79821 157.358 9.79821 153.198V139.731C9.79821 139.731 24.565 154.897 66.6704 154.897C73.3625 154.897 79.364 154.514 84.7253 153.869ZM103.088 122.186C103.701 123.128 104.54 124.102 105.69 124.853C105.96 125.029 106.254 125.208 106.571 125.378C106.946 127.201 107.625 129.526 108.923 131.561C110.291 133.705 111.58 134.975 112.522 135.832L112.628 135.928C112.706 136.33 112.766 136.855 112.737 137.476C112.722 137.802 112.682 138.173 112.597 138.584C103.784 142.608 89.1093 146.915 66.6704 146.915C38.3753 146.915 22.4261 140.066 15.0076 135.573C11.4491 133.418 9.79821 129.421 9.79821 125.261V111.794C9.79821 111.794 24.565 126.96 66.6704 126.96C82.4114 126.96 94.3315 124.84 103.088 122.186ZM100.752 94.9219C100.726 95.4837 100.713 96.0523 100.713 96.6278C100.713 99.4288 101.024 101.906 101.494 103.981C100.783 105.211 100.474 106.53 100.351 107.495C100.087 109.561 100.191 112.335 100.601 114.918C92.1159 117.228 80.9696 118.978 66.6704 118.978C38.3753 118.978 22.4261 112.129 15.0076 107.636C11.4491 105.481 9.79821 101.484 9.79821 97.3234V83.8565C9.79821 83.8565 24.565 99.0224 66.6704 99.0224C81.0544 99.0224 92.2479 97.2525 100.752 94.9219Z" fill="#F5F5F7"/>
</svg>
