<svg width="24" height="24" viewBox="0 0 24 24" fill="none" xmlns="http://www.w3.org/2000/svg">
<path fill-rule="evenodd" clip-rule="evenodd" d="M10.8525 2.04472C13.0069 1.83566 15.1697 2.36359 17.0011 3.54825C17.4648 3.84823 18.0839 3.71548 18.3838 3.25176C18.6838 2.78804 18.5511 2.16895 18.0873 1.86898C15.8793 0.440615 13.2659 -0.198877 10.6594 0.0540681C8.05292 0.307003 5.60615 1.43742 3.70333 3.26298C1.80087 5.0882 0.550144 7.50438 0.143801 10.1296C-0.262524 12.7548 0.197793 15.4442 1.45424 17.7753C2.71086 20.1067 4.69388 21.9495 7.09471 23.0092C9.49591 24.0692 12.1757 24.2842 14.711 23.6193C17.2459 22.9546 19.4882 21.4491 21.0872 19.3447C22.6859 17.2406 23.5517 14.6564 23.5517 11.999C23.5517 11.4467 23.104 10.999 22.5517 10.999C21.9994 10.999 21.5517 11.4467 21.5517 11.999C21.5517 14.223 20.8268 16.3815 19.4947 18.1347C18.1628 19.8876 16.3006 21.1348 14.2036 21.6847C12.1069 22.2346 9.89061 22.0572 7.90236 21.1796C5.91374 20.3018 4.26337 18.7718 3.21479 16.8263C2.16604 14.8806 1.78029 12.632 2.12026 10.4355C2.46022 8.23922 3.50575 6.22414 5.08795 4.70618C6.66979 3.18856 8.69811 2.25379 10.8525 2.04472ZM23.7147 4.90736C24.1012 4.51285 24.0947 3.87972 23.7002 3.49322C23.3057 3.10672 22.6726 3.11321 22.2861 3.50771L11.4982 14.5191L8.13183 9.17411C7.83751 8.70679 7.22007 8.56655 6.75275 8.86087C6.28542 9.1552 6.14518 9.77264 6.43951 10.24L10.4804 16.656C10.6435 16.9149 10.9161 17.0849 11.2203 17.1174C11.5245 17.15 11.8268 17.0415 12.0409 16.8229L23.7147 4.90736Z" fill="#7FC128"/>
</svg>
