<svg width="32" height="32" viewBox="0 0 32 32" fill="none" xmlns="http://www.w3.org/2000/svg">
<path d="M3.76 19.6C2.8 19.6 2 19.28 1.36 18.64C0.72 18 0.4 17.2 0.4 16.24C0.4 15.28 0.72 14.5 1.36 13.9C2 13.3 2.8 13 3.76 13H28.18C29.14 13 29.94 13.32 30.58 13.96C31.22 14.56 31.54 15.34 31.54 16.3C31.54 17.26 31.22 18.06 30.58 18.7C29.94 19.3 29.14 19.6 28.18 19.6H3.76ZM15.88 31.3C14.76 31.3 13.82 30.94 13.06 30.22C12.34 29.5 11.98 28.58 11.98 27.46V4.06C11.98 2.94 12.36 2.02 13.12 1.3C13.88 0.579999 14.82 0.219999 15.94 0.219999C17.1 0.219999 18.02 0.579999 18.7 1.3C19.42 2.02 19.78 2.94 19.78 4.06V27.46C19.78 28.58 19.42 29.5 18.7 30.22C17.98 30.94 17.04 31.3 15.88 31.3Z" fill="#7FC128"/>
</svg>
