<svg width="60" height="60" viewBox="0 0 60 60" fill="none" xmlns="http://www.w3.org/2000/svg">
<path d="M22.5 45H37.5" stroke="#F5F5F7" stroke-width="5" stroke-linecap="round" stroke-linejoin="round"/>
<path d="M25 55H35" stroke="#F5F5F7" stroke-width="5" stroke-linecap="round" stroke-linejoin="round"/>
<path d="M37.725 35C38.175 32.55 39.35 30.65 41.25 28.75C42.4572 27.6388 43.4154 26.2846 44.0617 24.7765C44.7081 23.2684 45.0278 21.6405 45 20C45 16.0218 43.4196 12.2064 40.6066 9.3934C37.7936 6.58035 33.9782 5 30 5C26.0218 5 22.2064 6.58035 19.3934 9.3934C16.5804 12.2064 15 16.0218 15 20C15 22.5 15.575 25.575 18.75 28.75C20.5601 30.4052 21.795 32.5946 22.275 35" stroke="#F5F5F7" stroke-width="5" stroke-linecap="round" stroke-linejoin="round"/>
</svg>
