<svg width="70" height="70" viewBox="0 0 70 70" fill="none" xmlns="http://www.w3.org/2000/svg">
<g clip-path="url(#clip0_2357_1028)">
<path d="M66.6228 38.0703C66.6228 39.6174 66.0082 41.1011 64.9143 42.1951C63.8203 43.2891 62.3366 43.9036 60.7895 43.9036H25.7895L14.1228 55.5703V8.90365C14.1228 7.35655 14.7374 5.87282 15.8313 4.77886C16.9253 3.68489 18.409 3.07031 19.9561 3.07031H60.7895C62.3366 3.07031 63.8203 3.68489 64.9143 4.77886C66.0082 5.87282 66.6228 7.35655 66.6228 8.90365V38.0703Z" stroke="#F5F5F7" stroke-width="7" stroke-linecap="round" stroke-linejoin="round"/>
<path d="M54.3421 52.1934C54.3421 53.7405 53.7275 55.2242 52.6336 56.3181C51.5396 57.4121 50.0559 58.0267 48.5088 58.0267H13.5088L1.8421 69.6934V23.0267C1.8421 21.4796 2.45668 19.9959 3.55065 18.9019C4.64461 17.8079 6.12834 17.1934 7.67544 17.1934H48.5088C50.0559 17.1934 51.5396 17.8079 52.6336 18.9019C53.7275 19.9959 54.3421 21.4796 54.3421 23.0267V52.1934Z" fill="#F5F5F7"/>
</g>
<defs>
<clipPath id="clip0_2357_1028">
<rect width="70" height="70" fill="white"/>
</clipPath>
</defs>
</svg>
