<svg width="64" height="64" viewBox="0 0 64 64" fill="none" xmlns="http://www.w3.org/2000/svg">
<path d="M18.6666 58.6663H10.6666C9.25216 58.6663 7.8956 58.1044 6.89541 57.1042C5.89522 56.1041 5.33331 54.7475 5.33331 53.333V34.6663C5.33331 33.2519 5.89522 31.8953 6.89541 30.8951C7.8956 29.8949 9.25216 29.333 10.6666 29.333H18.6666M37.3333 23.9997V13.333C37.3333 11.2113 36.4905 9.17644 34.9902 7.67615C33.4899 6.17586 31.455 5.33301 29.3333 5.33301L18.6666 29.333V58.6663H48.7466C50.0329 58.6809 51.281 58.2301 52.2611 57.397C53.2411 56.564 53.8871 55.4048 54.08 54.133L57.76 30.133C57.876 29.3686 57.8244 28.5882 57.6089 27.8457C57.3933 27.1032 57.0189 26.4165 56.5116 25.833C56.0043 25.2496 55.3762 24.7835 54.6708 24.4669C53.9655 24.1504 53.1997 23.9909 52.4266 23.9997H37.3333Z" stroke="#7266BA" stroke-width="5" stroke-linecap="round" stroke-linejoin="round"/>
</svg>
